<mxfile host="65bd71144e">
    <diagram id="0Hk_cehwTa1kOrBJsDTs" name="Page-1">
        <mxGraphModel dx="1086" dy="751" grid="1" gridSize="10" guides="1" tooltips="1" connect="1" arrows="1" fold="1" page="1" pageScale="1" pageWidth="850" pageHeight="1100" math="0" shadow="0">
            <root>
                <mxCell id="0"/>
                <mxCell id="1" parent="0"/>
                <mxCell id="2" value="http://ics2o.mths.ca" style="swimlane;whiteSpace=wrap;html=1;" parent="1" vertex="1">
                    <mxGeometry x="30" y="30" width="1064.85" height="620" as="geometry"/>
                </mxCell>
                <mxCell id="12" value="" style="shape=image;verticalLabelPosition=bottom;labelBackgroundColor=default;verticalAlign=top;aspect=fixed;imageAspect=0;image=data:image/png,iVBORw0KGgoAAAANSUhEUgAAAggAAAElCAYAAACBJhoWAAAAAXNSR0IArs4c6QAAIABJREFUeF7svQeYZGlV/39uqNC5J6edjeyy7AK7CwjKjyAICooKCAYEDCAqoGJCJAgqQUEfVIIJQQmC/BWVoOijgoHMwsLCRlg2zcxODh2r6ob/8znnfe+9VV2dZnpmenbrLkN3V9343vec8z3fE95geGg4l8E2GIHBCKy7Echr6arvaWTTsExuH131ccsdsPe6w8vtMvh+MAKDEbgXjUAQBhIMAMK96I0OHuVeNQIDgHCvep2DhxmMwDk1AosChDxfnFQIgkAfcrF9/Pfn1EgMbnYwAutwBNYjQFhKNzCES+mHs60binsPRAIxPTbYBiMwGIH+I9AXILTbbUnSZMkxC8NQsixbsA+fNxvNszbes3OzC6491BwqlNZZu7HBhQcjcBIjsN4AAgZ2bn5u2ScBCPQDEo16Q6IoWvb4td4hTVNptVtdp+UeuR901mAbjMBgBBaOwJIAYcOGDTI0NNR11PHjx2VmZqb4DOHavn27/r1v3z79iUE+GxuAZb41v+DSzWZTwmCgBM7GOxlc89RGYL0CBIzrjh07uh4OI3zgwIEuYDAxMSEjIyMyNTWl/84GQKg6PNw3eu3o0aPFfdZrdYnj+NRe1ODowQjcC0dgSYDw7ne/W57znOcseOw77rhDfu/3fk/+7M/+TLZs2aLAAK9geHhY5ufnlUHAWGe5MQyLGeelqMhcchVgaEBACP9QQL0b16myHRzzC7/wC/KKV7xCnvKUp8gXv/hFGQCEe+HMvY880noFCMjUsWPHpNFodL0JjPGnP/1peeYznymHDh1SHfGzP/uz8lu/9Vvyu7/7uwoQkHvkFhlHvhcLOyzGUnJB5FyPDwKJwsj+7hMWRWegH7Zu3Srve9/75LGPfazUajU5fPiwvOtd75Jf//VfL5yasx3+uI9M6cFjnkMjsCKAsGfPHvmnf/onBQGXX365Clmn05FHPvKRcuedd3YBhLm55elHPz6L0ZD9xm+5ffl+48aN8j3f8z3y1re+Vb0E7u8zn/nMACCcQxNycKvdI3AuAIS/+7u/U4M7NjYmT37yk2Xz5s3y3//93/L4xz9e3v72t3cBhOXkuPr0SwGE3nmy1Hk5z3/+53/Kd37nd8rnP/95uemmm+SpT32qjI+Py2/+5m+qswODAJMw2AYjMBiBcgRWBBAQdoTLb//+7/8uT3ziE+Ud73iHvPzlL18AEBA8jPPFF1+soOJb3/qWfOpTn1KP47u+67uUDeCcrZbFBC+55BL9h5K59tpr9ZhHPepR8uAHP1imp6fls5/9rNx44426L4b/277t2+See+4RgAuAgJ9Jksj//d//db3bAUAYTPVzfQTOBYBw1VVXyVe/+lUd6gsvvFC++c1vqoxfcMEFqh+qDAL73P/+95err75adu7cKYQsb7jhBvnc5z6nwOKaa67RECb6gg3Dj+7B68e4o0MIaT760Y/W8998882qS06cOKH7P+xhD1NH4X/+53/kiiuukO/4ju+Q66+/XvfhWJgEnJsXv/jF8pa3vEV1C/twnbMVGj3X5+jg/u+9I3BSAAGP4Yd/+Iflgx/8oApaNcQA5XjdddfJ+eefr0YcY08Y4vbbb5cHPOAB8vd///dK/b/kJS+RP/7jP9aR5bMf+qEfkhe+8IXyl3/5l2roH/GIR6iiqNfrqmx+9Ed/VPd7zGMeo8L+L//yL/KgBz1Idu/erTTmn/zJn8jv//7v6/kQeJTNACDceyfufeXJzjWAsG3bNgXsyP2ll14qv/Zrv9YFEPDckWNCEUeOHFHAT2gSIIEME5bg2E2bNmnOAjlQ7OdznQAX//u//6t/ox9GR0eVxQQYcCxMweMe9zjVJW9729t0P35/9atfLbfddpvqBLbv+77vk49+9KMKTL792799ABDuKwK1Dp4ziqOTSponhJYmq++LciqPvCKAgBD9+I//uKL4pz/96RpLRPCe/exnC2xCFSAAGDDUeACgfDZQ/mWXXSbf/d3frYrhk5/8pOYqINw8NIqAz1EWr33tazV/APAAiLjooovkG9/4hu6PZwBwACCw3XXXXfLKV75SPRbvcfA5SgJ6cwAQTmVqDI5dDyNwLgAEjC0yvmvXLg0pXHnllSrTyCvhPs8gvP71r5e9e/eqwwADiZwC5slZYMMZQJ/AGKBHMPA/8iM/Ih/4wAfUCXjRi16kTgehDNgBmEnOSZjgPe95jzz3uc8tZJ/zvfe971UQ8PGPf1yZCr/BFnzlK19RB+N1r3ud6pA4ivX6g20wAms9Asw3DC0bv6dJ0pVMT0MBLbnVzgLk1ZBdY1uQi+TuqzpztDm0SHsBzp9Lli6sLFzt82hVj6sA5vcFjZJ81u9iSYpcEC8A4QXpVwECBh8WARoPb4KY5Jve9Cb1EmAOQP9QfQwUdCQK4v3vf798+MMf1vMRUsCDwPNAmbD93M/9nDIHAAzCEgCE2dlZVUicq3cbAITVTonB/ut1BM4FgNBv7B7ykIfIl7/85QVJioQfkX1CgoQZcAKe8Yxn6CnQGzgi73znO9XQAyJwApBzHAPCAx/5yEfUYSDpkQ1d8Rd/8RdC7hO6yMs+LOeznvWsBaXYXBP2kQqMf/iHf5Af+7EfU101PDS8XqfA4L7O1RFwRjauxTI9NS15TkKuyPj4qHQ6iQGCPq04GvVYJsZjMnElTTIJ40AmRmua0vv1m6gSclii52Dq9IZHR/om8+sQrqBfMoBgfn6ukBsFN72dFHsBwi233CJ/+Id/qNfAgN96660q/Ah5bxUDuQRkB4PwyXQGqRMGgPIHIHzsYx9TKpFKg5/5mZ+R7/3e75WnPe1p+h2hhX4G388PMo6JQwIQqrFDmA2ylX2VwwAgnKsSNbjv3hE4FwACjOLdd9+tSgVn4Utf+lJR8txbxfDbv/3b8pM/+ZNq9MkbIHeBpGcPEFBQgALAAiFJzoszgPGnogowsNhGOSUAAvYQxwTmwCc6koT45je/WcMNODH8/Ou//mtlLlGCMAjokcE2GIFTGoFAdM512olW8QWY9bguQgJsEEqYZ5J35qUWxxJFoczOkNRfYQwcZtCqfKUPlHaQzRsact6OEZmZgyHwyML9zMEZmXSOdWTv8bbMJamyDhxe3RqNpqRZT4iiso/ed6ctF02OSC1nv1zqcbw8QOhNUuSiPmu4FyAADmACEMaXvexlKoAkCT3wgQ8sAAL5CdCDxAQRavYhoREhJq7Iz2riE6EHvAfyGHyIgTAFscZqYyZ6IKCkBgDhlKb44OB1NALnAkCoyqofOq8fqgDhjW98o/YfwHEg7v+FL3xBkxJJTPYAAV3w53/+5/KCF7xAYAHQJb/xG78hHEtCMkYf5wSGwm/oDq5HqLFX9r2uIlzx8z//8wo+YCKpZOjdBizCOpr45+CtRHEsadIRCSNJg1CAByKhRPWa1IeHlRGYPXJYhuuRhEEgnSyTdoYh17aeyhCY8ecfCIFPzILXw0yGahY+8J9t3TIsoyORBHkogSSSt0SOHmpJ2rYSYAqJ5zuJDNdiyYNAptNApjouBKFlwqK21uc1hACW6WnZMNyU0N1H3G8thl4GwQMEjDFI28coyAvoBQiEHmAFoACJR8Ik/Ou//qsCge///u/XmCBIHU8Dr4CNEMRLX/pS/R1QQVwRRcBPQhNkG8NCENN8+MMfrgzCACCcgxI0uOVVj8C5BBAoE8RQmyfS0f4DVYCAnJMLQFgAqh+wgPGHTWQDOBBCJAfhE5/4hH4GK0g44ODBg5ojQMUDDgbH0OOEPCPYzQ996EOayNwPILAPOUowB1ReVVlKEhsBH2wDgLDq6Tk4wI0AiYcwBHOttuRhJEMTE5IHoXryYRRJHIeSTk9LOjsjtVosWS7SygKpjY71GcOFsYe8k0jWnlZmQgGF5LJpQ11GmyKRhi1iCfNQ8pmOZPOZZAkAQaTVSWWoTrhCZKqVyDTMhogkWSr1qCbtuC6dzJIfyZPIs0zm5uelVqsryMj5fLkQgwcI1Vph33K1FyCQxEglgu/ASOki+xJi+Kmf+iml9dh+6Zd+Sf7oj/5IfycD2XsRKBdoQuKPnvKDikSRoGx8FcMAIAxk874wAucSQKgaWO9kVAECCYHkIPmyQow/+QRUJrCRn0ByIyADthAggCOBc+DDhw996EPlH//xH/Uzv1EC/YQnPEFzlvoBBEKTHgT0zhnCpSRQDwDCfUGa1uYZNbPfrUdkpjqQNE2knWZSGx7VkEBzdES9dgxzDtff6cjUwf0yOTqm+TIdCaUxNiG1Yb8sQRUUdMcGjFkIJMwTmZuii3Gg4YPO7LSknZbUo1AuvnBSQkkVPLRnO5LMG3/B/9vRuTTiSOoRTcoCmem0ZaTZkNsOT0nYHLH7hLcIA5menpHRsTHJskTa863FAULvcPYDCP2GHLbg//2//6exQ4/c/X4a74tjrXBAmMlRwJvg81pck3anrbtyDmKTnAOAstgCMf1CDL33NOikuDaCMTjLmR+B9QoQ+o1EP4DQb7/73e9+ml9ArgIlkdUN3YBM/8d//IfqCDoywkrCTsBI+PVfABVUIcAiACbWYhswCGsxivfOc/gqBJ4ujiKZnplyxl8kdMbVm3gf+1ebpUmIpZG2AIL9bTCgmy2o5iza9+yLz2+BBW8HwR7+LNXzVY8vf7eepWWuQ+ACGBZmyCWUwHU9juhyyjPWSYoMJc2ytQcIS00RmhxRygQAgCGAFiTWCDjQZMMsLRoorWSqDQDCSkZpsM+5OgL3RoCw1LugsoBmaqzhwLoONEVCKfoF13AgSI4+HdsAIJyOUT3Hz+mSDltzc5JmlhOwedOwXHDeuDEDmNGiqiCXsCOSHm1rbeKxEzNK7zeGyuRXAw8ls6BJjEK+AmAic+EDn2XgwIOrdcTzP3Z0Xq87Pt6QOIbJ4EjjCKpH2agb08D/5Xkk84mFF4ZrkaS5yOx8S4YbsbTnEpmfTyUKA5nYMKTZCzcfmJZoZMyeuTfEsJKlnhX7uN7nZQ5mORlKpGM4BuQP7Uh3ROKF5C/86Z/+qWYlI/B4+dXNewq+V/tSrVSXWtNBh4mV5Qq0tvYTdi2Xje03lmtxx+fCPa7lArynaxxLf+DU38qK7tElJq3maiObhmVy++hqDlnRvnuuO2RStMhS8F1rGSxRUlU93h/DSovIPAmKJCOSREhYEYYx0h4FpZLtXXfhVNZQqMrFqZxnRe9yRaO8cKe1kt3Td49rdYfVfP6THKwlDlvtXcIadNptieJQLrpgTGZuPyG0GWiHIjMhRhfbkqsR3lCLZSTUPEQJkkwBAksHQdm7FghWq+Dc+qJAwQUCfFIiP010LETgDb3WKcSpbNg5IVmUS0Srgq4FCIvOCQ4a2NvmOu2jHbnz8KxMUVqpayMFmrdwyeZxiYEm3HSKjQ5kZrYlaSDS2DghB6bmJAmihQBhta+GG9m8edOSy7iSfORXe6yeH6HES+hd9IUkJzqorfalLnbv3OPY2KgmPa7VhkIjeWqt7pH7qjfqMjk5uVa3qC+fe1xJDexKL4rgkHuyltuxY8eVOepTFnxSl2Febdq8aU2X8uX+tIfHGt0lIkx1zmKGSd/dsf2LGuTFBuZ0AYRk3/LLNOs9Hzi46nfmK5B6D2RsYBvJYVrLjffY1lbvazTjAlGZOBWQ0ft8xKrJv1qr+cajrvU9khty6NDhtRpFNaLov157cCrv3nTgIbPeK9h4h5Qo1sn+114bgdTCjuwcH5YDB2dkqp1Lput2lEY56LRkQzOSrZuHJc1DmctoaFQ18P2vjaFvhDMSUlUA2AiHJYxHJQgSSdsnRPJEwnhSgrAuediR2tCMjlEUT4rwWTYreTLFJxLXJkUCW5XUwQORPJNvfO02mctCSSizVOghEkkuzTyR88/fKc1GQxssEcLLs1Cm26nmNqRRLDGLq/UyCCsYwwW77Ni5Y8klU73B9/0KCA0QUqCEsV/9MWzD/nv2n8yt9D2G17Nhw6R2YVurDYBAnfaaCTCZ3EPNNTe+lHatJUAgY5c++mu5kU0+N7vyhb6WuzZCvnPXzjUFCCjstQSECPF555236D2i2Pbsv6tYFXW5Z/bfny6AEB1ZHlxzz3ffdfdKb7XYDxZRV3j0WtVRu74/AfplLbdDBw9pstiabUEg5523a00BAiXfJHmvlX5BJnat8T2iz/fs2bumAAEQ45Pc1+L9qBzt2SM5pQNLbEXHwyCXKMjVniWpRfg7SSJbtwzJ0aOzMt8mX64umespEIaRJMm8NJuRbNs8Io3GuMx3lgfT3EoUidSiY2qwszyVuDYuQyNbtWyxPXeP/ozq20XiIQmzlnTm96nxjxs7RKIhyZLjkrcB5A2pNXdIHhioAfYmaSaHjxyRO++4W+LYGDirbYDZiKQ1Py87d22XDRMTUqvXtPIoS3M5DigNQl0ldWh46MwAhNW+6AFAWO2ILb7/ACCszVh6gBDRivQkVaIPnXmUfyYAAmWFjWhIByGVRFrt+ZMakNMJEJa6IRT1ACCc1CvrOmgAEBYHCIwNjk9rfk5GRkdlbCyW1nwih4/Q2TfUHLn5+ZY0mkMq+p1OyXZmeaBeeJp2lL7fdd7urmTCkCSFns2DvjjKpRbPieSAkZbUG01pNCbUlHdax4hXSByPSRAQgs+k0zmurEBcm5AgiCTL2pImUyIBDMKESE7swUIZczNtufa6G2RycqOyswAaK74gPBIom37ixHHZsnmTbN22VZIk1dJjcn8uueR+CnYpLT4jDMJqp/cAIKx2xAYAoToCa80gaFnv3JyGveAOu7xPTRA2qlrzhckwdv3Tq7FGDHW90Sg8GfaFidG+Im6rUtQnyyCMbx6VjTsnfBM2GW2Oyp2fuVmm5zN50OMfLIemDpzU5BoAhCXdzwGDcFKzqvsgZOJsMAiAg/m5OdmwcVKmTpyQhPbbI8OayY/Rx8TPzrJ44JD2MCDX/5KLL1J5v+XWb0gtbigoICdh9+7ziocaaiTSiGYrDoXLhnOGWjsuCnphmxr5IJ+VQE5oUmFjaJuGDpLWYZF0VrKgJvUh2IVQ2q2DEmTzEsQjEtc3ieSptOf3SWfWciYIV0xPdeSm247K5OQGOTE1JVu2bFYwMN9qa1OxjZs2y4njxzVPAsYGMACQILxDkvCaAQQeefv2bUuGGFY7d6A79u/fv2b0moYYJidlZHRktbey6P54g9RerxUFyIUIMfgGUmt1o1pKtrLw24ouScctmtes5QaVOjc3f5J++cI70dyWHdvXJMQA/W2thKEBM5mcmFAFYixCd+qXClUtksmJugptQi/1KJDxkZoEYSRfu3GfJjq5DCd3f64MylHAZcgtl70H9qw6xCBJriBE85vzmpw/JPKu5/2g/Mw7Pyrj33aZHJ5afY4AIxwc6k4k7vv+lc61NVTWaqNDHfplLTfmGwbhZJmgBfdCSGvnjjUPMeDRrZl+OQ33SIhh3z6o8LXZkCbyTXqT1k/l7BjuvXv3LZmDAECgBwdg4EFX7pBm3cJdJO5ZoWEuX7thP82HCyBAeBz5P3T4sIShUfv1KJcrLt8qnjUIg9SVKVpnxO42yZG024nmLNQb2xUMROGsSHZEcqlJY2in/kzb94gk05KGDak3dyhA6LT3iqTzEkQTEtW3SCBtDUl05uYUIOChTE115MbbjkmzOaSGf2RkSEaGhyVJU9O1QSAbN22SmelpmdywQY4eOaLggBwQ33dkTRiENbQ9PfPAV3ieyvSwY4ukjVM/1Wm7x9N3n2s3jqfzHte+iuHk1BaIutNJJYeSw4TQj7ze1M5ovpd6HIUax1MmoZJAHLjaZ81cdsXOkAuTY7FcdP6EzLZc9nOhUjmYVqmp9lLfd7wl0+2Oy0AmEF8CkHqT2uTFV2sjbtiZ68izr76f/MileBodaYcNiaNE7j/UkKf9f5+XoYddKoeOnxxA2HPd4RVKz2C+rXCgVrDb2o3l6dPTawaz1tKPWbGetny4XHZuH9IkvijOpFGLFGRT5gfgx+v++k3HJY9qEtIhkaRC7R0Aa2C6gGZJUZjJ5ZdMCKmCWUArY6P8k45VJdQbNVunoRBj0wckHJI6SM4BiYmqC8OGoyLbIlkiOQwDn7FlLQ01kHNAAiP6g3ADOosLASLmWqnc+M3jChBwbOiSqEBfRIZGRmRyYlIOHzmsoIGqQs9kwt7jDLGhC9ckxLCCmT7YZTAC63oEaImKkIO+s5C0ISs5iuKaNNzS5LNHj2gdMQCgnaY46y68EFjnND0CQfRhA/Ma6qHISN0pFDcKmzY2ZXwsdr3UU8lbmRw70pH2nFtQJchltpPIkFs/fiYP5USSaPxQgZomUtHMxPZHcc0dn5Ort2+SKzePar4Bd9EKcxnJanLg/N2yd/6wTM9Nn9R72LtigHBSpx8cNBiBszMCgUiatGTjpMvTSRJnLGEMc4ExTZNcDh+d03bKlN3aImAmd/xtyfeJhEEuk+O2loG2WcbAwiE440yYMTUK0SUT+pRC9+jd1YrLjEfl2N7j8kCSLJMjx1t6f+TxAGgAI9wTLLV2dOx09Fl8eIFqhq4y5NUCBJ9pbL2ZrO96b9xU93Hf+97s1SetngOlxjl6a5u9p6pxHQm0hNIon/Lc1dhtv5Fcy5KjszNzB1c9UyOAEgjCUObmrZf68MSkZMQeXS91aP9kdkrS6Rn1KADYc0ku9bFxu8VyOfeSbvUEBo1UUCDz05K0LTRBbsLGDTWZGA0kygMZG4uIdrpe6rnrpZ7LfDuVoVqkMjbVTuXYnLELHXqph7GkzZq080xBgpZndXKlLTdt2iwSB5IdnZHZPJGL73+eDG8bkaMnVsoCLBz55QBCVT49YOmVUfNkbDGZlegPr1+qyZ3+zlRnAOOcDmEfW0HPWuF6vTLQDWdKis6N68RRIBuGQ2nGrOIZStrcJFOzcxo2pHLEDLjbypaHJVEYhFoSWOUnMcDmdVvbIq8TinaLZ2loFEKoLFBpkUijURdWdZyZmVbQYMABnQH70CeZcqUAQRsddaAeFlKcXIQsT26gw2pWPZsmZ9UoC7Fz9DZa0fISUJZr97iasfTLufa7ZqPu6JjVnHCw771+BLSXelW8A2vkNd/pSH2EDmn0Uh9Wb6HIMUgTmdq/XybHxnS99FaSS2NsUuojTaMBi+KihcEsFbsc85/I3DQxRgxYLsnsrCTtOaEg6n4XbZCITmoY/7lUOnO2KIsjCxRQ0Ee9UQNMhzJFTLHZkLuOz0mHEEhsaonnmp9ry1UPfriE9Uz23XaHtCWR3Q/aKsenjp/Su10KICD7vk169SKWk1FXY833PrZZ3Yfv0SF4M/30B6WOKOTVbos5Hpyn2WiuSX7Kau9psP/ZG4E4jmT7RF12jFUM4cQFIg0H8lVOyVe4W+6550A3UKjcNvkKZZKyyf7w8IjLSzp7z7folQNbCA07rGFIJ4ewBf3seZf8rgQgaAb3vNUMs4AKy6tCUfglm6uro1E6cemll+oCKPfcc4/cfPPNWjbhN27yggsu0FUeUR6szkYvda84OJZ9OPe2bdu03/rHPvYxPZzMSnq4k/nNIi+33HKLxk7YaDgDTcLaDWSaa2nXfRAgQH0zrlBJ0GODzUagt5f6zKyj2XXddIsDFoSdHza3alrR/czF75bIAnDDXR1335oEigHK0nbR92QWvQItumO5qnq0W5sdU7xOfyzv2E5bXJde6rWY5mNbCTTKgUNH5bGPf6TccfAWmWudWt3/YgDBtz8mwYl1FvhHUhSZ0shxtTUyya2XX3656g8WWUKOtUGWztlcRkdHVXegY2ishv6gRwYb57/oootU5km8pSsrcv75z39ejf2FF16oeoXzoVdIIOac7OOTarUePs8HAOE+phjwnB/wgMulduI2jefbhJoQmTi/eyQIG2SJdOan5KZbb5f5Th+vGofWC6U7ejlDe7aHu7jfCu2xXF8IrzeXzUHwK7P93M/9nLZHViovy1TwMMhknSK0CPf111+vgsr3nl6kt/p//dd/6aDSWvn5z39+pU400LUYfuzHfkw/w7iTHcpSzy9/+cv1M84DMLntttsK2pDPrrvuOmF1N67FKnGPetSj5F3vepf89E//9H0KINCNa/tEJNvHSaBhWbzdIs1J6bTnZd+evXLg0JFVd+M72xN6La8POGi35rVxCOZ6cqIh97uYpcZd0xDNUdaooUSpSHJ4XoIslONTs1KPQ2kOk0CkJtqYBzx7RRPWm52EICW7lQFw36t0echhOQk5vdSPzOu+o+MNDVVQ51z2Ui+f2tQSVQiurjkPpJVkkuSZjNRrCv5mWm1p1kPJWrlMz7RVNjZsHJInX7ZNrr39sExffrGcSKal3elIq2XXPZVtMYAwOzerzc6+9rWvqXEHEGhdeRTp6q2s4sr25Cc/WZd792CA+wXkA/qRYeSeFsuAfa8/+Mnqj4AAnIWvfvWreh0ciquuukr++Z//WZ72tKfpCrLPe97z9DhlJINAWFmWlR9xKDwwQEehswYMwqnMhLN3bAGqVzGVCSM86KoHazhBDt5Q3vymy0SiCss8fY/IbJnAi4x99e62dFi4YIWbljevfPcVnvXs7aZs63KdFGEPEGYQOcLL0qoI7HOf+1x561vfKm95y1vkF3/xF9XT/97v/V75m7/5G3nZy16my7iyYiOInnbKCDLfUb7Iok0IM8cg6ICBN7zhDQVA4Lt/+qd/0pUcOQYB9ys8olRe9apXyQtf+EJ5//vfL8961rPukwCByXjJ7i0yEVCe4ybR6A6R4e62tCjTe/beLXv3nVz9+9mbnqd2ZeYslDVjs/v8EZnfC6WfShoGMuda+2PgSfqbiEMZZT10PHbNOA4kSYhvE7/z91H2Uq+WKOg5LHXYEhb1XbiMYR8jYEGWKJXxbeOSRZkQB1VWo6pMtGkCFQ0GDuxHLp2pRPYdmZNjbTKc6fIGaBC5YHJEGpFjilJKG0MWyeXLAAAgAElEQVSZm2vJwzaNy5Oe/Ej570PH5eb5adlzdPXtmvuNfD+AoKGZ1ryun/Dxj39cWUPkHnDw6U9/WgEDjAKgAaaQd/Kd3/mdCgzQHRjxd77znWrcMfxXXnmlvPa1r5W3ve1tqhc4Jw4KzAGsAwDBr+vyO7/zO8pCwEi++c1v1hUgf+InfkL1xJe//GVlHDgfceUBQDg1WVoPRyMXDz6PqpxApluZfGN/WxcdWm678soHyPDIqDEHh24sd99yhfYeoBpAjn5TJFnYQGymlckN+2yF4aU2dPH9t9VkpBFp98Wv7W1ZOfM5vq0YIIDI77zzTtm1a5fSdyB3jDuMAcIPKqdvOLFEQgN+XXcUB97FJz/5SfngBz8oT3rSkxQoYPzZ+J3Fmz772c+qp+AZBJgGGAsYBJaO/r//+z+tReczNihDvAYEn250rA9Ps4fjx48rALm3hxhqtVguv/z+0sxnRab32TRklm5m0peNdwTKbP6wSHtWW2jeur91r0K4/eSPhEOMCDFHXSxFWGK8LdtGmnLieEuOTieSEn5ilTN19AMJk7aM1wLZvnVEs38PnMi07agttNp/Y7hZ+nXzeCix75YWNLWXugSp9lKn/CgMxySImpKFbYmHaZpCL/VxEUqWsnnJUmuMop3QtJd6t9b71o23y0w7l7Y2UjEMAmcxnCeyc8dWGWXt+TRTMJRlodRHY3nkpbvleFyTrxzcK0emjqyJmloKIMDeweKhC1itFfnGYNNvAAON4f6rv/orYbXGZzzjGYUMP+xhD1Pd4R0JmEj0hy+7Qr8QNnjKU56i+geAQK4CnxGeYAOIoDte+tKXqm5ie8UrXqGfoS+4LiELtltvvXUQYliT2XDmTzIxFMpl2zybJ1qCeGg6lTuPLJ6fsmnTpFx8yaXuZnORA18rb3zrg+z3qT0ic1UZqWQXi8gdhztyYMpVFvU8Nhj/vA2xbBmLSydNRL55sC1HZs59hLAsQKjmH+AZvOY1r1GWYHzcEjvwChB+6H6MM3+D9vttCDc0ISADNoINQf/617+usUZikx4gwFKgNNie+tSnKlXYbyP/wRpWdG/nCkCgTHa4gaeby1yfeFe/Z8YwXXnlFTI0PCJy4m6R+aO228g2kZGt9juoGMpsrjtr/chMKt88uDCRdDFxH23QSUxkqmUlMut6c/37ba102pFSUmSrnmFUNm9syvRMS2bmMu18VvZSDyVJ2tKoB7Jt87B00kAOHJwtaoGXeuahobrs3F7XBilacRMPy/DoTg0ddGZpINOWsLZNgtqIhHlHOnN7FACE9a0SRHg1M5K2aeJSk7i5QyQoFSD5CsjDHXfcrZn6CKvllRB2izVssm3bZtm4YYN6y+2Ogb/pzrRccvklcuzEITk8ffJVC73P3Q8g+PwDmAH0wItf/GK55pprrKIiy+QjH/mI/PiP/7j89m//tvzqr/6q/Mqv/Ip6+70bMsyzogse+MAHFl+/5z3vkWc/+9lq6AEC6BBahxNy9BthCXRTvw1WEnaydxuEGNa1JPe9Ocz25Tvqgk6qbu0klz3HEjk8nS4Iol119YOlXs1FO3GXyPwxOxwGgU1ZhUBkeItIc6IMO8A4tGdk9vhB+fodTsdWLrx5NJKdk7E0XIKw/4qOpbccaN83GAQPEBD4q6++WscAVP+IRzxCXvKSl6g3ME0npslJZQ1QCngAeA0ojde97nW6QBKCCpKHUfjBH/xB+fCHP6zn8sb/c5/7nHz7t397ARAe/ehHK2vAxu//8z//ozkI0JW+CgLmwHczhD0AFODB4H2cKwDhQbvq0iQzXUQOTqWy73giTPiltksuvlA2bnarKVYn/KbLRSLHnR+/U6TVP2v99sMdvdZS23A9VGQMamdjf45br5uW8kR0GJtX4DQ+VteOYQcOHHctQxvSaXe0Jjiqx9Ken68sDBRoQit1wixg0hwakjTxNc7UPVPKu/DJ+WhsbEg2baxJFNakk7SULRsa2qRBh04LpdKRqDYmUTis1+u08VRcL/WwJnnWkaSDwgolrm+A6yiWhU07mXzu2q/K2OiEAhx6vfu5D+jhPmdnZmR8fFTb/JJ0RFc3kvoe/Kgr5Pj80TXNPekHEGAtuDdkHnkksZAM7x/4gR9QmYfp+9mf/VlNICYU+bd/+7cKGNjIPXjRi16kMv/qV79aQ5HoDY5Bhnmn6BrCBN///d8vd9xxhwIEkh/RA35Ddzz84Q+Xxz3uccpUspFr4EEHDAVhBzZ0FdsAIKxXSV78vkjZedCupi513G/DibnrSEdmWqY/CQ9e89BrtMSv2NK2yJFbLFFg46UiaUfkxJ0iVDPU+y+Rjo259ovXFqcYbQSye2NtAVDxO8BsfH1vWyudzvVtxQwCio9qBIAAhpzYH0wCOQB8joKAUiQh8e1vf7v84R/+obIDUI3QjMQJSUQk3ghVSKgBZYeHAM34yle+UsGEZxCqAIHe3DATVEigeKARiWO+4x3vUIWAYjhXkxSvOq8h9QoCxWuE0sLT77f4GKDrmodcXU762UNliGHz5SJhzRgFmAU2AANdugg7wCqkbWm12/LVu1nqduFGfG/7eCQ7JmzZUL8dnU3lGwfWL0Cg9EgTZjdt0BpflvKltCeMa8ogwBa05lsSaJOTSJJ2Wy699BINM9z2rTuV1Wfxk1ZrVil7X1WzaeOQbJ6kPKhnrPTvXFspq3FvbJGQsc/mXC/1UOrNLRoySNtHJUtmJQ9j/cxapR4VSWd0Rba4sUmCPJP2/EFJaIEKZRMH0ppN5Gu3HlaAQCLg+PiY7NixTdIkk5tuvlk2bNiozwywgdEjpEIL1S3btsjE7mE5NrM2oQX/5P0AAuPUarfUy0eWP/OZz6iMsuEEQPPz3ac+9SkF+Bh9dAThwje+8Y3qLCD3yL/PQYBtePe73636AwaCHIRLLrlEDX4/gMCxv/u7v6v5SoARZAS9RJXDIx/5SNU3gxyEc91UiYw3A7n/9uVL1w9Op7L3KMm/Ilfff5cIeVnVrTMrcvwO05UjW6grNuYAsACYQFeSvFgJ1d74tesVwJ63IZLNo926sd/IoivRmef6tixA4AFRACgCEhHf9KY3qTfgNxD/Qx7yEE06wpB/8Ytf1HwAX1aBN/H4xz9ecwzYPvCBDyjrgIfPxnlRAuQisPUCBJ/xzDVgEbwnALiAaiQswTXOVYAw1gzksm2NrvgV40DTjRvvactcuzv3fPd5O2X7zl3lvCOx5sit9vfkxSL1EZGjt4kgBBpycExDl4DMaUjnxGxp8DGANA+5ZEv5bv0h7TSXG/a2pLOO5zvGcWraeqlfdr+tMjYaWKtUF2LAYbjlm4ek1bEM9yxLZDPNhCSXw0eOWi0C2e95Ipfff6uEga5kIDVNKPTVCKACn5XAZ4QuUkmzUGrNbZLlscThvEh2mAVZpdHcLllQl6xzSKRzXNKwJvXmLtp+SYf+6goQRiSq7+BM2ks9mZ+15mNRIPOziVz/jWNSqzUl6bSl0azL+NiYpFkmU1PW6GTDxo06/yfGJ1R2KOfauGtcZCTt25fgVBRWP4DgGUZCHMg+3r6Xfb4jmRmHgo3qIpwH9rU5nsm1116r3j8bicxf+tKX9Kc/BwDo+77v+9QR8FUMvQwCx5ITxX5er8AkAjRIeBxUMZzKW19fx162rSYTQ8svpYy87zvekZ2TNZGxXSJDGxc+CHkHrSmRjFbGHXOgiuXG6Y9+sUjNljg/dOctsrnZ36nqPfF6d6ZW80ZXBBCqeQiEC0gaJAYIi4BAAxL8BniA/sNzoAYa+q/6Pcpv48aNWgmBEkDwYSC8x8Z3fE4+g3Z+qhNbteZKMAhUP3B+spSJV4Lq2PCgYDn4GxrxXAkx9DIIvS+PLNpbDnQ0M5btIQ/YLdHY9u7dPIsA6qV05/DNlovQXJib4Q88dvig3PrN2/XP4Xogl26tdzEZ59KkZ05FUS47d9BLnfbDuTYU0kqENNV50Wm35eZvTkkrsbXQLZTvOvq5TnzajTBP5IpLJ3HgtfiRVsbMx44LOdTrsSS6ToOBBusAClbA46CXeiqStzWTMIxs/QbJW6qAdGW40BROzmc5Xg691JsSBPRnt17qVjoZSSfN5Gu3AhAatswLXQKdAms0m7Jp82ZdnpWlZgEJtUZNGZHaeCijW6xt7Fpuy/VBALBg3GEI2PDoYQqqfRDQH495zGO0NBpQj3df/R7wAOjHIYA1BGB4/YFM+4VkfO8VmiyhH/gOFhNmkXdCoiSAyZdJ+zwl/9kgxLCWM+PMnItY/4POayy7MBSieduhtoZqr9jhGAcM/fj5ZQiWW8a5Ik8L7wiWgYqGY7eLJCQSswUi47tUj37z5hsl68yqA1VUjC3y2MjqjftaRajjzIzO6bnKigCCKbRcy5l6uyDyXRRGyioQj6wKu7/lFXVSdElNvY+JIKOgF+vC5hmG3uPOFYBA2U5vkkvvs5CYdngmkzsPd+Qh5zclAATEVaqNvr/HRabvtolOnC2qWzKONt+ODUFXOoaxdOlNN9wgl24lltaHQu+5idUmN56e6dr/rFQqtFpzsn2rxRDTopc6mc6pUu9Jx3qpExHQXuraX92yn/mbeW3tUzPZvAGgQaYjKzEa0PDtVzkXv5sc+BhjvzoHzzr0v2crjfRqqDzef0oYgve+/zCMQtkS1er8Rdk6qHffKGxoeEjmWrOS5qmMbBqSye3946mn8l5OppMi18OII4+L6Q90B90SF+ukaP3r+9NXw0PD+t1iHVr76SvuaQAQTmUmnJ1jhxuBXOkN/iK3sPdYIvtPpJJklCiLPPSC6gqkZDHHbgEkuox1RCYv1ERE6cyIbLjEznrsWyJt30gtFNl4mVz7pa+oPC4Wgu29nVv3t+XY3H2gimGBsWIthEo6OwiDDGu/aT92pWqc8nM90avn8Wsx8Fm1Z3o/Ya72cq8ex7H+u37H+WYpZ2cqr/yqNDjavcElFi5z2LG5VCaakQSEZ0DDvUk1lDS2p0RaJyzUQGzNVzhw7nhIZGK3xtc6rTnJDt8iDcooltkQjJvvacu0S/5Zbv8z/T3zQI17teMxN+FsdG/1BXOjq9+6ggRb62PhutiLGfreBKRK03YdgN6/T3JU9PWYjMFcwIaMjY1qSTGMAUtJc9swJFlgRnRk0/AZBwg63Mqm2D8/BFp9UUng6JJh9HXP96o/Ku3cvX5YrFNdVT/oolU9emclx53kmxkcdhZG4PLtdRlrLtRZ0Pp7jiZdlWBMu6t3N2VRFTd+nrGsvszR53Bhv2BhXcfFtjTkK7d3J3wP1QLZtSGWDcMLwx3H5zK5Zf/yvRPOwvBVLll1UIqVkxbc0ooZhLP7MPfeq1+1u6E99pfayIZl8iMEyiD43ZuT1i6URESUMpQZncCGNhsCnrxAJGkZIgYts8EsbLhEZubm5Yav3yg7JmPZMc465EvfA2gYVLxet97Wp0vdJ6yA9VIvn3l4uKxcONvPaKLLMrKp5MyNgDUYmtpVkYoKWLok4Ts6mqYLWL2zBRDO9rgNrn/vHoHhWiBX7upOUpzvZHK36sb+3vpFF+6WzWN104eqAwOR2pDI0CbThWzkcKE7PWDgM5IYcbRE5MBUIncc7t9rYXI4VAevWevWnzfd05ap+fXJIHj9EoasPumZORo81brXqHEt6pftpHjvnnZn9+mu2FGXkZ66Xn9HlMtQXnj3MZb4tU+v2W2dxBbdCDEQb6MzGCwD2bl5KnLoJkvCYWuMy4G5utxxp1U6cL4LNhoa7lfOxz77TyRLNiQ5u6O4uqt7r7R6VC87tbozru3eukJhSAfIVBJdJ75ky6ohtcW84wFAWNv3MTjb+hgBvPYrdzZUR5GTtX8qkb3Hls6cVhbhmqsljhdhaQEBgAG2KkAgPHviLr3O9XvaGrJYaqMfwrbxSGLXjRXGlbLL9bYpV0DoNOjognGmC82epClMbNwFEgYMwll+g5tHQ7lwU73LMDMVp+dTufVAZ0Gzja2TdblgI+V0PYJBmIeqBdosE2Yg2YYQxKRrWkW3RZIZ3fb1e3KZne/OygUFk5NAX4bqhpDcvL8ts+1zv673LL/uZS+v60GEbRViNg8Qlj2wssMAIKxmtAb7nksjQHiBZZoPzcCcrezOt2zeKBdcdPGCBZY0hHCYnghOl1b7yLSmJD9+u3zrUFsOT6/M0Gsj29FIZtvZukxQtEACaygZEwww6A7/kYzdzSIMAMLK5thp2+vq3Q2pVRgBQ6wtTaZbbHvIQ6+RiHK7eeJimeUWVJcsndprHRTjpjUD8duB6/W35fqLjzdDuWx7vStb+NyIq52213RGTmzoPpUotHAQ4YRWvnzNde/NDQDCGXldg4ucQyOwfdsW2X3BheUdK3NwZ5lz1Ksr54/J7bfdJvRUuLdsNI435wOGsh84QNeQkl0y1AOAcJbfvk+6IS+L0hxi/csh4107t8vO83b3v3PibIqKM4u1bSg7zunnaUtLcJZLOKRb2bbxWFuJMl1oZUqG8GA7nSMAujdWB3DAIlHzKZ0VV7cNAMLqxmuw931jBMZGh+XSbQ2J8k655LN/dKoZ6mP6V54lctONN8n0zKktj76eRlXDlkEi5B34sAKhZRzSThJJllGizdYdvl4SINAgabl1rkEbdKw7U5u2q+2wKA1V6rb8Lg9BKdVqEtXO1P0udx1oKcoceVFLsQa957nssvvJxGRPnwMoM5okpS50QCLO2M7y0CO3yJ6DM7L3+MoNPQmU3OO9oW3ocu/i7H6fS+DyDjy6R4Bnk2jdAgRWeV1uq8U1beh0pjZKHkni1EoqVyVFGTbVH4NtMAKA7olmKFtGIxkfchU2I9skH9okx4+fkIMHD2qFEI3q7k2bhS5byh7gfIADCCS3O5GkCg7657UtCRCoW8YQ05zENy/yfzN4NCvh86Hm2jdl6fdyuDaNkIyKDbSrIk1UfFkVTZV8J7V708vt9yxRGMpFF18oGzZusuxckmpmDpSJiOQk0C+BdqJu23PrV2Xv0ZV1A7u3j996e74FAuxihHPp8l3jep/lTDEItH/G+NP8CKPMWiysiYLDQJUIPRowzICEM7H5haO4FtfV3gvztoQv5ZD0PhhsgxG4T45AkGjo0rMHOH0w1e02srl4qfuKAAKdCeliyGIsrMKIkUYBeOCAYV7Ke9eyCv2f8/hpaVtJly/qpyvf93uJ3mN57nOfq/3buR/WeaAPO2vL4z0AVs5FJuFkJ+3WySHZMZot7IJYWdmRBX3uuvNOOTHlmn+c7MUGx522ESA+GEcg/LJigeTiuWz13veZBAh+KXa/XPvv/M7vyKte9Spdbvn1r3+9goOlGISiGruiH6q9DRhwzxYqI8B/fUptfLMkdNKf/Mmf6LovXJcF337pl35JO76eK83TTtskG5z4PjkC1aqoau4BHEmnTZXU4lVxJwUQWJAFkEBb0+q2WFfDfm8FhK/d0xbpvogi6F6FwM5Cv/WPfvSj2k6ZxV9o+YxSYIU4VopDKRBuuK9trKMAbRbTI5jqhZHtMj87I/v375eZWfOiBtv6HQFaLWtdMuxfxQCu5yRFGIRegMCyzM9//vN1zQUWZjsZ/cDz43SwEeZcrBti79tE9lkw7rGPfay2eceJYRlo2iuz2JMyHPcxB2L9zvjBnZ2pEahWRml4wW0KEDr00FljBgEakQ36zucf8LsXZD5DyK0ZjXlEExMTuoYCS7bi9VdbpwIWMPIIMQswEQeijSwbQu+73PEZiwxddtll8sxnPlP+/u//XhUA68FzPqhO7uNMhTzO1AseXOfePQKG8GlaAkDo9pDPNYCgwD+2tsls/O1Dg/yNXkA/VD+j1TILvLFE8ze+8Q23QmUZA0bfsBosx/nvfW4Ux+paGZ2OrgrL2i/oANZ0Qf+wwiSrSf7BH/yB/Pqv/7o6D2cyJ+LePXMHT3cujIAChKil69TQJK66sdBcmlj1Qr/tpBgE4v4IH6uk2QpyDbnmmmt0uVYUAgCAmOSmTZtUeFnljaVXMfQINgu0YOQR6osvvlhXemTxFu85gfS/53u+R5eO/b3f+z158YtfrGvAX3XVVbo4DWCCfyzoRB6CX+OdRV4AEAMv4VyYtuvzHqsNSNWgnebbtOziVAGC7xMMgeBbhZ9rAOHVr361Lt1MmIEF1WD7WFTt6quv1pFk1dYPfvCD8t73vld+6qd+SuWcv1lsjQ1mkhDBS1/6Uv37Xe96lzzrWc8qVpBFrxA2YIl3tnvuuUeBxROf+ERd5AnW4l//9V91KXo2Qg0wiz4EQmvnalK1ve/FUrRO88sfnP4+NwL9V2A5PcNQdkyk6VpZN+8bI3l72+nEkuW25kzvdlIAoZqD8JrXvEZQCm9+85vlV37lV+S7v/u75d/+7d903XaUAks0P+pRjxJik//4j/8oT3rSk+QNb3iDfOUrX5GHPvShqgCe85znqFLgc1iGT3ziE8oKsLwr533JS16insOll16q3gFLwOIheI8EoAH4YKVHwMh9eSGWxZYP6heu6T8t15eyXHjfq7k/t+KiX5RhBQa/93qrudpqxbxMTOw90t6iesbB6hP81ksOwhvf+EZdkZFVFmEIMOaszoicPv3pT9fVYAERyC8GHb3yjne8Qx74wAfKD//wD8unPvUp2bdvn44FzgFJ0X/+53+uoILwJrqFjHOYQ3QMIAFdxDLP6CU2lprG0bjhhht0KWo2FnhiO5PverVzY73uf2r65XRK0+pHrJ9OXPkdVnWLSqvJ7JK3ceZmXNkUybXY77qvUr+oFOSsTeNzEZYoc+x++azeaGWOSyUpkihI2IB9UAQYeQz6z//8z6vxx+MnxIACIERAsiMAgm3Xrl2aYMg68SgS0D9LxMICEDI4dOiQUos7duxQYHDdddfpOVAUW7duLR4ZxQLViDKAYlwMIHhvYfkXufhb7n7FK59Oq5++qz9iqem3coBgo7Oc57wS4er2xpcqG1qYceLvYLHrVD/vd7fdxy224NLCI/sDkqVXZlzsTfV/H/YpRF89AtkntLqSNKfH2UIFs546Ke657rCtEeFmR78chN4kRXIR0AUkLGK0CR+iA9AVL3jBC5QhJFT4x3/8xzqMT37yk+XlL3+5fOxjH5PnPe95CirYYBlgI3AA0AvoG1hMwAbOASwFx73sZS8rEiQ5jrDDF77wBXU4HvCAB/QBCOW7XX7WLy2Tp6pf1rNuWQioukdrodwsLjMrGeeVOAbV8bY301/H9MtnWyzHbeEia/3vdmX6tN8YVcfFFnRbyXj0zrzFxsd/HgeZ1LVjYs4C9KpfFp7DnpZOKzBreRZLJw8lcfv6FgLB0NBQ18j6wcPwLgcQMMwIPRQhwgp1SOiBkAGCiyD3ZiX7G4USJBzxR3/0R8o8sIQtGwAANgKA0btxPmKI0IrQjdV4J14GzMViIYbV4rd+Rmi151i9mT/5IzylVJqZcuotNJhW5lLmw7m6l+KDfsbT7s2m9XIGf7l9ln7OUoDtOtY8ynoyLCbw1TMuHIvub0vE3y04VBPYBfVClW0lHkL3M/XeA2dohqkMR/avenoWZWKx6YRVaK3oR5erPdyprZs+CHuuK1t186QY6OWqGDyjCOh/ylOeIrfccou8733vU9YQNgCQ0G+79tpr1biTP/DLv/zLyiYSviTPCQeDpGTCm9XtV3/1VzXXAFDyohe9SL+CVfj3f/93dS4Ig1bLsot3vQAOr15ln4xe8Md0S+naAZaT1yT9j1zaAemFtzR88/k0bkJXkm/7g/qqfukHl/33JLCrkK7oEZcDCJY7Z7ql/7a0oTdv3Q6u/t7raPGdjqHq3d6LrW7O9Xv+KMhlOExlNE6kFpRjk4eBZIHpFv75b+ioDz8ZZLkEle58rSyU6TSWuZSM6UgMIHDCCnLgQVYCEBgUSg5B7xh04or/+Z//KU94whM01keeABQiOQMYdDZ+BzzALmzfvl1zGO6++26lFilJQinwPcwB3gIggJfI/ezZs0cBCN4AXgGg4sCBA3pe9sfjIKmpe1L4l0FzpUAflfdp+5Rb7ytbqODZv3viLu77dhvI1b3+Fc37rp288OoErRi36sS1ycmD89TudyZr6O61MMLVkfC/LyaMbjALvba459CtELv3s3Gsjq2HIf5eeVyvcPhu4XvwA1J9b8ybXmGsCnHve8nA214OFqwfXX3b/cCX3XN141qwBUNRJhvitviu2grO7JG69yeJiAVfIlKKRPbNhB6yrHhSnK4QgwGE8r2tBCAgu8gkuuAjH/mI/OiP/qiGB2AKX/va16q3D4vwm7/5m/p8yD36AaYQeYdl5Do4Bs94xjM0v4FkZpIPKXf2+QTsT/gS5oFwJDlOvHsSEwl1cO0f+IEf6Cp1pJmSrwc/GYVdGkz/3nvnfg9d2/MGuw3uwrlTlV1/aL/PnGSseH6czI799EtVdrzsmryZPqFXFTFss5zeCK9Et1TH00trP+vdPd52j+UIVZ2A/rrcdIv+p/JYTRDu9vS7wLxbbdWfn3kUIuX+USuAoXuMcm3g1X2dbvtj2mNlusUDElyI0TiVsRgXw6l2DVH26BbeBWVS6BeSodNMArrzOXBQrNJeeWUnsroEQ80mYK9iWOwFrRQgoATIC/Ddyl74whfKn/7pnypzQOiA+CPAgRwEjDt0IKCBJMYPf/jDmnBEMtGHPvQhZQYIWUBDohx+4zd+oysHgX18otMv/MIvaDITngNxxkc+8pF6TQDHYptO5ALZ9u7VDyn2DLIeTwcu+3xJgKCgq1e0T0Y8+x/Ta4r8Xr6aRBPdKsjWT04+8r0nABNktmYsWOIAwmKMTzc6rgAgfUxWCKOpz2IAoTT4hdEuAImNYyYmPNVTmPAaGPDPYsrcruNZkN73wP2wPHLOimWcuyKYHijZO+wWRu3Apwjfv+PFAU8/z6QbaAMMEtlU6xQ4gPvlEuEK+h9x5T1pY0/+ZrYAACAASURBVB0BhIM6xbLcKMmVAAT2//3f//0i6RBGElCP9085IvlGMIYAfsKIsAXkEbzpTW/SfASYB5wEcpP4Hkfkt37rtwqAUM1BABhQBQXIePzjH6+653//939Vj1Ae/fGPf7wr/JjmsDiOGeoDBqtgbzHDXJXMAoC7Rm5LaZeFDFcFIFQcGNX3JJhVnDdvGKrnX2sHpNdxKgFCt/7010V2va5jX9MngUToBBXpqlxZCfty91yMUZWJqCDqvvqouHF+8TJccTb0XCb1aY5BpVOprbcQ6P4lE6B2wr4o9Lx3ZAqHG/2Cnqm8c3VDHUvQCxDSzOYcOrbbYeo/WxbOk3I/GIPJuC0jUZmAqGv4ORywnKVReNSsSZCkBhQcjqMhb+QKG+rgnkaz7vGTG6DVAQROjHCC7EHyeAC+xBGGACEnkcgnE2IgCAeQOPQd3/EdKsRsKADABgaemCXeRW+SIt9zLXITUDYMNOcFeKBICHlEMS5xP8SJcmPi0ue+nAhVo1RVBH4CVql4XjDKcfFmTBWDUxHsXrppuZe33Pfd3oft7e93MZRaAAS3b5olEkqkY8h3GGKEREthPNNQocN62Qkz3IVz4ATMofGg2yj7wISCAAUUaA08uIpQ5obmPcLWCezvixgZIERYktq9Oyel9ne3B1aACu5DWPmN68b63j1IVNnvgdlJ1pEwj3QMivp7pyD6iXCvACswkVDqQSZb6jAGTmPlImlHJIgNxPfbinnm3Nr1BhDu/rIxdaZ6Q6Fx2XIhBvYHuJNwyPYP//APygT4sYcRIG9B2yNnmToZhAMIVzL+n/70p+URj3iE6ga+hzGgygmjTzVVFSBwDcIYsAVVkExIA1ayO7yQiwIEB/a1h8ui9G/VL62azoUerIJfDIv3nHtedDfQsAQxD1RVgjneLFJhlDzY9Z95Wa+eejlju5w+qX7fT7f4927eZj82AN1qAB9ZS5GDzAwhY4GukczGBdDAHmaQdSYU+sucN6fP8kzPicwD9Nm8p17cY8UQe2fCdIzpld6GfFWZ98banwu97kMN1d4bvTqiqkeNLUGVGVPJP302d/3quHbpWNW5fgz626rCAQlgY7pDIACDsbgMU2LW0lREm5b2P13hTBHODFLP8IjksYG4oFMuTNVp0WJApFETCerNWs6LqQ4QD+YZBGKBvGifJPjwhz9chZWEIb+RT0CvA5iE66+/vkuJk4+AkiCEQCjhk5/8pJY6+g3jToIhWcaEHaAfAQ8kKgIEABkoCCof2AAgZC0TlwQs/Nd//ZfmMuA51OuW9W3KtuB8ikEzpWAvsqoUyoljomYoeCEdBOosjVS3UfKer3+x3ljYc66lCPeL73uPGvEwVNsLgnRCOq9ax4j1LHK8WTOwadaRII8kiBQmmOeuPbtB2Z46NP2ggqDGG2tPHb+5xPo3xwSh9AdTuX5u+9qc8/fJiVMUAsJF3Mx586ocnF6uom9TxtCY3Ra3YEcKBcG7RCDoR27CoN6DjlF5rBdg9XzCyAxIJaxh02mhUifc4eOtnGNrvaMhBS+neWLCG9UX0n5eBnQYU5EwFsmaNoeD+c66YhDu+vL+4t0ziMgkwP+KK67QEADMIEnLGG88ebqusgHaif+zUa7sw4aAAsafXiawiOgPyhGpdMD4syHTlEg/5jGP0ZJmcoxIRCbviQ3dxD7oC4AD8xK2gdwD9keX+EoJdR6ikroBDDLfy/nnJLVPMLpki0rmCs++ABiOAVOdwbx288qMVclSFLqhBwyX86AXIJiR9N7twvtwhmkxq1Bo2ZX/sihAcEwez4R+qAJ10wemXwweZCZvQVzIMjYDcECzHjPOBhD4ye336lsFFeayKIuizBuAw6VLeaVefV3qDGCsNbDnjKoDW6Vht8+TzFHy7iroGXQPhxYAsxJ2UCejqtcckNPnxVkVc0D8s3tH0js96BPOy/Mog8AccCHQEoSU+qVgK0zt6HjXnOMRVx0Pt7ROtETBU5o4xyQOJB+qSzDX1twDdA4kDyEH1TluDQr0UdoWaaIu642a4sLipbsB9QBh5VOr3BNPAC8s6SRdTZH8HhgAOikCApZbEKp6fTXqfZY7VHBAB0XQlouv+309Iuc8vShOX1JPi2elpN0E70WhavSY2Dqg5o0aanbRo8psLQXbAEJJWbqX4YDISsa3H7ywOy+TXjyC1s9UmBy9p9YHUqDMT+B+lU0xMdW4lAKELJIIRKl233n4yJpTchk1+4AIBxBMIRolz3eS4iWEEqpH5hRojzeV6mpqjLEJizbCsgsWyhABSgBjebWjpgdv3C4KSXmICgth7EUVwXvBS6UjeWqGn8/sHkxQfcgiBTA5pa9ZvQi0UxBemXWFOxwC8HRqPRLZUmtLLSxZA3WcsqXBAY+etEVUwJ0A64yZbcuepL5uQgx3fGmfGT88wDCT9pw1MzuZrdFsSJalknRMafZusIDMKfTHajZlwxjwLqVhDdfQN94p8MyUOIDgZYHvu+LJPTksJftkBrGbTTTwa3PFGTIXIqvS16aHTPZKAGpz1wxGGcL0jkrVIJu9MCBR5ticin5ZqF28bil0mzs9z28shwF7855NT3gwhJ4BgMPcq7yFoYJtBQgwgLHzuJ0jUOhpp9v9mChA8M5cERJwxrWi97pYAu6iYEMjc3pdGMCYRHNeOAaAYFymakDJApwT7tfGtWBUPdhzHr/NAe/Y2MB08paEmWvqh6NTYWd9foYBHnO4zOKbXTBLYvdpOq1kPrx+Z/eJeiITEasx2uRmCukpQ6c7FhGUgl2oi+T1WPJapJnQ4VxbkpYdq+RJz6Z6KxEJao3YR5/tdkMMCas8dRziMUPDpPZAoqBWHVr2xskLQojSd8gXRdBF2fAC1Jg448AKjWm79OgqFJMOIZPPGaLC6CnSsbvghXvPoNvgOyZBkZ69SHsG72G72Ltr6+y9bgMITGh7Wd4b4EXbZxXv3Cd49ICMxQS7W2/1bye9mELsFeMqQNBjXG6BFxBF785Qq84EITu0jvfE8Rhan1OhccQEZVpTQ5ml5BXEEkRGR+nkrtD57O9XPcMz4J1CDrCPXdepQACCtwEIAZpDsUQmUUHnu3CCA6oGEAxIVD0EA2QY+RLlY7CqwDEVQEzJDnhWg2eOCDPgwfB+00zi0MbIj1lxfh1PS+Qsn6UK8UoljlFohrlsa3bKZU8yE940E4kpMa4ZrVdsTglxCdbaYr9aoyLAqgCydZWkeMeX7tEBUPAUZJISu3Te0KJhLZf06cGilyWfyGaenkhC/EXZIMYbgGmAM8gUnQrgDe3Odxh7DwK6wCB3w7tlRUdlB5xeCG3+enBocgw8tfmpbJcySsh6JTnEGcVeB8OPgbKJbu45lS2JetHIlZM9aHIFyhirsjLGM1hVJtOMUlV+bL6Y7utmBIs8na6M+GrIo2RCF9Mn3Z8vBhLKnAOV2wzRTSUEXDtgn+nYYSNMN+rcUIBg92y0uwsXZJGEtUBlj/GOoljfs74fgKd/587e+Goi9BYgHwfGAxPTRzhrltfD8PrrqN5QGeZ7k2MFheqUmKffYY64v1XfOfbSz1FAjQ/B2nswUKcsgOo4m7ucV59BAZG99yTHQ7fwLYDJ5mtp/BVIBhZuKVSjPrPT0Y79MLkS2VBLZDwuQwCeleRL1S8lrWL3xLjDEDgmAGZS2cmhRsGmB7MtQcXq2C+yOgHpDUEdgKDUs00GKCDzMA1FGU0ETQofYQPMJNFXkBuNpIPgKCaETF+WDqgZ6SrSVuoYIwzKCmwQGVBeKgOsL8tlW3hkpQpCHazS6DmLqIPj//NZ6F30F4PlXiz3aRSUvWCfoGI3WoIBJrjet6PSvEHyCM8nmfiYYZWFMC8TRF0NR5SxeS+YJV3oPzFU6Sd7KcBlUKkqxp4K9EpSxxSUrAoQRRUZSyOJonwDAqYQE2nbRHeCbUEoKCfCBbHkYaIGLg5rFkPUCW8I2cZYo1LmPRgPIGloBl2Nqo65Iwg1IQfAxeeZRBFLdvtywlAVt96zo9y8UNo7sIQ4E1BeSKZIXUGLYzlM4MuYXhHbc+/dG6806IgkocS1SJUB89lToN5bEbwInd8gdReSgDZ11LECUrVZZrj4ux4ksqOBwLs3VgEHJPsEjVCTgax+0WpLNTEI7xlM5tgDbFM2XMYhOPe+KTtsNdvpqmK4/VpCBj7xzIeKfGjSeWI+t8exO/pOPQfiYtI6z1xiK+PI+2c+KhhwNlRxt+oj7zGa5+rnhveseE+e0fLsADMvkZZIAp1thsuYP59vk9pcct6j3g+Mm1P6RTWNs7cGYozKx2jwOJwXAKv5Ks7D5P64H/YNNd/F5o3Nk9IpUUCUG4BRveiYSDPAJavlGUjVUdWwRWUpa6PdXQzfMX42VzxA6C0XrOqhwjS56dUNErwTqABH3w3lch11CpD7KKhZDpi0JGDVUbUNeOC5sn+qC2zo7Blh59JQQ5hqG7JQ9ZM6Fni0vB8Spl0IUvVaFkqOzshrkoRtPd4Aqs9J4BgAtoU9OBfXTzvmhDLGMe/KO5RuDuEEq9HGSAvABEBDdr85DcZE8gxRASy5Z5/fYGDPe7KGJGElVefWQnV4yRvAnqljyjOpio10TLg24CSO6S7s2dYyebO0X5lsrGd9wQEjEONUoFuYA15RoONb6OJcsrZzUsjbr0WSN8rF39BBMp8oixA3A5Fhe8dBK7V6SHSbJik26jkISBVryoI/NQEVeh89zCKRyHmLgUgksRkJHixOJEy5QfMMeaFm9M0rKwW4FAReGjeSIsQpRicUlLciMPgnJ9CKrp2xsbh1oABB41EOjenE8nRehV4uDDjfO6/EhNV5qih//xyOZLJ7NcE2AfaxQwNMPJflIFh8yxCz7aPo01FX3iAxwSzG6TJWXSBHxbernr8sP1RV4rxm72UZxCw9Vq8AXHqMoURBWdm98zv3kHXovc0Et8+g2PVMKC5FvLmiXN5tkRxUsDcWH1PjGzljkEW6Op+eyyXlGIHiAFgIaOQlWImefeMAAA2BUBgCQGC8AkkTe481AAJeHgKqFD/7OQPsaD/+ZH8AAu8tiC0rOtUaXhNiBTWEODg+svuwd1QqKOZRLeI9cmyijIIBIBNu7wXZ+GRSryPANBExRkHRtvYzN0AS57nsGmZOuI1XmeARW2wvrgeSDcHhlSCPmEOAAA+bIkqPpRJD4gHM2bc81boDCB6wezny797mtMk+Bs0DAO99WzqJJZzxDpnjHihEePCa2OXelI9nK1rGUzUTizYBHKpBdkCaa9k1nKfqvEDmU5omDgBisDoGLNVoQ12bQ8RcMt1jwMdklXnpALWTc1McZQKaAQQDNXjBHrAYeC6BsektRyero+TYWJfNbhXJBrI6eVs9c5+4q8/r8n+UEtZ553JzdLwDlcNuZ6VM/DNp85VBdg/KErrwo68s0Dvoyrvwc9WHMEuAo3KYm36BIcDAKRhQYeT5YsljywPwoQg1ezyoMtM8baRjHiSBhDHMo+UroL8Ib3J+jY270KZS/6qncHTs+UzfRg5U4GyWoI9Ic7tj9ioKLJTdcYyF6pcMXeHDDaqhzIlKAgnqBkaU4ea+0SdcR0MojJgBUgtbGGtqTJVIR6ACQ6nFobTTjrKptbBesLGMHcwmIET1ZhoomFCwaohYn6sGQ6bjG8h4PZGNtTJkprgL04u6QK3gfJBJWNmCFnGBXPKhULLZXPLZVBiTjP1I4C8UTC7hbFvd2HAjJzNyQe9kuiNBK/MAoZFnqlwdgxBA+1gSl6dZ1aNyNBcGMgFdgeaw57w8FLzGfkxRIPRMK44rBlzPp5LmPM62CJMk5Ho2oAisDiAaPMolTGNJtU+9KHiJXCG5ghcmVoqXZ0qe6xNX4gVaXNv+jsWQrs+cTXiRAITMTwQzcAZwzNgoRaYUsykSBT6AHlCnDgtG1hLqFEVnZKzHNpEck5K6MTSlYAyLxZ96aXPfSMSEysbQGd2ifKhMrOyaDU4JWPWmsQZq8AAJDCjvCFSupTxuwquesesoyo8ACi5z2iverqzhXN8NAqugCuFSw2y5C/wsmBtnmH1uhvcQ43oqnbbtxytkcrcT77kZlMgALFwkRIkFBmhiJ7BhogABwAI4QKhizZswxa0sVtxWgGBxRFMinEfHHxCUBZKGKGGXqMhD5YDOumRhW/LEeSZ4QlksecQa6qD90JUyuUQpTayEhUhlZ7MjjarMoSNcxahSf00X86sKcCeRfJR7qDBDJ9qKKDQ+uI4BgtLxygggBxgF2EL/Hg0gmGEzHcFYqwOgoJVki0hCwJDr1aGsJUBO2SHAnJMVxxhaCNk5FwranNfpYvumGHwIq8I2If1BW50XLw+AklpQV3YBNgwjoUyQcziMmbL5ZGyayaGxZuhHB5o10c4YBKOVq/Q692hAlznpWVRlH9CFWU3lB71hyX4uoz+PJKPzHYBDP0NHepbTJ+gZgPIMRxUg9JZsev7O58wYA0JinmMuNEnO5TL4REG9XjVMYbrax+4tudv0Xsb7hG3MMDoYbsenqb5xpZkY8o5LglbqzTlULpGxCFf5fAJlHxBTc16KsmnO47xjz5ZYqS26B+7cckGUZc5yqTdzSdJAkk6m50NPwCCoA6AXxaO3OYjuZpxJjlZbovlXxp1EcS5JYrYKJ8samLl3BuOgpzJ2XQEsn7EwkjA3jB1EX5k+sxwwY1Wc+wT4iN2YZMZioJKGhyPVlfWwIzsa5uDom+AcLmzJGBMWyIZ6Mp+5ScDNUFxmvQG+jrUX7stsmm9LPsE5isiDXcuBhEaSSVCr13KNyYBgdRZFkkeWjKZICgOAIIMQXVKXDogiNCazNRyxelCLEVuSmkORBRI0DwCFoUZa7W+mIEAT3JjEjlLy3p8123AIFgpJaUqH+hjQJJdahBKwzHSlmjJYEPMMdBK7mLVH5iB/RYHEpTD+Lj9BBcYbWb7jRTpPx0yYq7vX5wGhGoVkY9cyD94DBIeSC/pTJ6F5SWUctmQfvKcFAOE5NJnH0eZekPQ+q02QnIEx7wpKCQGw8AaCrmOsLBqehj2rPodP/GOC1nMNJZgitsmr3p1e1GXWR4FOTEGxa5jAeUQc75NrNDgZqOH3OWJ6XV5rKNJQVO9oXVB9HEgbRsDV7eqjKXNic8jVQlqOic5DlxyVRRI0jB2JYQ00VwIvAZrahJaxU5FVEMRsNFDjUk9NMWhc2wd5nGLEcwWkOKNkIMoqJVAcieYQuHhyJLIxzmQCdO+Gy8cF1dbFCDDsQW9wLxchDNjlsZlASqtsVuaFdL2FGBg5wLzPW1Ew6+RElSoADjkJU5ewF6mzAMgn3mlg1N5boSOUdUKBALjNgJpHGkhAgRV6xzMP6umbE2HeHG1ifLjKPHQ1MlkmOD1q1DC+gRmxSGoOJHqdg/42fWfeolHYbMoqwZqxImWeOs8WwBlLHIdqbDWm7YxEGQ4FNcDG4tk53aUJePZY6BgMh4UGHfCnxW3Ykjivmy7UaWVARPOh1GA6Z0V1QFmua96tywPQlUEdw+mv7hLf1GEjc9+FGZED6wXg8htUH1oMvG/in4YaPPhO9TkAbBoK8snjyIICJGNucSR8fNyHgFSHRNgP5wj5yBsq2esrDLFnNz1r4iqufD6U6jGNYtj9w2RweUr92KcDKNCkaed0uQqFQEPYzggWIVZLnAT423wyBwRgoTlusMp6EPdu46D5Esq4xxZmUZth5Z3VEJay3Q7EarWDelrunnwzKeye03GNeiRJR+S8oVQ7IlpTo7xgJpmbizkfypyS71RxSFS3oLs61U/dDqgn5+D0fstxjam2BLVmnOuLjFKRDp6To18YvMjoH0U9WoplHp5RX27AoHuTyLxwBo0XpgknicaMcue9+VxBT5upt6zAwHkA7kXyOdSv0kAqKDbh1Hh1zCh7+t28dfNSfLmJwofAAAIetPcejUKM1JjzYvW+1A66e3UI0wy0p55TR0MzxhZCgVIkPJIl0EmmaKAt1QNRYTWmQGk0ZR583N68EzwajZe5LH6fQ6AxfZCsZRQaMnW5IIqWNc5UQr0ifunKAPHS1MNwtdiqaHwNrYZWzOjra3MNeyJiWE4fK3hQUOCu7VgGa7zoOjBWGmpZXNXijPouqcPVcJGBBconNdZG7TMATuUu133wkLQvABPaAxYQd2xGumhMxpioJ+eMqEfTCgRM0PBSyCvwiWaOmzS7XWRBG4K3+ebHwJgcTTzlHqNcBVPFC0PmFKY+i4bMzIgxJwE45zcyfa4c0NzBA7HQggowMb9GD3ugEtedMWy+BICG1O5cpFVWBvDdegII3/riHqseQS4TqwhRr0mVulGlRgBB4XqK19hF8wBtLnSFuhwl75nFIrzmwLgxk7wOO6cxhjXzMrWixmK8OueRq9zYT0uPcsABhkLP45g6BwCpUtHQhAttKKNAjkpUM13i4uToFi1vgzFAZglzRCS5tVVPKILEWdB8B1c+58C1gganO5V1jCwPRmVZQbHlcBmDm0ocNHTup6mLZxMOc/eiYEjZhwpgdpUAPvHSJ00a9PXVPq78MPCgzYESLW02HahhM5VDV1Lp8nc8s1qEUBS8uMRdZXYDddLM83By6vSLOpsuwVmBZJHnZEbJdI3lUOirAAyqs2LMtc/FUvYFPaLG2VV68E45N8dr6MVVHeSh1IZy6bSdvvNskNNhxpA4cOCub4qiEjJ2YUkNlbrKr6iWGwsBY4ZNVGVt4Ei5Xt5JRFK/Y2dhPznWOR21WihJarpDE/k1+88BIsfAq4OtrJYIjP8GxoO5x3GV0ILiC/R2L3vAc5Q5iMVzWkPlUISKIOhNvzHOdRACN43tKEuz/Rg1yJWiikHjhqo4Q6VwVeAw7m5y6wC6jk0aq3E0tT4l+zDp1bswJOvzCgghaAJFT3KIou7YEK0nN3yYwOciEFM2Gtw8Yh1sTXSxRA+ltrke2aIOkFRzEpTZICwRuwxY8gH0Hm2SZwCiQtFhzI0BgIZWwKOxeqMFeR5QonQMMWqSn1JIruQvsBwAn9hD3ErzAty9eeOtyT4aaXH5DQ78+PbI6vm4/gveJCoViSLAk3fZuobwq+ewF++Rq7EjzmVRwqMUYsfo6emVUvWzofjp12UoUgEMVPAndkxzGcoyHc1VcJnECoBiYyVQoj6J0xS2BwiGsJ1eNhahyEQ2r0Ov5Qy197z0Q/cYpmuYqwY08BpSlxjnrENRC43QKbDTMASsU2Y5hjo3ywoNPxaqpLA7Lvyiykuv65S95LKlJjKBp0JtY5t5ZLFBf3sqwJWEw2KMm93pCEYgNks6sN0qKJg8CGXfCeZDKdMr+e10JSl+69q7jHrEQ1egDn+bSoY+UAoRBeiyxjWXxjx2QjU6ljGtXWPJ9G9L2DLm0N6lOiP86TxMNSpMEmjYDpQMbBFr2ztgouxA2ZHOPGxk2+Sc61pfNAdk1aDYYCKfmvznGMIiKcwrcJcHobS41wvkKqAvYgMVSZYaQGAMAI3ML81ot1wmzVcCwKiRNMrcMtotOdbrIRKBLfOf8Fdd56Qem0FPW/KnsSV2jBok7k+TrY010eRIB9Tsni2cq2Pi8ikM9KBTXSmny+zwTovpBbtPH/+3a7nqAMd4+KRF72CpbnHso5/nOk9cdZiGHDQq5QCD5TgbU+cdFvWkPdngnBE32TWXwldRKZ3PVHMMr0MmPszFuJDPkyQu4c9FtV2OYiE+yHjomgqZjXEAxztYLsdDe8pkgXrsHWWjXXt+l2eiTpILtdUbubGiClacegY7KohxfrB9rX8b+LKwr+lP9IvJw4VDli6QxZEETr9oXhPvm4hAvTvhUA/iPuole2AzHQCA8+4Ac6tVqpBGs+xloaM6v4B5aMwnEkQ1jaRbcolDyBZP0ZlhRo/s03qlnaZ7Yd5Eqb1w3rOi6bjMKtfjXQZzEUpIrS65E5CoaLSNUuR4Hggxk9tNLN/MwZr8WCzZm1j9m32JKbpSFXIeOJ9mHCexxmo0h4IdeQ5Ph7lMVlVioGFi18qCmOdvjL5HjVzW1eUCBLRI1JKtlMImfsj9uWxcGzooqDIHwLwjp6BcrNUjV6VQ1fugusBR0M4g6j2o0nRKwZfHhI56dLE7A8llPLAg0JXqdwbdMpcUGKhc+3AywuJpN7e/xdYsa18F1Hn4loDkPeEKmPBzwiuEIuPFCYPr067YBoVac8myXQDBMRoe1cMwuLCI73tQXNsbEgw6YMT6MxZ0p2UMW/gLZRqj+GAJNIOYz+x9+Bwhr7A8o2JGz1BTkTTl5P7CYWLPgXTiSI7NpTKmBJzFeTUvp0/ykMpI0pF8GKPhCT0o+UpiIuuVQGNw1VpD9h1prSOAcLdDSi4Ug7p0IQAbd4dkfN6OA1U+0ViBQQcAWXqBlhBosVwFEm5ueFBYAFgAO2yRVtlYuMzCj67szDX4sgREwhAWelAZ9PX1zuNU3c2rZX5bVKqSGe+TWw3Mmt2zd6WJtImFszSE0oYNq5vnqMl/oYVI6XCnOQ6JASlYMReOVT0EO0UYV50vSwRWfaF6ByfDtVYmdk0puFZ5WA4YoAZ9lWnFkDlllt/kWhkrci6Ns+Z0qZfrGFZFTI4BcFVDHmxbFZsBDmv440IdWsppoN2HP0xHmeddhHi86akwCZqyVUY8bA9vRrx4OZZQ8Te6w/uMDjx4T1unmAcRPgzKHNC+CnZqY10Jw7vwlJ9PJsb2Hrm+a1zmn0PDHV53aAK2G0OXi6LMpr5Dy8HQnC294dQSwzu5NIaCIoxqz2kPqHqLezKyy0Cwm3/6t9Pz3ucjp2l300qeT7S4Vi7DrvMhp9XKBZKZlTkpN018Vr3jysD1K9Ylcs/Nj9Z8UUklAITicG4C8GCDpKCvnUuj1ZGAOa7KFJQDgumQLGW16nrzHEAyYcPighpf4sEdW2G0D6jOMjSVTaiZMBMPNtrE4tX6vaO7jSqz0jV90zB4mgAAIABJREFUNw4V6ssGVaF8nBFTg83f3p1SisexGi5RTQ0i4Q6ECiYAg54YFVUg3EpIoVBKhCGULqcBDPQpKM1YEf+CSXTMapTZWFkOoQ594dx/EonULGkTQY1A/jVjAoyJcOWLLsnFwIeLJ3qU7ZMLoTFdvbdNHmfY1ai7+mGik9QPuxbCjJ16MnhYrvTPUhHc63fnUcDj0LIyAaYD7XmdjfL7aHIRdbOVdQO8kfTo2ATK0WQVYfaxRlPgJnh6LZfZbwrJCYv3IiredyHIDoRoZASQokg80PwDNRzFA5Vo3Me1DTHb3NVjnPEu5oFP1/AKwys8d1q9lmP9PXPhL4dcXjRsAjyXZEJ+IQp1vJOqqdeaYpITSXiqbmkq4byxYgixDFHmwD6NUoi5cNvCDHmjKfsOza8fgPDluwrPSG2Jy2HReerTAMDNcaAKU8ePF+EaVGlOgI63Yx2d3FpIDPnGOXCd3bxuUSUMs+DCXg6Aq05xoQOTXeSJeeDzlbiSy6FS9pH7KDvyeQWtxkJ7JPgYsCfHXJIwusmQd6Vkzya7OQ+mDzyYVmeHXB1YThjKilEiNGqlkaYHcWo8i2DhGiuV1bkKo4IOTsrET3PUXNKkc1Y0mVfv0aRMZcU1alImQ2PlVq2hLIV2D3QUvpPBMiPfVRNoozNLzLRqpbI5ke8lYLlgpX7yuUbmKBbkpr1P7snlBXhxqHrYaj98sYcylM5BqnRQLRgHp3N80rQmtmvlntMLHms73VPoJ3USKs6Ou8/e0GVhsPV1m63T+3H3RZK8MjeFX2Rhj1SBq8ujsrZCLpzgpgDP53WOA0Sqcz1AKAkHOa+hOYZa/XRkKpGE8ZdcNrjS8FqzuxzajymNj1AWuEnqhDR4CECA69fAjsRetF1BIFWAYCGkefMa26mEs4TwAqk3AeYNV4XiEiUKxKbQ2hS8tmrUxGvfvcvFd1WJW/qXTg5F5S4JBSPDxKjEtDUrGPotpFSOExN7csc5mkdBrnqr7lil5YiTWazKFuBx16eFA/rUUTaWWW3NM4ySNMNCDBOjrdfjGCYQjIUCIZfI4pIzAUhStwQiVSB4h0pPdzTcAPAwgXCKR5tw4HmYQioSqnTQzXsPtOGQrXfgJ7d5uORZGNjxnpHVBLuMehdSUK+H2CTGUTNsrZbfZ9xa6Zd5MT4Z0SaO1cf6471CVITs7JfFxdwMdZNYDaRD44WRJdboAIGW91o+ZEHPqXKqsAc+HOJvo+qFm+Uu2QydCz7fwIcrvJ7xQNnNRx17Nx5eIXkWoLhnn/iEjDAHnafo0Urx7F5JckLvjTiUb+XtlWZW3F8iMt4Q2d6wDOKp2UTmXGLVaJJJHaZiMYTfSZQu1NA2/9z1orGGlSrxgmEQfCvqMJR9x9dRiOG6u/T5FQB4qt6wtSsDtUQRAHGR+OrnkNvPU8o63K4pkObZKAtUzh9jfZBbC0mUno6FHNUodgxUqIwBMnDENWnOauC90SqAnguNOZttc8jPZ8A0AL8IeTj31uU9aUWV905dUiNGnOx3DVPGrvJBRd46mQLoLe7uKjWcY6QKm6Y3ABZ2TEJjXNXT96WIZngU/CQuL0yNKKWBDtg7h0NFyeWLKfuq44oDYQmJKpeAEp9P5ulzV6rsSPtCv2i+kwsPWvjQlQ1Xxs9YF7MLGGjTaT1MpZNfb5gVY7l5kLZM73ubURhUH2r0+sgbWu+EVt1h56Sq6nMOhA63f6f+GAdASubR7e/ofgunlGyU11ueaSoYD2wSTZ7Qgy5/gVCigjQ+80mWYFrGxLU3dj2+HCtRYLlCb1ZdfB7vklEb3LwWy4FpGCeqqEQ2dFLVr2HD2iX3bpQsqj2oVlKN0oOlYQsrcPIOCcZOArTzsCUw5vMtyWaoOHRy5HRuPNaQQENgrtIAU6IoiYMqd+AFttoUzzy7cpET/3I0vq8G03mmjnVQeo4yriiVtJLYUij7MoJRXLmYDy4pLXGdpVR4iCFXkmBUcCpJjT6LtjAerrKiTJaxLP7iQdVQW+a7ZZpaTNSPhJ9IRWlgsa6Bo9wBJuRvaGldWCRzKZAguUWRLnHAUqkWHrY3aH0mq+/AxjtQxeyzeVGsDhWrcHog4Juk+LyNxDxuT0Y4NrKssnO6UMfOgQaLM1eMuM/FUjbJBMC8FtsU1LjKPa/sDZU44at6/k7oVeH6RCX37izpyIU03ASseiSqSKoT0yViMS66n6V46D62KpnRqb7RVjFHvSLxio237JiUkvJzY+oMuSrvTGRXU2REEX5djs90pOXA3UgnFaJwivAR4J4W09Qn05zEJxzpY2ArnNej/dB1KVYnnXkue+dR9KvbTncOgvWRt9BACfpcuMbnHPu55OcAU0HBZ+npmoE2j6ywB37+O0fEz9lC9piXzgEpvFUf54WvrNvCQG552vK8XBs9hAL0HqubA9Xunyn18hbt04RsSjLRVQW1XWE6tRoDlsAzmJ6w0xwAe05Pf2vo0k1cBecu0dCiCUZBFwbJEZ7WwMfYCTVCfiLofeMglIyMOiWEiBWslTrNwmQesJmuVrkzVeRiLa46CU8YBwQZwunzycI9+QW+4qrwrh0wUBq+J2HRGz8P6tVw+jw5Q0NlOLlHL3o33TORhYF3Sc2FU+PHzqkkHctKflWFaCx0oENiRahU96/MB3V0nXNmCsU5UZ6jciWH9WEDywoCnFOrgNmFZlU3Ooddz+EcMJx470xV9RvPdPGINTVi2z+baRImfu9kJ12094GqEgACNsD3YSF9xy9srDmVhtBgBnRuah8cM7paEY9Dr+/ehUMIZ4zU1bnNi1ifo2aqHpneqTtJsZ9T8gomHBhwYXQVTo3Fe4Pt6BhV/nWX1+AnCcLkPcYKOixekPdoffmLr4d18Rx3a84YlLa+yFtwXp+xLJV4eZWC9rGhgnJzSVO+oYsmopShG4COZrnr6dxgVzJyLU7qvBwrzXXdvt096HkdZa4OjyNGvQIAYFDjioBWjLYlExnlpROcocQI4iE7w90LBDTXoDDopcEuPHbv9Vc86eJ9OC9dww1cw+cdOOa0UNq+3ple3z5XwZZz6GIFCk+vqqCd8HW5iBV60Huinl0ohIp5hzJyyL+Mfztj6rwLzQlwyq46Nn78dE66UIqGPXzrDze//dz38UP+1gQinqFZl+PTHZmnl0IcSL2TaayQlsnZyMKVmaoAwScTKw5dZJEVbmc9Lff8zS/e5eLOZfKqa0bXxTapTLq8ktKbc9SsS9D1oUJlH7WKpBKCckbDA0xlEjyL5N+r+9vLpQGVsvLHsxrVMJE6OT45zsu/A7B+bvr5oDrUwQtjBy104OWmSNp1c9kD9AIQu+fyyWm+csgMk2cHnDF3edzVRDozGmVFUjG/lWUr2UZvjKoLQvm8DtUNXg7dO9Ep7pngSi5RYYR9g6JK9ZCvOCgcBs/sddE6ni7wfESpL73aVV3m31vFq9cQD+XR7tpdMXrH4KrD4hxOPGSzQwZKq8a58P4dpe8bDHr2R414ib9dHou96QLseqBXzWtwodYCpDnDX4QJqqymmcuSTfV6sBLi8PfQpd9y0ysXD7kF25JM9s8ZQOCWNrQdQGhGGt7s3QAI6iS61u3MoQIgLONjKBFGqNSxPMrugFOGqeYjn8c9lKIo97uP+RqH6AySo56LyVtBbVUlr4LWG3eif8PQkCYMdtpWEmLlNRbLUk/d2/DK5NP70Zdld1aPG9KGo/I37ZWLM5reiJh3bSeyetyS0vIxMC8YhZ5wBtlOVS784mOMBdL3ZVig/wrNqudxSYYYlXo0JK3OrPn0aoQdvehoWa0I8H0FfDzKeaxeyRVCpRUCGPwCzqpXZDkWpWH0ys0jVx9P93PEC4nPDC5euAMExpo44OGQcgEMFWU7r8/NCT9nFLAUHdCcenXGuYqu/VCUb7QodLHkSb/ymHqLDrk7RoP4/v/P3pvGypZe12H7nKq6dcc39+t5YDfJJpuTBkvWYASJkx9OABsBoj8xAgmwZSiAA8cGHEN2LDjIAAeG4ThSHCNwEg9BAgSxg8A24hiI7QiWbYmSOIgiRTb79Uj28OZ3x6pbVecEe31r7bPrvPu6n8hu9u1mFUj0ffdWnTrnG/Zee+2195e1EKg4UKpEU5yiBxkMjYVyiULtAj0RLZwAUnHviK7KmDhAcIGiC4X29mZ2iNMfy8L1POE7AgRuYDBwLh2hwhnjkjegA4TZ6Tms6crnXyvRHppQdRIQGHg/ZApRBWITnEcgI4mIMdmViOg0TwSnumaJDJfB/JJ9YwTZN/Re3YCa9MU06ulLxws1cKOd6bSn4bDAeqLSwNMFQ5wNEbdAyrqwT0yfYl2WSg6vZhBDIEYw9gEfBTYoRbZ4RqUmGbnKzOLxWYUEgIuunVIQszRwVMq954vS2bVr08z0ihwebpqqendqDBYUBOT8uhjXOKxIlUSeMuIZK6gISeB5CRh1JqiYIzHCSiVqb/WAhQMPNP2h7QCQSw5X+y/sFaLzks5QWXRmP/VzXwwoOypfhvlQxRLTiljfZFsFBvQ5/06wSTTlsCGSqIgt9weXxjR0U4n1lGaLvgr3ysDEf/bKBWcQnIGsjud2dVL6IPh3bx03tun6hrcDCOyXgJJyd/DrcuwM1rJ9oXiy+McCEPzP7pIDILgGwbtBimIRpYf5pYMtjR7IIpB2KTXu4lJoxBOdGBOWGQkvFwF1Ug5LUdc0TYRvTp3xICFIthUddbMsFPHfF70CtURyGGwApMXaBwjxzKSDCj1HqimhPgGfHFnf5VQ7/FGoJn+zl3WhsqEk+UtGkqeeYZFR9BnqexqRnu6giHbKhEtwJ9qrbJ4uCpMuIDaxBDGi8AkCHJMijZQ0BHmsw/hmbQBzbKX1bSdMw32RtswbTl3DYNvIVGDcGF3KaGL+PILITId0V8noqFxItlKllcFsaI2qrMjvXZEKv5Ot0TvBZKCmLirWr7AeKUgSW+Off3K9MIDOIBwfHNtNCMdKWLIzW9gm9Ql3pRiO5+X8BQEE771wzqlh35XyEv4QEhW19sa106NBeOHzhUEIQKz9TkAcqTgOYCjYBeDFwuXoXWtHziSL3JI9yQAY6yYHIMo5u6vEQUClQ6LSn/12xNEPgUZaDhn2TAAoA91MPXuqzacHDiylVyNM5pqT7SEIEu0NNiQzllpsEaH01mHKqYdTRwUQxdK5JJjIG816dMLsUtpWjATvMWmPxIyU4Io3k4IOOHHPfaPDbbH3YhYVBcue4pEgvShlfHiJfVQs4/+Wjkl7XcGZYikxCtKqONSToJoOfTCiHkbX53fhOz3Y8KiYcwY76pFxsNe5YqqzZ5n5BlBBtMSeEkl7o+flIY1RylgC3i6d4M/pRycXMSWBkNJYibUGQBh2DILbilvTxqZsBOWg+6KXvI9PKHFkisG1EH7PCIA3ahtseRqMAlvlYCOSZyTo6959wbH3W2hLNRbnbTR2Pd9a8VWxHhIyAloi4l5GxQXhS+UOCkhK1ETHa3GAcWhaG695J4fGZotZqZHGIT1eF1y6lakcJ9BbOklQi1hgRfYDPZ4EEOhsFH2LKZDD1PMw4Cu3Ryaj5PDV6riLlKVODZovcqel0Y9Yg6A/MqNByjrq/JEzL42eysEuzI1m9kTRRkalXHSFEUlUpzaEBiMzMEn0B9uhGlyABb6RDBD0Iin3j43H3GsseNFqYrdovJC7UhRMg4Qo06nAPC++UZkWCXaJaw0GRXQtDYSQvmwnhkjpKuUMIdxUtURnsEVZl7avBqcMpqHnrFCCRtFRvn5eYwKDTCHbYxtmmzxYaXFwbNc85cQ14f+97J3WvAeCBDtARwgLSwrjxqz0KxlVVl9eS1jTb7ATH/mUvnHt6NRUMVz5daYY6AFKtQ0jE9GxKTrEeBG8C9yJTchAtj++kboKpFaukyO6YH5SLtf339bGlh1O90sHTXTFK83WCut4XBp5LVzN3xR2kSr12B/USmQqGaAod9mklgJLV3NLp4NtGDnr4iARFuD48HL2SIcJJIDl+vH+B0gL6LhharhEs6ej7sUCavt3VT7l3JDxaGzTxRGRPNkd+f3EtEVgxduSoFc+BI/HPaY9qzkXoNd/l1g4BpdznAfDJ6ZNUMUU7l20u4uIYcdp37iOYs6V7sTxwwwG/TC5camYgQ8PsWQMcdh3BTAKtALMiLXVOlYwpnWsoFHVWLJfEmOrzwJTvUq5ae2jRTOOBGAQm7QKETglUbazic5QmqcQmtb2pwvbR8fX4oQ3q8bOjJJIUUYJja388KXGmkMyZmeHVm+VwS/TW3oidC//rSv8uwZJWp31zSk+NFpzgMAUQ6HQWCeqBeNtOf1sAu9FTiObjWfk7Gh4NfACDNgsOFeANBfy6LxFgJLSAc0FhyrXKfmisnlKD2wK+yQa0cd5j0u5cJZJ4TmUq9emDedVPFBhRsrmwdkNPGBEZ8oLNcFxpSg4l1x5VzcHCSgfctESy580CTJkamMsUQ7QIhq+FMsiWl9OKpCmL1TqMEJXgbHulNvAGXScUs+Wce/GGfNBPALkTpSZ3x/UnhgZonIYdyJvrAGJ6pSXI1UXTp/o2dF75dRziszEPATNrIiNEZdETFo/0QtDzE5fr8LVD0OG5jbFIGk8BRRkPLRxpSk4SZ8gKhPDl6JMMTkXxmYXR2aT0dBuH5aTCfLLp+viVmk3XrlgzmuWRl3iEwDBBaDrldXnRwkgeElS52F9rF4/RQDhxS+UKoZYWynCzPsjmB4CBKWNIlWW8ttobcsWsxK3ygYFxa+17LqdVHZLnFLofTE96EBaoih/RYoRtoCKfHYxhStSXxXYPRmUDpAAVBJ8xzNCEK7WySndh/cV0BFsIYIe7yrqiNL/5wdIjXiUOSNtX7dJSBzHQrOfTHRJ9IoOLz2UUxLLwcUXOg51inSgqv1BdhX/5C0rGpetRLUXdUQKrGCLZWtIbskOycHDZiVdEfYwQbvsGJg7/IPPrPRhEkXjuuxoiLeRrYL2oVcqCVvl7MDYbDFh86DUQyGzw3o+AZMsosaYuV2M/goEovw3AjlnT5wFoBar0KfUGSTw5L8rDeJKYAT7x7W7BKR9DXtvninF3ryHApAKg+CM4u1FZROCn2xfdgatbbnGybscegDtJY3wsWZ2OLd2zwGwWX1xBM1fWdVuZ+7WLRRoNQ3GQN9TCSCMBBAUpinS1KLDLqMD0qaTw0wLM5gk5d+54YSoNUlS1YKyRV6rlOeB3pdzpxMAekyiMdjrlA/Ud2KSU3SpBRuNf8xse31oZ9e9RerQbP2c7e/fsdt7+13vfSI0neg2XyzKccB9saFKWRTlNpVtbmza0fFBROhyKuEEZXeU2yKazPoBLETm3tEZ0GlqUUUpCivRTJdOwb+1MTRXaSNizNLfg/qS8ZaiWQxEr14XDABLBH2cvWlM0YskmrfYxA6QSZMhfYC+KyN8IXPfTAlcionIZXJ+bal+AYQ0LhwLARtQylhIIVfpNC1U5zrVBxoZPSyKoZ9PWrQujTppNWqRKpnj6obKT1Z1cEBgDvpu0VZ27ErmtrXxwLdhUaXj5dHghouKCqeYMJv8G9/oqGt5A586gPCbr3Vj6yYlnHJ5BO3XiJb6e5LlaP53RVoynFiyMsBavyEAZFmaDDkWdVdmW84aKWAfhyBFi3aWQnuDJc57AYZlFtQBtICO7hwOKe5lLPtVNZhHOk70OFE738bs3ObIzmx43nZozfiM3bh5wyZHxwx2yjHia8ORzY7LIkMFg8pClb5RxIcgwkUq3jvLKxTI2HA9lvRiZzdkK0M1T5teSpJLpI0KDYLeqCZIko8o7VXqggDJbZM/s+MclNFjbaf+BagSodP0CN/7/usMBAmROW/avziN0B2sO3qWPIqNzL5Ae15OWTYQNsJtypTpD3hosoSZ0RIgpa2RJqu0aC9MqeZUgCAHnWWx9NJaibHFulXFoN+LB+rc6BhjiSsFNP39bm8SiMKcLMy2R6WEWq/Gz/yYtzb11FTl8oPK6hTBtKPaWqczKWTs+KlyhS7ccDFCovf4BeX9vjkcyHIf+xBmBgFVDElFLBpGDioookQxg06Scp+KcjmTLs9b2qTmqFiivKB61OpU9JOzCWzVG08oQ8ONrE5+GACCA6hVE72NPVRV9okHt+3sxhAHb8ArnP9oyMb9ONj9/V17/srzNkELymJoIEBzuq8csAfjgXRKoonC+XNQZaQ0yvnvUs8r1AwhXu5DAFDEsjofAnY6DFQqh6YW08yFBRjxe0dZEsvNRGW5+Ieo1ucMUYJajJJO69O/sTmUR/O58RwaoguyL37WuF9LZznICOQIQSmNKGUskRLPmul2QV63AoUam6xs9jklyMD6I/gpxr5cLqo6+N1YIzRyOWcY5ZyijhXJZMo8Pcv5QWmtDAZUUZh+9mOaIUrwmnVv712sUz8ni83s9ZGgA7uX6D9ocoIOLH8/bQyCqP5IB6UqlIhMkxI+WIBkpGO+NL6J3lXfFdEqmYmUzSm2gxoogS4Chnh/Yn5kR9T8KxyOwLMqWdT7g2whvgUA/ITzBhLZsL42tI8/sGHb42ERq7q3u/hsCIfm85ndunXDvv7C85hdpFH9YdQDJtr7KjdRLq41rXENe1gev9DzqUohtD0EBhov2EL2ncgMr4IypYHU0wBlwUwvlhRDpzdT+3Rcm/tK9iIYlpTnz8JTBEBs/R+l0rmcUGSNBwRMT4J4YRoJ56SolwL3OgACxcN4Ht0XdQ0RULktE35IrFCwAfwcfLiYAFUXMQ2Rn1kbFbacTeUwa9IfyFa5zfX0g8TV0nExIPTP+5Bc8uZIHsTkFDEXYDv0HhbF0dUznvUsQyFD4j5r3XselH4Hd9uXwk5mANEBAgers+XPoJy+tTVPMWSAgOaEqXUlnIDTK73GOVhUzFlncIHogU4byDxdS3myJYOtshcu+pzPClYgdbKKz0o8x00C+0DUCBywc86efeZjNrxzpbPEZx4zWz+fTHP5cXF8aK++8oJ9+8YtNv4oOyyUtKrvZ4RTTqNzRN+VHXYin5Jr1MsnBKg8aQAwXoqAONH4HR04SBWOB/6c6PVyXQIJ5eEBYHjokGZdDZ54uiLSOB750wHjMgB5WpEdYyE6EIYYD0BlbtJB4CwFblzdexg1lU6mZwuQQrFg0JRyMExnwMiQgtM9ajPmDaoxERUqh4LPiuKkLkKMCzYOS90E1tD0h2V2UbqmEtrWbLsyu7iWMgQSwipN1gcLEtlxAUT1BLQQnJw1R/1Fh9KtE//SUTmsCZvOjcLQ3rh5fGo0CJ5iwJSekKfF+lZ/DqdFFWUzkECAxBRlNPqRUp3OXKLQaFgF21OcUzg7WDin7FnNI2OfDWbea3JibofQI6Z0aEW6LVHjqk8vz5Bq1xGEsCcA96RSWP75xx97zJ64uG314VVuzdrs4se71qTJ2hwf3rYXrnzdbu3PSldDOhZcFgPEY8mXjEcpsVSnvnDWOSrXWkyAVkBOrAK2u8R5SiEmGxppX6ZlpB0A7U2nhnJtsbuMhqMhELVGNE+s2ipNmGVign5nFUw0ngrNFtOmKR2ay1TDFiodIKIwU/65Y2ISCuK+SOV7ilTPIRsjOyLQlYMqfE6iSDWp0rrm+lpKqykQU2VGEs07QJLd9NTwpTWzM86kcP3CXuST4MVU9AMO/juuhaC2GGwwCmvl/AVtCz/vBev94Kiwmf7XNemflhmEtGRtzU+GjD4IiebPBlf5a9Tb9xZVprux0OFMmHdOWgM8NP1NaWVMikXiNuW7iRzhmOTMEm2UKUnci9SrbhRIQT5w8aJ98uOfMpsdmt1+sTyv3/yFDtVjtxxeM5vciuT8K7cO7dWbk25Uk3gkjEZyDDJkyC0qp698aVbrKg+lNLT0DFp4OY0pZibVDKdZjs6WkZIRwFJOL39/GpsomyLgkCGE0/RjX9mACY2GPKpmZYWcf5lXMsy5uY0iNdWuC1Pw2TRGoBHRbKlrXxobvgTVXQOkBJCkqM6ppfg55VMp/C891tXpj9EGKM08nkqBZGdOp4IIxTfsgptXmh6PaqSTSDofCXdxT7SOKL9K78HnVD6FGqJy4+22H1hWJrB8dt2qO/vsouZcbmuvH7quIm/Zd/75vWqU5AABAItalqDapQ1CPX/JzatxlY87Ag4acdgIlrIGsKQli1r1JcawPC+iT50X0q/coRHlsEb4FDQ1ry/6OFfh9KnkYH0YjRbA2QUMYBS5tj/y2BP22GNPmd1+xex4r9zo2pbZuae7SZpPzA6vm03vYBH6rX7tjT27se897ruIE45QqS0ZSjGkSskoDy9hHRcOnoEpNAQZcl4JKMUii3iAZ5eIbdAYqk9FapSH50cfHJZ0i91IoB5BTQIP6phYLsu0ZO7pkpifDuzzXA32PMhBUqQNmRZcSrektKcAlNYp0qIpSMU4yL5w/HCPKXWNz6r8MAVJWAu0d5Hy5POpUZxKsJVCw1ckLZfY2/XK7MERdMplajjHSz1R1ACMmUcHAM1x15BOcxraHR9/NGjxbm1dEFLMxxAHytW7B9Z4mZX/csPFDv5DOYMhsw5awAAI6qQYVLMU7cytoPObaJKMaEjzKq+NwYEArlt8GhxNgChAGAo5lwAWgoTlvxc2Rvb0pU2bL1p76eah3T4ofeyxGLnQMWnKo/szj9fthz73w0Vr4Btz/43yrJuXzLYfprWZmt28wgRat5f92l95fdd2j9kvP6VRljaAl7OtD+zJc5u2PR7Yt3cn9ur1CbsLLhvwbHAwA1kMo2dJG24pf47fF5ZCrAEoMzg40oAUMEae9ER6qdxTpHXocLpOXqQQScshaoP6mCrrDEUlQFQUqVJClWZmp5uMTmgKekrsyP2p7JJGEHhEoKPnAJRWEgsQY6xKQY6nSsokVs0OIypycp6ca8p99qMbDsL54LOiLndD00+3AWj5CWr04s1lIkpMAAAgAElEQVRoaM3hHFFXlHEpeiZIcCvjucV63lizNSh6BTXF8mOjR34WysCqyXHpg3BKAIJXMYRzlR6JLWVhd9VWHXPHyo3kRMTgSKhWFmXqWCdDzf9izSQmQqwEKGUHgfPOWMrI59r7YN5khFPTnQwyHzu3bv7/vencXr55ZPuT0tIWETdsGiOzZA8uXDxrn/7kD5SNdfsls+P98vPOY2YbZCkdNNx5dbkeGGuztV9/5Y5NGx3/24na4OiTzunM2sg+enkTqYtvXN23OxP1DO8AdaRxUmStyFLmWsFU1iAp2NNYKHpWn5OSXqDtULMxjSWda8xp9guMgmXLJCKNoITrOfYxbZbYTf+KvD/luZRyyUFLKR8VwkyleLniSsEjTXOwEjLVeY0KvytFqaoFzwPguQh2KICHPWDn4CVAw2srMFGayB99Z2z2sO8VTzV6qtbP3fImSbl7stIsXumkE5V97XgVzlGDklMkDDiWc9c+eADma8cNGOajtdb7GLCMEUcKLBYFIODoaqIg/4xr7fwjLLmWyQdAwFkMmcqW406THhOm6Jc5cSg8OWhyQoG+iCglCCutPXu5tQRbtNCVV/+BR87YzrgTbt06PLbnrx7asZ+PnZWzyRF9+tlP2fnzl8r0zPbNbr1Ufj7zOMSJQFfXv57AgbxKgeV+5vevvXKrOCduOBkqf043QE9d3LBHzrroo7z8M7/68q1ohKLfK6Wi5wm2I1H2SNUo2pbFZN8JdaRU+2BoLNRPgN0qMebqxsgUQu4YiOfIVQmKGCSc4d8j9cCmN04xFtaHQip+TiknMBiMCgNkK+UkI6IUiMBcj34Po+UEDztyakNFZBe8k268a4wEA+734ONJwVJeQ0LzeV1qbuJ9yjNTNOuO/bF1Z9/IgxIcuLNHQyNtfBw97uCtshp19+lvnjPcLic2Vrszq3jIim9ipaj9nv0oV+QUey8AhLWhVQfT09VJkWWOuaoHP7vKnMwLFOfKv+aKh8TgYLuyLFrpTBzdTg+gNJG/r4ABRnQwYCVV4Z0r5x5NqcZdabiqMtDjyh9Lw0L75u93Nmu41h3g9fuevrA0A9++fWSv3prYHIucaywBFe958Xt/+MdsoHDvzitm091yjbMfMRtv0878TgIHUheXC14/OLavX90vlyf4jMqLgdl4WNtHL27aeS+X5ev6wdR+542DYsgT6An7gj4pXcVVmNbESCQTs1Q2CoaAomKlHUNzReF51/2yA3VRVaL1T8Dn/wy/4HPrTajEvipaF0NCvZiOr46S8NR4LQc3YjPvSrTnEFidfwVwUufGfgq3v/8EXGQ/ALbU6VFgRv4S12e5rALm5Tg3dHK+nHZGZg+vV9asDayezqHt8tjAm6vlV+MOG92IK+ia9GpwVIGVXu/zxupdz5uV+VC1BfYk084KXJauvVUU2fURNyufBY2S1CBvu6Qp1tbrcpojHLeERL4gmBfJpR3REMMHgk0uQJPRPsbCFULUBKc8IWg+LUQBEQwsqWe13ZybPXlhw5447zTI8uu1W0dA+kKvihDXxyP7kR/6cU4PVSwOBnwEdx4127hQqD5H9f7hrQfNthxMcGU5Hbj7LfviK2/a/lE6oQ0HylX2wM7YPvbA5l1UzM2DmX3t2l5Qr6G1yAIuqWqZUtE9I0LSppIxIg0byDu1+QwGRTmopLRX/j4oXWoVsITz5pRj5+JGVYIMuMCWqkwc/ClHr85vuh7nOYCCWmvnnKj2jwuf/HRP1Q8LcDgz5ZuDRkRRzF3MiyJNgqvcKArPxrWLNaHlkoS3+BU3Uu6UJmOgcsdH/JwFVwv5s02bWKtL1J+PzblxASaLxurb3Ubzr2nOjKxiWSPSDbd5OqMf/DktAlTsHxxb7EU8yxQBREkOEA6PTxdA8FbLnE+slzj7hAcrsT490pMp/+zj6VH/bFqctyprYvxRiUDmgUxLOcypK1nNzbiiPNcNqOuFQutAx09VfDh47qmuVLssQP/cpx/etgvJEWOptGbPX9u3q3tl7oLpqM0unb9on3z2051RCpviAOFJs/EZszsvm033ysY7+4TZ2s7y+/dety+8esMOHCDmddkYWNNHUwCiDz7/xoG9dTTtUn09bVDOXYsNji9NtkUADd+rltgUInujqbJXqFfiuIHBVJOgZM/VoDanaoCrZJfgVLqzWrLdw6rn0i+aEkbobm9S2WQEDRJmqumbWMvkHgT8IVr3lI2nhNSLJTVoyx4F4EPBcMJxCGAS0x3VLQks+t+7hlzlzbVH7tG7gs37qNd/yrskro+snswKOPBKFa+ASKnrxjUEXhrtl/PDmqbLQURzwc9H4Dwdzq06Kn9H6TTHXUxCBhd65sbXugMEZ6P48vUCjRCAHXtN+GmOqPwYFV2dSk2EHPOmgK6ACB9/J4CItASZL3UJE6oSqtFkBTnRO0cAXbdcpemAmVHt4+c27MkTAII/06xp7MUbh3Ztz0uICiX10aeesEcf/Uie+47+G22ZnX/abPe1QgdecCFRCgnTp/Z3b9gXf/urzJW2dmZ7aJ+8vG3j3vnb+ogDhK9e3euaAEm7EMItonoaVaxHivHk3DLtGtQfAUbuMBidxHgNLKKsbWCeLyLkXp4wO2DdvzZCBlyKEuVt+xFLfKd6TeT8oqL6pP5damKSoo3oQkaDfpdIlWMQOX4KGFWPj8+TltUmUeoqIg3s4s4Y5efWc3nUdG7Y2qV1P0VtYHY0x4bxW/VDz3wcIi2wMbTKN7HsSmIJYAwvLB/UVN32Y8LLQ+OaOJmUDtZZCHGnvDGnEdvxKQQIv15aLcdhZxKjUnMkBwWbQE1MCEaTIjzWrFgb5Yh1yJuandFAY69wbATuOsfPcrpeTwBRukui5rROtOb9v598cNsubd99Op5/5WTe2G9/a8+OFjyKuTV77mPP2qVLDy3bmZsvmM2Pigjag5HrXzUbbpid+8iy9Y9PtfbCleft9atvltTkwuzyztg+cmHTRkptLX+DffP6gb15exrsi2xH6EL0fIyeY5wJDvoO2f+eWQuVGEqUGakLMokoB0xzE3n2HLl34VYpG87iRZas5/x87Gs6aQFQNaYS2MQ+FeDPOqtcCZPKTZUiErgQAFHJPrRRCjpSSifsBPIcZEnVq0WBvLRdMgApIOqzO3o+3w+POzPpx7zP/Uj38h+3ixgjirBQQXFh3DFEzhLcSZH+2NnJdHhL7+9iKXGyKcTwd9sXHCTngQ1KbcvL7ajWQqQq/ERoaEscIIj+lYhFky4nl+xrzl0FewWUyPpyDhwWrig+dcxSHi+ocoE3In/meR2tffbhM3bGyzbe5uV5wxeuH9ruwdx+4ImzdvbR51iIKmvbFjTvoODcU2aT22Zbl8uXqgk4ClfTq23tX3z+nyMH/czFLTu/VZrZ3OvlKYZ/9dKtJX0B1peqKtj/AM5DTYeS8QstBsdQC1epGbULxbBSNIWoX4hYhjrThInqAyhLNL9EO2UzdvXsWtyRs+/pPWSlVecOmphsUK5rDzaC6yDWRTJUuKdE++WoPoBK2vwy+DJ6ihiF6sM5JaEXnk+RQVoOmsfC3pR1pw5mtTcGcW0A0b0zB7g3j+hnBQX7Bo5Q2lwrMLPqgCyBO/dzihYp/nE26rDbjDOlGtzwnoRRPd87Hll1dLoYhNJq2VXNPgwlSurYqk6MhTXK00VhA2CMqUvywU/MmuYicuZpD4glyPtuqSKIe0yCuDB23A/h4DLbxhLfqNmvzH7yI8sphpP2uac33c4cThv7yWcftuGljy+/zb2raxF8Q3gVw42vm138ZKkP9k3vjU1yC0Ezu3b1Dfv6leftzOYAdmb7hAN48pd4iuHr11K/FT5X7B3lxZP4OdKaag8SzCAreiiujjQOI7jcC0IpzJMAgmIssYjan7hv7j35i/I36pvycfH99ARZZDARKerPgX5kHmMzlx+y7cE9RcDUlWrKbpX+EGSH0kBnQbqE7wI6WZQs1jI0cbmtdU7rtGYX10v/FAQfk0VxyEot+JiMBnDYaHLsZVN4Fbq5unXYaZzObhcKEjfuxzubVbf87GzqGeaFoQ+W8gTHhYOeHPCqVJ6BiyquoIXg58AgVN4AMAu8eLpYnhxNuNouKxeuSRRSCmfH74C4K1UqxCamKhnjmBhWXIc08cWNNfv45a1SW/wOr7d2p3Z2Y2TrG64ifiohFX7QgYGDBHQWmTFnKH5rVIRFDhw4Mm+88Jt2eXv0jt/trIenPDxnqVygKKv+pomxSgi40G+8XS5WpXKQ11XJD4cgMw6R/wu9BDuyiXIXRaZ/03kGu5DoNK3nKGPKyFxzpDJBnZkgI5DmMIRHAiUSrvYEh1jYdB6IShxF+/VEzXEPSGsSZUc9HQMie64xRQnBgAlQsbkLDCkZB3y/qNLG7IF1s3O+gZ0lYmoB7IFXB7nTd1HhtBwj3HptEl5j1LS3vtm8+sDX7hbCBP7dkf/c6S5EAV5e5P3VvZ7bHZSovLuWtoMWFykez09XisEZBBr5QiOnag3Vf8v5q1JElUYptRQdqLMuoS9mVH5aGhl8ccJl3Lox18mGRAktPxP0Q0/EKgf2xLl1pDKDtr2HrfFy2G/fntgTFzaKnsl1Tfnl3unoZmESkC/xuT/s3uG5tK0HotR6985Nm9540R7Y7iWgT/h+tzNfe3Pfbk9LNKlSU5XFwfYkEWbYa+67rHPqOznU8VM/FLY6UeRl0mmnlV52u6VTXrW3ZTOkqcplpAQeOWiMgCNF5JGCSGlDpaMw/2qeleyD5+mR/kjBrQTKIXRlqjTYUqUOkm3TsOcATeWwwHbs3qj7UMAngCAmRzYws6xP7xRNBubIdU3svQFg5sHAbA6H3Xj58yYdspcm+tceHZlNChhoz58h2Pa/eMVda9XN43I4mjdLmjcWAQhFi/3lhPfpNCf+0ZkH+HRvc5CWo0uxUOZYNv5yzT0oBx1Fis1MN5KQYQxGr0xEN6UJj54JvAQmkGWT4UhVlsbN/vTFTXv0XCcGvMe+tclsAU3CY+e8WYmLOEaF5lvb7qCQf4kLiY53C5rfuFTKHL3SQavG3+/gwir72ld+1R4/O7add2Aw/J52JzP78hssc8o5PYmP1EiDz5UZGOUfI4cn9E+BVy6FwnvRc5x9EFRehhVb2sjmcwUwTfhAGTkYBm4MicSy0e3n+vJ7sD4YcauJSmYBILpTXbf6JbDLmzYKwI4qZHolXVGJskTrsVxWhp6bOSIJGgx1JFNkoLUsYwRhmpqpqAtjWu/+3U9tliZIIDnIHviaxTG0676BF9h8AAgPCCCk5iOTozLIvuNHYr18Uy/MDhqrjhzWFw/VzppyeItvvnuxCDR2p+2454hIveqE7YEDcCbnAWOj81kSg3XSeoPD61WTlB4dBJFaK/5GqswVWARIxkXKFMCeLGuPu54TkWoqq8jv/dMP79i5jXucuZ2Mzt5kjrTmZx89U8KI0WapjPL/hsFrSuk07tXr2DbMDq4W4KAXKqoespu3bti1b38TWqt1RIVv/3rpxqF96/Yk2veqw2le75lVPMkBC1BjL6e8N2wSgTocre9DOjEFeUvBnPa7gj8CdVxXYFAAIVU4YX7YrC2neaDJ8VcGJj09gHQNsFPqP5DKX4Pm9XvhCZFKcUu7FZ0aVVqe0gyqilIqQ/1gsFfV9TH1z7gLkMkHch3qHs8MzB5kI0NVBIo9cDFhOx5Z7d023TadHVnlaQQYbdoZRxMzamHGzl5KfOJ6lNaqG8clHe7XOZ6hhbPvC7AI77yssV8kUPQ9m4muDiBEDTMPK1JemwMZ1E3CCKJnpJyNrln5PQrStWi4DjRh3cYiSpWDrcw++8gZdEG818upfWcOfNP661MP79iFzTwinkQ5Uy7swMAH9vwzZje+YXbhoyVH6KBh10uReKPr563dfth+5dd+Bb96+OwYOog11qufdC9ehvmrr5QqBoEsZ0FKH3N+QgwAkXTk2nXIi6IpRem+WJSO0N7pszEpaioVF52QSJtF84bNyHUFw5uYieL4ux4XnWMl4Mj3nmg8bVR9FtF5bvKhuZZRYEmcC6HQDZO6F4wFboLiHqF75ruj/jqBS0Q6OfJQFCOhbaJKRQ9ibnraDR/jzVFlj61zMF2sQ/rPcSTGYnMNdD/a9nuWwTexi7lgQdjacd6lELRG/DPextk/h7weooUhxEGO8v3a+WjV7GN0r6cSIMAJlJpsGMGkSs/poQAOKVrzh0ZKR223NU/JYAMICzCwjDY0BwEQSsrirj4U7JGw8AoHnRnCyCjSUom58K//yacvLDWt6u9xr5p6+cahvbl7jH3zI4+ftXWcSsuXL8YRKxecpfSUpacZrn6l/NdDslxy7R87+6S9cXPXXnjlCtb+U+c37KEz47dlLK+x8iH6wzD8iTEAKCn7Ymnfa8/6wybQBRCnpmDcowgIswiQnQJ9nsvBZiXqEFgAW5rPeTmpUoFzvNTpMTGKYgkFCrFHaRfdMatJXzSWSkxFuZ8kTAZa6rov5pSDB1CocGEQlrVbAZZSKiYYC1bpLAVVuRJDNrtXFi8w9MS22br86axoD/wFdtLXkZc7Ojvpp7z6tfx8FpzA6P0K/Jwir4PsKhmQTpjNrZmUKgi8VekL7/g7bUpbAp9rnT6aFvVSCpiBY1+gqLeDOAkNQqKG7momoQll5KVNDCOtBkrMMQtBBtDx32eRWFLtBuqDse9afPrPO6OBffrRndImOT+gmd05moFyc+eMfVGbPbQ9to9e3joZT/jNuGDIN+/13ymc2qXnynv3Xzc7vFF+rip7c37GvvnyS0F5+1s/emnTHtxZv8uQeGnON64f2LXdUiOiDRcAQJs1PUIodBXFpsOWFDVhcWlN0DEuaTpSe1gtbqV30M6ahwGoLBFUm1TnAgSUYciQ6khaaRHQ9AYLqFhv/D2XUolVSO1G1S0P0YiqJJivFrWsfHQ5QpY6hl60kJ8pIg0BAq6nzBBkahLRj/pj8DMqiSylm13ZnP/DCQFPL2hDO0BAesH3J1qYjqw+PA7W2Peq/w1q4Hulv5x+Pzq2GftuCc0362tWT46B2N0gnpRmiBRTbacuxaD0mVrcKuUVang5fJU4qupE+XLvX+BGmmsRanOlm3RMNyaC8+HVDzjCuesCCuCRtE1L6U2uDRhOtgHPKbUo106shqcSn31w+64Ugzuut/am9sL1A9wjDGtl9rHLW/bwmXukBdyjXfxEuXkHCJ629Gopf926klIOlX39VmXXbl4v1C7PEfncozu244xVz4p5euNL3961o3ZR0mR8LeXLpXkic5PTfRov2Gt2Gi10YmpSJueojoPSTjG4AHMJBk5RY7HZ0kOFfZEzVKdM/zcqfkhjOyun01VZAaeARYdFlc1I55+awCmOE+MabBHfm+0UbIB3LgwHz1bvvu/SoVRK42Jc+unTFLAtCWSDxqStSakP2R8Fi0+7bEDBjWsE2EMG5+34XC+aOAbewQMCh43a2rdhtarpzFpPhTprS4BgHsT6fBwvyu9pq4Od4ZiKTRWwh73j2kYgk1Lg3jCuqr0PgtToieqTo8fixWE0He2nyZO4KLejzHQ52qeySx8GDPRSEYyEIp+bz3M0Tl9jw4wq+8QDW/bAzrKAcOqq4jf27PB4ES114depBP6JH/whq4/eMpuR8vU/ur7AqUB/IM8PuuIYnuG5riD7+tdiTf7LF27bom2ifhXX94NKrLLPPrqDnuv55ff0+ZduFwcsekmtkxk9Rg5d3QhzSierc+W0aX9ydzXliNzI+c+oGEmd7YIZwCLTCsbdx4mKWrSiAtXhUNF4dP1zh+knbNIYYH042PXL6YhllKOxPWoSpCqCQckUjItO8uwiwxKCcBRF89EqionpHEF3jLMWdWzWFD1IZJMjV80d5qUnehRD89g4Ify5mZMB1c7Ahn5ADs5Z8Ki/UIDYTC4uWjeDGvgeAKHyk9amc5Q1+vs7gFBKnBwg+KY8iQZ0ihB7qDZ73cbBfPZ8xj3/+V51Urzy+dIoCZE4y5sVSMhnIJrMXUUJEJQTzhS3Ij8tg7490BrRyZuxruTgUvfAYCTVukBgIxt4priU/iheuLIff+osjoHOr93J3L52dQ9rwZExAjg6yrPbO/a5j3/MbO9b6YhUL5t+yGzjYrHwkzuFmUTakpVVXkZ985vFzrSGfivHM4JvsXS1r8XaPvPoGfRCyK83dicQSi5FzKTTNUai4aM6SB0aGfx1jY+6Y9IzmJb9Qrkc2wIrGFRHySwMLnat2O3otKsgkichSliq+dOeLDYnnWTZSx3oer7W0PuCbIKEh8E0pVb4Ev1G8ODPQDsWlQxqWJbYRn/uYDTppOWvwlb10la4/9x3QhVXmZ2tK/voZse4gCVwU3puaPXh3JoNT18WgOBjqQ6N9Tgd6XzCTndhdHtcAIIvHZRhOwrxNTNdRMqgH4D4M+Iz3As+pjjjIgFOHzv/HQTaaA41tlYlDpi8dIpaoQxLcha5Zw5SRuXcZ13FQgcwo1uiEErkkShyCSSHiLhDeB7Vem7wPFMGjqC9k5iXFKpxVrmX5bz7M089bY88/HiqI+xx3nuvmx05W5AAAtD9i2azA9ufzO0Lr+0udXlUKadycq429kOg1lnrPlu09vlXbpd+6TqUoy+y6R06FM1AMrNChBcsglAnF6xoV5+LqBogyi/IvtN1YPMQQSp6hm9XTXD/LI10MhwQrKP8eUmER9qETI1/j8ZE60DHm2JT52oKNsAReEHeNG0s3JN/l0fUif5US1KJjGRU8X0CF0lomPOlfkIbWA9GFXJq+jfWuAyrn7++mVqeEiA4bze47JUEC2uthlO/GyCwqftJG/h4XgSJXsjgG9ifzZ/T84TTGRqlLHYXd6mN/ZbxGXrNN0fjwFHvN0B4kac5BoBTCk3iMN6gKnWypgV5XEZteFtKHSj4CxaItHXQ5GLLxEos5bG7/inAxCkFBvaMvRkAClhrLxtX4IGnGM4He3B0vLBv3jywO15/rvJLglAxWW5zPvfcZ23nzDnWhqkkS2a2Lc3YfPG6PsHTmnjmhRkDkVdulrbukSWUUJmA39ewd5J99vJW3NvV/WN7/sZ+nHoroWKkeNQnQPl5Hs2O7cLuhsGueU5dWgPdRPovtB0sZcd+pr5ITlN7uFyDQQJ9B5pl4ZA7sqA5FSpWQKwjD5vC2KZUp+Zrac0n0WMxbkynKBWrPU3b26VBWCGX/Jqi5DhRUUGKomcGzNkXZu1DgCSmaPK5GhE8O80/NHuGEhWMPdOXdmZoDgJsVkGMjMopdlQs6RxnKFUtdffOB6O5aAsT6diAR7nA0LQtTpi1w+YuhtKXIPolJECgwArTlOfKj2uAVmVUTnPMkWmuL8fkqXNepqVI5SJPxM0LACBUxQ2ofKovpqW+9KLQk8BNE+bXcOHOA9veara1N/emNiNAEdxRhBlRJZrXDeyzn/qcbW2lxiQaDa9k8D4I8hAPfIp36O1SX7HZ0R37zVdv4+heGRtVGOBoUAcwHMHavHHSmq0Pa7s9mdkdb1iR8m/ZGcmZS6SHv2W6nuAhmr3gxCxHZIzUeFhL0LsaX1GKzOeC1hdgSHm6Mk7cxMRLWKxRx979rJxeNKLpR/W87yXK0A1SoiU13DL4ou1w/+rXLnW1noXaEw/IUabjOgWmJkpOgPcoloa/w1Sq5t7LeyeuQe1KmkChqpxSOgylKBg1fGSrKIy9YZHfM6oMfAoecJFZbXbcWL1XAAJ6Gm0PSwfEQWmJXBAAm/TPyu5D6eOiscX6EEh/MGms8v4kLnr1+ztsrN3z48QpCsK+Kp5WoMK/6q3h6WEQXvrSa+XobxoR5D3TUeCFoSllbEgdpaNuZYRk2NHHQpEfaN2udXJeP8Ee+NBQkOZr19eUl2NhHSe/HEyGnCWOHqa41yNdNqXK1LwD/oubazZdLNAYCXtcIFS6Hf4bkWZrtrk5th/+3I9aFZs+GfH9N4sA2l/rF8zOPFp+9pu99lU7mi3si9/axTG+cooAwo43+ZzQqDlTVVf20LkxzjB562BqU482VbdPuwkwLwAgO9x3ygRzS8wbgQ/sjkpGk6C5gJrSftedkQKXnPpExO79K5iGDLvht69MZw44yaA6WGyOu1So9riYaIEXMRnwHV4erLRR6nmAfLv/XhowpjZguxV0JIAk8182KqeGNli+SrRdBFn+3c4aqrOn0ieJvYgwPLFWvr8dIJSGaOXzWIJuLi6XMxGqg5lV1A00a7XVW7XVB84ueAclXsxDfXj3kpOpD6folujdWNuDhXndg3tzb61sa7UtrhbNVDQ9UltnNURKeybuOy1h/egkcFURIAjFwZG5nWPjjVC/K2JQdCwHRfU3lJQ60x3goTQxgTMkysO6pZgNiIzpAVDdBCm5fWoYCzk8LTYxHaSlSl6lUOkb4w37zHOfsfGYXRh95RxdNzt4q7Nu+WwGv6UbL9rvvPaG3dybl/O8dQCTWk/mWm4fB+bQIlrKqvyEhCMPqL0g1MsxWcr3ROOY0jRK1J/a0EaajddAXpSGdqlKhF3PuhRR2a1oZZrOggDtCwquq3TAc7PCJFOCYn40LlDHal4JEADUqHVQvhE2Ruelp86GokCx/nmcrGsc/P4wl77YdaQ0SyBl/ElolaVBp69xLiCqWHOBoBxFikYMwNuYPbFptub9D7z0xwECnd5wo7L2HA96P6Zlc1kvjH1r1d7c2rEf9ejIlGknH7zZsVWHU+QtWols3cBOF+U4Vmtt8ZbXxy+nGNCbfdEWwTKB2FuniUHgYU1w0NSP5HxrYZq6vhoCbjkHqvUh8BiNlBLjFk4M46wog5YgR5H8E+yTGsPAcPPIc/496GNS1WCnlNdOADhHsGVdUh9D1g2n2up8CD/+e/uMferZz1qtHty+qN3G5IoFr4pSF8V2YdPXv2JffL2AA3WUjYOauLQU+cDrJBAAACAASURBVIoxDBpbjYeSGA4gTU3XEnBQUBfGX+OYSxHFaub0m04E5N726wiAxBkGKbArKebudNk8d/mzYAcT81gE013zvRKsFHApv4PnSuxA6ChSwAA2NR87z3kDjZ40YdLIyKaFDixVzkWaKpxOx3bKT0sfFGtKBykpBQUBbxdQ+62CQfAAxNP0rJDCvSkAcVsy8TNYPI9dUFvl5w75QLht8U5tilg9epkeo2eCd2zF+31PoGV7Za2fFHuwsObOHOMdAGE4ME979hkEXfYEbIBfBUAQqsolKoHMyCDAAUARzAWh6M2du9qnJmGdOzYfIKD2dB6AAwHQHJxMzDcdnZxibGDRZVnRnxa0IzEtnPJtJV+4NhrZcx9/1s7Ux2XDBuwlz37pkzEmBwd79vw3v2r7k2lZkMz/ig7q2uyWdIYocfxXjYKcYfD+7j7ZWUWrfFzaHKJOFVQop7iEgMnUwH5pszIqgliIYdySE0wUoZgcRRZoSMu+qBhvXhMAwb8jDtqiaEynb/ajCz8kSr3ulXNjTvUuOo7GN1NYqj7QBvOvDsOTBIWRwsqVChrLXv085kztSmks6cMZAaVqEjqY0IR4pYqXp6MqwdXBJa8HkO/G19uasrNdUHB8rmriAGETFiEDcoCH6YG1XnKr93b+zexwbotbJQSRBqEc1VpOQfyW6xZ8rn1NbbxzjXx/c79XGoQX/CyGtJ4D/Grd8SRAHKLEU/RCjyDdAOc7cuRgIQp6xj4mZatLwqkIsIpp5KmOMtahXUi6HgFAAOLUa0Qlaxk0qJw7DDvXfBHcFAYKLbJ5fK/WrH/H+mjDPvnRj9lme1CasGWOdrheqqV4muGdOzftK1/97Th50elhBEPc64jk8/okM1jSfV20W4xqJw4Xs6j1KcZM9jpSL6L3FX1Tb+ZA1bGxqq5g17TvKdoTw4yAptdvIaL9JDRWUCNwkcFXd1osgxayM9IaKGjUuhbml98AkPBgh2+IACS0TMunR+J9KQ2mVAGCUq6lEqmXVaf3yz5H6pa2WGxLtrECutJk5Qs9vdGi9bofzuY+RQVPw63K2rPeNrk8CL4dQRztuwcK4+XW/pjC44m1rh5kilv3rPlvbxxbMy3jE9VT3ohptrA7c7ObvpZ4MuWoHPxoaw4moLNTe6YyEAAI9bCwhoEUKUQK9EYHvlTH7qJ99JMvTxaDSuEHBswNt5HWO6F9qiZAKDgWhDuv1KpVUSIGRyJKjegSSqShIaDx+zuzNkSXsvGoRgkR9BRnP2KLwdjm85m9/MoVe+t6qWAIhXsqJ8z5e2yExA5gI5IZzmK/iFLlIJ0CI0MkliRSMX2aX+eNU1MQ46rSLzw3mRltELDdyydoig3C3KCskXk4GNGyAIG8WaYmTUGkDtL4YnNFz4XU2EqiHda/C1yhVwABjDa38qVgmdiPwa+rOnZFTSXHyXnMVQtkaLVZcU/SZnAcole/8od8j0ov1Z4ZBk6LzSPBgdllB0psIILmd1Jub9fW+gkrvnGPFtbsLszOD61yKg8vd+C5M4yveL9+Ecl6U5Tm1swGF4ZFQOSvG8e28PJHT2Ow5TIObzle2MHc7HWvfCC2WIumS7rhd/7vewUQrvzGa0Vk7KkcX9MpnSWdiqh77ScxUuWkx672PkC9KGp47O7gMjAUXjtORkugXcyK1ovAMxgEric3isrNimIOp0DxVaTS0kFpeA8jQqdnsbdTGWA4jKSJ8Of1sXjkwtgeP7tuo0GNigRPPbQXPmaLtrbp9NCuvPiC7R7tdcwsWVdoh5xJGlPMnQ4GUpfKEnCUU10VkPT7yiwtwaSvEUMZjA2ahXF/MtUWYErt7z0A4fG/qt4AsA+PzKhd6b5UtRAZF6ZR1YNlienzVB3HsAScnX3BvtP3MAUSRzhLr+X2xeNrF8D7vkzaC6W/wkELFKljbO7+ylbHuBeK6f3+I2VDp63ADfbewax/O0GN1qNAmTqzahzQYnnsREC5+WreIoXp1/QqhtbLp/xvnjran6MsevAgz3mBMfZmbD4+BcGVr3XkUAKMZndeQLsfroRyyYUtHAHQJ4MN9/EZliZKbxyZHRBRwEfk6jYIFwv7NmCE5oxgVQ/RhykEbLGoUuklrsmz3v0CIWoUC0CEFtGwcsbJGfl1M6UoxAMHJjZRytdElwW6oghPJTJBrSV6MdBi6qdQHBcdpA+ictI+YVLRknr3G5GgShsncujsxKdyGNx3ahmKXKdae+ZUgpwrxyoclEqn2CwHeTYHXuxTUDwMKUSBMNH0mkBFOQRi0KjQh4ii1D2FHD4Ge7k1qYRjQMi93vaKUnydKt2Azcj+GepVcHe00ms5rckU4MnzHDlEGgA6oPhulUSxegJNoSSa1XtpPMp67ah6rGmxOIzY4OSYKgENyDxd6BBU6ugw2r9qXo5m9Whr8JDTe35RnNtqNvWw33POLixaWGXlyPDmqjddb0vaytfKWm3NXlPGl2JQOFdu4Bszs5tcA/4MpwkguEgxgKSMuFJlVMsHAyBnz1Sd/z7KyRi1qawWaSVS9wJ5Yr4i7cioUZ0+iy0iW5cYzlxaW/ZtWQRLdkHgkmsPEakLjFO5tlhA3LfOE5AOC0HK8vdrS0mx7yBXQZLuM7OzcvCi0cE+MgUI3+r3TsGz265iM1j5pcIu2lgJBrFGCTzC6Yvx4fovDEoHALCH+f9gbcg23uUHpOdJKQ2xOMVBMgrnOKl0szPuHbiVPkC/0XhifSndlNhDpZrwfG4H1LeHYxaAI/ksgA81Z6NdPMm2FZ+VS+yZuqQuw/du/hwcq1K13McKouh7i86ArPnlkbkmMY539jlQYFRvcMLcRyi96BlL1ydg0Y5L4wSUVnlfH0fNpYNiO2msuTErOiZfK35wggOQgzKTkEWxOyz0VU1rL05oj1OXXqxL+aJIc3UsDUSKQlxBF9FpS2AXiIwTEE6H66vUzCsKoEhMKQi2t4VdFpAQLS1hnxyHWucKuYt+IdKOLk9ahLnRR1LCZooR94oz36QM7BZqTHy/Pl5o9QRqStkKsFICCHoe/heLLnUbA7svCl05RI6lxFpLYCApcfX7pV4SOWWQmIq4VhpHRf9gDlL/7UJpdameGJ7UAQ+Umf4gAymj48+agVhmQ9iwRidFKtJCJCIAo3EQ1SkrS7YABpZUWKQk6NyF2EWFRi4tRR8CCUtrNR2MlqlpR/lBCvAsdlHbS/esRiceaTjt4Ec5+/pWJ7ymsapqoD3wPGC7Xw758WgBS5wnOt61gXmE+ctHpVmKnnf9FKUYXvzCayVTx22UGQQ5AbFVJWItZkVRnQCb9kYA/LTXdIIp5i6Bx1gacoI50pQtSMfOw6LJtgSQLRqvAI9cK06He9rMv0/9GfR5MSO4dwoiZcNKYEPHIjuVhMKl+qsEU3HdfrQbVBYj0/R8SNvmvZ2cv8SBuSeBAgqBZvXWUUdAAOSUPsGlBdR1VgZuozsKW/O6dC0BCo6rX0bADCBHjECqcikRdQFVAn3QGoQ/6FKgcKwuKPVUZmJpy7x1vkUNj2KNiS3V+R+4sU6nJAAVz6L1xXvQPOmZY31Sfxw6BtqvHAyF35Rt47g6C+Qm76mNjhjx64rhwjHPCWx7ehN250wNMbSzCq2XKPDLUN64U5SRLkR0IiGXSuPzCj7YalnMqJ8MfVU9NDh3xTcwJZPOR/KbUjodrZbDcWvT0BCLmnIKG+e19xaHIvDckUubKnLq/Q5TXEBhwJODkJBF9ax5siKy5kIvwhbNSELPpKbkGFSSgoWUWiH3o2IdWBI5PC2whLCXDEZiPSJsL/sgNsldhkoGM4mthNRjs+osjuQwhaC1J+O0MxpSUbEALZo7Gh/Nrcq8wujoAK1UM4574PiVaHE5KkjkQ9TS8pHLo6pVNOY8hfAJOOH9vY3bwYbOkSqa1Nhi+VGNHNUa/VP8VEvdv6DAqfp90DhqfW0P/Zx2TWj5HlQzuO9nR0V8JG3u4SYrH3w9U3Hs5UfuFJwRmB8UnlpI3j+PLo0MBnRqmlCz5wevsixS+fBTxSD8RjnNUUwMaP1kEAObIeLu5j5oXwnC5NwTiFUTLvhhAefU+j2XBSO/jXMgukqX7JSWorkI7Tm3tAE55eFzinSb6FgGI+HAemspmKm0T7Ijh65He49sHExJOm9E+3np0gI1HB/YN4ng0tqHo+MHVfkkcBCsodY37Uz8Pe29sPkC/kkTJm0TnouOPphD2vMAPtyTAkv55NYQuMNOS8RGsKWUDu2romrt8XD8GiQHFL0mZ8H0JAE9xialupfSDlqvSfCpyyudDD0T1wnsbaQ2ltMfYZcCING/JLAoW/fomtlmCnolVvT5lb7Z34sqB84/ggqfG69U8N47fgLjpDQtWHjliHcydfuSjouOMxU8gPF12Ekr7LWJn06aqodyijaz2RSQAiDA9hEgiC2IARG60wmCsAypnER99bPRTdSPAMJdE62aZJWepAWvhVwSK2lTJwpkKc+p/BcfPHaONojSFyly1CaSyCovMlDmqpdOCDnfF5gBfV+mspm3FGgRuMoRUzYMMIapk1gYHlFYyXrgntNGUVtljbF/Vg0wIppW6SEp0pjXbJWUpxewULkT84vRPTF1Z8NCpmMG+ymDL2OU14jAHw0mNqvSOYqeenOEYU9AVesy02ASO6pPvMYnAjIBgsTSLIG4jk+Ntr6P+pldOP+cvRyUK+WZDBo273fjH9dJj1hq4Plc5MjcIE9VA8CggNd/9hbLiJC4gXVNv94rR4WQ0Hrx950mgHDFRYpK1SS2biliVJmzp3pEmauMl5F0zIMcT2r5G5Q35w97LbUrVzqyUNHLDbSU/ggn2dOwxFif5Bx09kkui0vspq6Zoz1R2NkBxft6oCKzWGE/kiMJdiWlJhU4aA/iGokClug47EuvrTv2qZ6rF/AVWr28cP8ZWOu+aNcj4qfjzSxwjqL1vrCr+frZ0aYABiSTsGRmWLMt4WdjXhN7FIFGZqoYNKpiJqL7lNbE82b9CUEKblmpFFYz6XdiNqL1O32MKPol+5LYc/+e9crsUWYNxIxFD4N7BSD59378+7RroRm9Upyd1HH0KmGkbYog28z2FmZvut3q7bWlGJSp8MJOkW3Scc93oe4UHQvYwqZSgIbB5YIMwYy6dYki5QIJGkm5Px5SE4s3abwy65BrlbPYKdCdctZ5svPvuFC0wSI61sEirJAQypNwEBPI87EVJUnIgioFKXnlVEUL9heg0hppY4n+KR4mIWk5JuX3/DNJAKqcltgBbfBuDFMObTlwL1G9RFcC8XL4MgZa7KnUNBByqrEOwV8vyhOgw+V6qYgwiJznADACcaliQvk93TPeIiAqeptalIhkRb0SWMk2B+CiQDYzSTKMmfHwFN4j6KXRoWwJihyNgxDhGl5iF+ILO6+gTol+D1CqO7amBsJ/h8NfIuQ2uzY1u93rMeBr/jQChACj6qmR1n8H7KT56XQuAtUxL5lJ0npPnUYjwCBxiW3EMQswIKeZouAsVo0IPKVGltYfHYucbwiV2W0uBxyRe+b94L1prS+xAkD/dzcFUyMx5NFTSi6cC23K2z0fHB73hX4WcIv0ZxIOwuGpOqR3GJK+FwyKqrKQ3uzOS5FYMvQn+m7m950hi1N7k8Pvg6liswoTXVISXXGZnLjSimBJkgOPOdNaoEMPzQs7vUYQlcZHgt9gijx1mQKXAHWpwVucR5Fa2otByUBUzyh/mIMw/U5DcmFgdk6Hs9GmooshU5AlFV6YSzlyjH1a4/LTAhdgIWmvFHyAsWSXXek1XpmazVPvmw4sd1qaXPqp+SgMylqHfYTgpXrX4ojfKyevyUsH7oTzEnLsRW9YvClSxcT4/0WjMWIDNUL0WlB614s990gIx5FauwYllKL5ENyl6Ewb9KQJXkqRiMlItF9GzXLUObrN6HwpkEirV8+3tLFPEDHmBQcKLokiYYN8gUGkmU54TFGIni/SC7lWOrEgkXohMAxhVjIGfeovU3kFSKW+7ARZME4q01I6JHLG6RwG1Q5LBMk1kFkoGI1U+RBjTsehNqU5goyIoCOjuinh2pOS3O91pza7JJEo21lH4yQZWTp6+DQXsemeKITy748yvtzURgfQ8DrqG3Jcm712xPppVQxxg4/99Lbf5es9q2Lgcc/+zHAIAkwJoENrkprJBMgXiOOzKHLJIC6MrEqblyLm5VxtkHsJtGmvlCi76563xMz5n5TC09rW9+kIerUvT6lCgNzUBA5zj891FTsZmMpRR9dXsm4qawwKX1qvJHbLxvmuPHuKxAUwJOwrAVxqZJXGEXtHQl69r+hyi96lF2yVe6BYWGlDsZgKMjinS86E8yF2NISZed65j9X/RPe2dHx0Sjv3hYsFWXQ9EnCGjx/OlTrgw1/5TahHRgI8AkwRMGgxJsYYe5OpQNkTidUzmJNfBLCRPRUbIQYqMaqPeB8jpST4vVpXef2IWUaHxLKcw6Zkxuqk9aG+L2p7/sbCbCLtoIAV9XPygwIZGNekkQMIxlkM+qXamaaykFh42iAcdAmWNJhZzKVIWU5cDxgiQ1JaOn4znHJM6HLrAkUPcpJo7sNNSy0UxjHYjLJ3CwqlEy2we7lFJ4xJrjhQu2I35tpUAjoUJCkKwGAqqsmiQEXckZvrqhtU3uWLCbei8qy+eKo/UWkzxkLSmQilwiXEKUKfgXR5H2IbtOAQCfIo02A2sjgz5agEMHw+0bVMLZOVJ9Zpkp5/V0TJ79X9ZlFgRFu5Q6LU6LxmCLtoEEJwJMNNajQilRS1aU51GFChB2k8mZdD7bfSLzLgflK4mV3M4tmTHLR0LjliSu/LNGze+HiUlAc5bs3e4BuWQCb3x2ljEHJePsoWtQ+wAZfLT4Nto1GMdAGNHgxTb+3mIEL7NTovuuP31EUGoCydxSUp7o1OeEGpptJeVSvkeU17WWkNBTz5GHPtHa3f/F4JocOWJYCjyA/Pm9N1WguZdVNQEguHDhFrogQCKMvT+Qf+Pt87PB9DIDrGgnZPwZPmDf9lfwqAeLIm/rmyfnnyptrH5/NWEshAoKAKr2wHUvWWgsOoJhN7KtyXe1xwTFB95l162a8g1hsGs/S78T3t9xtl5jldIZsMto4Cbdm3xJBrLiMIZiAjkAfRYF5jCpKjcqpLk2DufTxUacHqHl3bfccjPDZhaS1xP/TTFPJ72WacZI6yT9B9+++u+WnzSndwPsQmQ2SsFLe/mUynAkGlxcAgLOXOejQR3qjo1yfSJ8xhkBZeRl5J9R9pC+Z0oh+7HLW/l138unIm1siKguJi0aa6S7iW8okR4fJ+cs5OTiS/RwZZLIkGWWgajaLUxlS5V/V3pwPPjidTcNg/qcMbOlO6kWQ9uBxF0JSKZrRQ6EiCraDDwKbhYl1CrXKi2iDcPABmCSDleQ6UzO8UmNNmxg3LcHI+4pQ85agEwvoRkPKfoDfLTZUOiVyUMp5KO8lgJFFV/i6stfSecCJiI1I501JfdIGGXg4UwYXKHFOuVpvWqx4vSyvxdjvyO/ibAPdRa/bmtNT7S8ehKEoR2GmqYnANAtZwPqo5AW6t6cwaaJ40J4rKcoWC7IiidDRx4b4DIHUnwbMAZIsCVCQ6HHnlxPLoPQDhZBQUQCjywspUBMl9AOeYdFWYC5XPab2TURR7JPYiqHoGGLikgKnaDJNVwtj0TioUYFoCi7SBEiRGylCqfZaJoucD92nsgcQMAEekVIK+Pxxvz7nqnJsTuzXSHwSzkiufCPCj6krjmRhE2R6lEsJOkR5HANWfezZtkrMUM5wZ3aDJs4ZBAUVf0HyPVvMRSIRDKD8ITOHnAFGJfUmlvWHflVaVrozp6YcGpYNKP931HZiTuz6CteOHiTZmB/TV2gu6d9n2+LDmU4yS7DnWlKcYgvPrIgAhYQK2WHyK3kPMp8g9XbRMfHe0a47e8VWKMjOFraYNjAw1CdgYRDuZUpExh9N02tONiCKI7Bi0QNJ3yYEvl9pwuPJGyQ6bES5YkJTzjFRHPptciJhdMjFpSUGKMU3dI/WskcsjwMhRc9DtUjT3S0GVQulRpyHWyYIvzlkWUupn0MTuuHQUM8cUTpVgI2raaZQCAKUTLTVGJ224HM2olCnSLoyE9B4s7iS2ypRcRsuKOICQEwDRfcRm5GZAMx52ksSRsGwtLic0as0uD0r7gryR5eDzzlQgKBytv/UNgDbvLT9l3E9N87Mj1kunPrAZ7MmPz0mD0L/oO1iR9yrF4H0QRGsHiJTj5BrReQkApaKbGXnKOGUgqjRL0L79Ns5i43ppDM0xAAtL4TT/WouR8kygWVF19BlITJ76q2Dolf5Mzk6ONNihDI60ptR5UELeVNYbbIiYOQkD6Tzi+rkSKAFw0eb6fv+3urzGoUNJ0BeBnVKXvW6uS06M1V1y2MWm8gwG2l74iJ72zH/n55+AVXS7Ewz08uFY+K4kghMAEqiLfH1i9WDvpBOj04sKMwKrqJhQR10yGUg3SHul1KQa4InFkzaJbGifRRHdDhvM/Yitp3LXPNYMSnOfjhAzytaz6ke+74yZnWOKacm+JIYxY5R3tC0YZDPXQXvrP+9ajb46qpJU2p26hswkqeeGbJtsdmG81qyFU2DORc7T++1jI6lRSELPOf8P55aU//F+Lqb8+aCWsbOZR1LuNqnhFXkAofpD6lAM5eEVwUsBn3IsGMhcmtKjjIJNkMNPQpBcuiPQhA0J79g7p4CGRxv2LpSWmBXlZsNopk6RStUouokxUm6QhlbOMH+fQJKcqPJwkbphBzSBulj0vlkplBOFqtx5HLMq40iQFIaRhq3TP1BprvM2es2UglkRW6D5IQhSu9NsAAEIVEaXGkghmuR6CHW1SppIk4bDyMyXgB7nRCAVvxbVJoNNY4C58oN56oL2XbyIRlGlHwk24MzFrGrURSc28Pal3uKEp6H5z3I6R5XZHS+VJPWtKEgASLSeb143fiMUSv/uXu8ZQPjCayXt1qPIA7j6PDDSR0TIKDrmQ0FBErjmpmFIUSYwoT2j38OgUZClfHA/beb3pz2c95Gc4ZLwWUEEe/lrXYWzUh48rZ2goeW4xJjmksf+8cMp+MqOMlJjnF48E21pDqCC4BAYIzABw6mmSYnRjFMo5cBk53RUt+yJurXy35FjpzMXW6t9EOldfS5VfADgaR+ROfXP6xA/2UaBmsj/KyYTwMzVZtyPuA5b84O9SgJS/E0nwUo8LsdPpnqJbcpj5xuTNgjMim81t/HUogALkHUImytwAY1G7+TjLNaV7RRLJMDMe5TvWxuaOVsZNsK/0w95bM2OvSrBvy+tNe/wuTYw8xbJbl+8h5swqNuUfQ88EhDIjfeURpa9EwEQ+yWxuVgS6ifhhzVF9MJvW1Icc8GEMxKK1CBx0wLVJ9WnIoYyC1oJvZ+1+RKFp/eqTEMbF4elsH85Jk+IVM5WVF4W6ojiUW4003u9lqQhZkyOXc8jA5MpYD0WFo+ckcSbXFhCyhjfjAwztZ5SNWEAlUrQ4TDcQEDrXq/Pha2IDo5feXEMTkd9gV2hU9Xn5HJyzTJYjV5JGTZLGlcYH74nlxFJYyIAFNoTie7UP19CpwQ6BCDUU32JAVD+jBU+opt9cWcDpFQPhIpJR1EO8aKepQcalQITqOofUKa8o5gMOB8aZc13iBEpUsIpdX6vonYT+4DnIjBQuk2GJzu6oJ3ROO2UAQRpCZKTB4BPICkAA/sJ6G9xkJuOD+bR4JkZk41RAy+tiXAEKkPWoXBJqBt7Ih2wFoBGzIyU6qmHg68RrzkPWjuduRCsBJ03tqq0NX2lfdKXZJFbsLNuGxRhcwMGI0NW0H8t7Q2u4d+VIlVsm5RbX0qF6AwYRoxZLKrvyYLG7DgViC0d0yxaXHZBwZgiYoKZzKbGz6mcLhg/jr10aLCHuWQxpafxJ6YAtR9gU1RpQZ/j3wfWVUymQKRSwmISc/Sc2BL5KKVk9F25EgYBcEoxZ3sYbo0+INK/8jMJpEUAxHUSAJiMtPxk6BjYn0MVKGFbBXyk/2IVGJ6BqTkfF9kiBMxpbYhdjf8K8GUgkuwuRIqK2DMqwqKiYxL9pgUa+gI6IzhzOT0hj3zgTxJ9QRiRFcKkrvw7tFGXhI/pwJZ8H4qolyhqochc6ywhlLry5YWfSj/gCNTqWfS9aERfeDo6NuW3wmGS/8Ei1sF+XOBOH8NJySsT7edDn3LeHxFDqvjIEXg2xnBYAklK27ij0jkZyaGFAEnVAgIlipq1kFP5lQDTkpFU+QwdtiId5aUDDNKYCFjlvHRG5cjtEvEHxUvg5rQX9C4OSsjgCGjlxb0kxkrAK5iRVE0TtJooawFa/nsJEJFdwD0kYVsYaOpwZHQVgcnwaW0gl8qmJRDMpuhC7JoAh/LhimJPE0DwsxgAzNL+loZI46poL05wTMBfcxYMBPeMnjXrEhSpw0kk8OHUP/a71r3vV4HC7KBTLjWqLlRKnES7GXAuRVZqqBZRQNm80ZPDv1/rQ7ntXgQJEbWiXQHF1Mode1xRaGblogV011EzH60tUB/mRLauR01rb+p9kZro5fIFonweZKuiOZJ61vD0WsydHBHTcjj7wm0c2YxYyz39Q6x73afbItoRgSHtb5A71IGo1E/2OVcTRPSrlGzm4XWORxKCZ9scQbGCnhR0yO9F2pNMBfaxxNRiGiVWTPtaAZoAiNZ4+E/aR1+7WkcKIDAfqcpAjkPsSzBdtHU+LvIvSltjjjy2SOlWMSNhg5Se61dd0dfJD1UDr2IIHovLSf9Ozsyj1+EmjTbRfzipLF5StK6o95gnoalUUJuL1BGUqCnPFdoGggop0aNmPVGVAWBSxL5Eg/p7HaFRrYn9TgoJkQPP+MYEcuFKIQ3QQwChtruBZulgJRQUqozImaAkTgzrGRqge1YD3JV+YMUCjG6mwJ1O4mZEbCz2MQAAIABJREFUG9ZkEJXfzDlEPId/rwyiSiITmFliIAQSqKUAMHAnPWU6Ihk8GWkZcmklxPpkIyHRWWZ/BKRAHUpAKHAnyte/N6UZ9GwwvGRE4vu1WVmVgg2ijSuGRzRmVKUU6lIagGzgFAmFqDKVeKEEiU5fRg+gN3X2jAoSblCgeR3Ew/HUWokokMxVjJ2nKU7RYU0vfpEphkSrK2cppw9nTEAcQURKASliFAAOxjEdo5zHzq+L66nLYconS0CstQRNiSIoRXypdHGJmeqX/Yl2V6laimwj7UhQgog49/QQKFXOOznsqLbg2s4RsMCzAh05n3yf2SFjnfC+g6FQxU8WLtOZCxjABIhJU9pEPTmSqj/WMqP/zJQA1KcIU3s2ADe1HLlEXYybNFvSsskGlxI6+hO3hWRN8ZwSRZPBzAFj6JEc0Ex4kjADO9lU3J+nzXVio9J8YhTI2GBf9lORyVYHEE3N8SKYEwBSBZoaNCV7q8Ab96OKqVSqvZSWpg9UYAMwk8obBS6Wgsd075ofpEvUpp7MJtKx9LsAujodWaxOlhFkvR9SJOtstUxkJCOPcdIZCAk5yXEC3Ts1R0cWVCEHOGgtvzE2ilGOTTlyRRWK3PBfIVHR7EkrgEsrKlGO6F6RSCqfigWWDpWREE/37f+G41UFhUSEMv6KZCg4xORnNWs6L6Jf0RCOOzMDiiCUfkhRfW6osgRYhFJpKNxRojOhGARu4pgjGjNEBBJRyijwv0KuQtdCrKDB2e5TDjN6GsjZkZVBFKcNkEqeIiKWnoJGQbnnyPfp4BluYDh3sgb5WcJI0fph7vjs4XBlBLkuYNATSFDaB6cSkqEIdK2mTCmyCQSfWQYCkYgMctvg5DxAW2dKWkaRUZycRER3Us8TmJ+qKgYyCFgLPk4qf0ulrpqPUMsnpkZ7N5c6h9aE86M9pTRW7MUkUpTT9Ovl5j4ZnEv/EHsjiSkjV850CdaDgoMMfqRrosMHu6iUW36unpONCgKxECk3v3SWDFkDlRrjubTGkpZDWgoJP7FW6HAaphzlVGOtiZHopSozoJMdDVqd9i1sM1NB2CeJIRA4CIYx3zPtp1JoSrdBo0CtFxyUAGFq4KS5jlRUEjYKbGYWIjvQYLvTIUpyhLh/MXc+rmxNHDl5BrRiKCJYTWJGiRRllwRsBe71PErnap77qUNlr+XvBCDEpGZAGKmpXAWS0h1Iw2SGKrH0EXRpDLlHc5oP7oayAAVHAYYT6KkGm9Zm7YAoZSzE1Ao4C4rktGKSVMGgHB2p7tgQWbWv8pys9KVRx0SqA2LKJeuegt7JDoIKV+V3FTELNecFr3QEjBzzkoGCe2UvoS3SBHGRR848tWeNUkKsynJzQalS5Kh/d7mG5fcJ8WuTy+BpIWsxKs+kzZKdlESlMrT6LJ73pLIaRk5O9cG4E7XiGZheiftJ+T1FFKICEQ2QPhUdqrRDTgGFcZN4J6VDoowxsUECB4o+YEQogpIGIgNGUWoxRgKESZglJK/7Cw1JataUoyXMm4wFKfY4fTD1VhCgVvQS859SRkL/wW4kka0DIkVR2vinqQ/CS18qZY4Ci4pUFO1lsCZGLoArDTcAmRhDVeMknZCEeuEQUjohwFTK4UY0T4Dp75HoNSKmBKCxltV8hoDc151SWdlZyukuGeF+k6XUeVRMho9DdgCyL3L0ov6xPlI3VdnSYFekV0gAJNK4Enj3ejrEWmbkqCqBJaYm6bFwPfaUkY0NIJdKhwW49IyYXwL42JvKW2cgTQZQdh12Ion/tJZwvdxoKIvPk7ZKeypsac6VSwfAMQmNhZgPaec47gHKlUZJ5fvBEiRmUnoj2FZF2c6YHRVdmPwM9kiqHJFGInqEcM61R7QmY80krcZS+o3zFGsgMzqZnSdTCs2CAsd8gFXW3hEYh5aCjI4/D9Y/jqPfKo2Scs4qJiB/iTwYBy3XucrpBcLjeyKSULmSusk5FZgNL6GVBl7UjgyF0GcW9SxF5VKH5jwcPTyu2cu5S5mLhZA3ICdXhlCPLDSnTR0ZGDmzTCtKh5ki2dj0pIRwHaHndA0wEonKj++TclyaiH5KKIthElMA5iSBrogwUqOfbDTj7wQTS85Xm1FlWtKoaBEqkuw3vvFnkvqdi1xRHOYmgZGYUzkPRkvQKZBpCaGgxu2EUrh83xrPSCEAei83uZJh1ebOrEGOfO5iyURZcqEEZaqUQkprhBI663GSMe1TuH4Pa6eoiuGlL79WwG9Wr4sR64GrMPbaT73KFtmaJXsRViqJflMqIKfRlkArUAGNoQCAcvtiO5RCTGmsoHwlA0+2IDuscOhiGgikW2lTZCSUlpBGqecIw/GmSLq/3iJqVIqEpbgRiSrHrntlN0T10cjjsrRuaZ8kXIy+Esw3R8BEZgxAIIMfpXY8YJSyP1Hq0hjp/rO9VlpEzJNsXD89eJcd1txL/K60tgIwOnZvO4y9Lc2BjhNPa0L3JV8A96SyetqPbANiXfYForTtslmyXxKXS3+UwSLAQtZI0HbLlpyYKiYQF6iUQFFMhda79gSuob2oPUeNWhZV4nPJXkZQw5R4PI/KSJ1tGayzD0LKpfXRVUQOunE5EDpeDKiMZHKyogqXKKIk8sPICXDQiWjTxAKiU9QgRHQi8JK+VxSOKMOgsPUdAg2i6TRZvA08Tl4wdFSZechRVEZ4ASZ4LeSPxKwo16Z6Fl2XTWdCrKYoX/noFE3rPZmW0jxhyDkeWtxaxGEoFEUrZeNzxgWTUW+ARW6w/B0CbnCE0khoI2ZApOhM66VH8Qf7ISErDTmMh4xgpvg0sb3qj3tt5JgLIWQ6joiweiWcGr+gmhPIi7HhM0TklyY8DIbSNiexNRlgcY9kUK51HZHm/HRVMbz0xdeWWagkNI5og/O9FB1JwKx8aXZyirT6ehqNj8SIuQopBwG5FDjXp8t5MQUVYl7Zm5SqDNCXDFg22mK9NN3ZGMN2ZfujdZ96r/T/DnOmPaO0brKfS+A10+zJrsaelJ0QEJK4Os+DQB2dYo6Aw3GKmk/AI4I0PoCcXjBIKU0WwF72k+OMKD4JSv1SAjOqNso2OwPwACICKtIUpfvJNnfJ/p4AzLND1rz1fQyu4WMgpkgC976wU/6C47XkM5J+Rb7iJEYNqS35Gs5tpD0UGHEedZ+yu1lfFc8t8Mt1DGdPQelSCo3BEeZM6zTZSQmyBeSq4XiQt9y9xnz1+w/5CKCd5qC5q75XDlEpjkDHybiFcIj9MEDfKz+mBctUS4Cq5EwVZQRzlSjj0MTk8jgBD0UZ6VwJ/CmJkZZYlJTPw55MhqSPxkXLZhCi5ivwCxnc5hItUce9/J+eO0dKAbQSMxT9HdrTBRBe/sLrH/IdsHq893IEWo9D3b5IxJfFfXJaAja5OZPsh1igxEYq5y9xpFg4OEScLJwOkpKgk6kTpfMiGve+Azz2ewnwe9DtQnsXtDPtE6mO7FgTOFMuP/a8bEFq6KQSXtkrCb9V2QKsomdXnwvanZyqDYYrjWdUVElYS7EubLfEm2wmJWYns+RId6mJ03B9uAII7+XO+CBcGxqFBj23q2HbKYqpdkYPCqmM8yZRjp8oHyVJct7uQCWOVF0z1ejSt0T+MkVi4aiZK8NC5cl5EnHFBk26CKHku6KZ1F0NG5+dGrEBaRBik2gD0hjlznCxkXUwS79pD8vtQiCnxmISUvaEYzkiyxoWbWJ/ntOUYnj5izo14oOwoFf3eKpGAGe0MKdcSxBV7jCocbFEYhv7JdlZlJo7J1JE7teCviUJuYN41O+ynXJQkjqX6j5CF5HuI8CEAgyVKSpCZ+pUqQCAILHUfG9UgsgO6PRmsWiJjYi0gCYxp5QlB6AoPAsjo1Qcg0EaNOn/MN709lGJlgTA0SFXZZZIp41XAOFUbab36WYcIDjCF/ptjiur19roJqZ+AFhkWTfBkksphaOkJtGoSnNApOYbJp3gKbZB1KfAg/QrYG3VpjpFEUpNgSFIegRpFSRmBBCQDkOpDPWqSOdDRJmQytgEFlIzHiFzUKeiWEXzaqMlXQKETTqLhKVmml7d8xJzkervTx1A+MIKILxPW/ND8LXOH7h9aSMKx0Ml3RL2qesJcuk5myMh7dnT+2B7CigwEFFbfmgitOcTayjb0D8uQClylK9yD0aKJaenpUmggC8aPaV0wVIlQKreWAqKWEIemgUJr9WNNpW0QluRKm7w3Ep3KsXv9kz6G6bd1EME40yGM9KXqdQ7N7/LKSeJJquNjY0Vg/Ah2ILf7SM0NsdJeVgktbMJ7pkdSpafQxuQAgBReSAAeuVuuJ+UjxO6BkKXQlYonXS9hKuhwE16jog0skYBaKX8fyl1kcrVhJqzrkYiVeWakWpIYlVscqYfYly1SzAm4hZTqkHPmzUZ3JyKSqQfifH0G1Bpo6KE9N/RUL10739236tWy9/+0vX7v4nVO1cjkEbA4cGiOjab12ZD2hYJdHk6pwKPSDcmr4T9mTQiJ+kjlIpUbj9rr2LvSw+ROx1KyybxnvQFtHn5u7L+aGkP5yqCbHtEYcgOyF5pbDJz2rcffduZx1P3lvta6IA+icaT7RFIEEAI0HBSalZaNVUbbm5srgDCajuvRuAUjkA7Ss3p7/P+3iuA8PqX/AiY1Ws1AqsR+H4ZAT9wsVoBhO+X6V495wdtBFYA4YM2Y6v7XY3Ah2cEVgDhwzOXqyf5EI7ACiB8CCd19UirEfiAjMAKIHxAJmp1m9+fI7ACCN+f87566tUInIYROBUAoaoqqwe1VbnryH2MjpfkNU0pzftev/x+66q2pnXVfzoc4nt9I6vv+1CPwAogfKind/VwqxE41SPw/gGEpN4cDAZ2sL9fenunV9VWhuYa/jspTZOS1RWZZ8+cteOZn1h0j9e7hR3i3qqi5m8bmxxNbDAc2nDo7RFXr9UIvPsjsAII7/6Yrq64GoHVCNzfCLwvAMEZg9liZs2ieO+1tZE5SIgODgIEXg6HbliV7WyPbG3Y2nxeijzH6wPbWB/aq6/dtoNJEy3MlwCGH5c7XgfDECxDvyHPfYzTYDiwydERq2wqq621R3Y2bN409tbhsY1WAOE+RnH1lu9kBFYA4TsZtdVnViOwGoF3YwS+ZwChqmubL+ZdEmG4Zg27Uwy8ELyZ23AwtPl8XjpuZSbBzIYD1p6zBn9tVNkzT52xw8O5zQg04iOqUz+a29GksuuHx2AigoZI1/bv9DTFvV4+QBu12UXvWoXOWOU+doYDu3O8sNcnC3PIsHqtRuC9GIEVQHgvRnV1zdUIrEbgfkbgvQUIHv3XHm+7c63teM4WVWa2cfastYPa5kcTs+mRjbz9ZlXbdNGUwzzw8hSDN+hRo25vwVf+6Hjh0pmhDeCbyyktDhouXVyHlgGfmc7t6MDs+vVDJipamy0apAiGdWVNPbCDpjZJCNqqNVdCLPQLNLxobTCf2fn1tdIzCM/ijEVlMxva/tzv993KY9zPlK3e8/00AiuA8P0026tnXY3A6RqB9wwgeBrB8/OHRxMcODHa2LTBxoY1cLKVrW9uWLOY2Xz3jrWzma2NRrZ7cGTjc+cBFIoj5hHUGLOOAUCWoGnt+OCONfMZDyY3Wx/X9tQTOza01sZrFUCEzVprdmdo7+lXOJrPbWiVjQe1zeqBvXpjz99iCwcCDjzW1qypR2A7dNrV8fGxzRcL81RDCwDT2nA0tLW1NWtX4OB0regP2d2sAMKHbEJXj7MagQ/QCLxrAMGZgvxylf/u3q5tnL1gVg9tMF6z0fqYrr4ID3evvmXrdWXDqrY7+/u2ce4BW9/ZLkdw6eB5JgcKn1CAQlEcOLHf2NH+oZkzE04LzOc22btlddvak4+fs+3NCj/borLD2xOrmsJI+HsrP5TIzLbWhzawyg7mcyQKpjawKzf2bGtruzh/HIdZ2dHRxHbOnrXp4YFNplPb3toCaIj2nx+gSV/d6gdnBFYA4YMzV6s7XY3Ah20EvjuAQDbALzKZTGyBY+y6ntkSBqJ8keJA/7mR3I9Ouq2qcoqgpxT6val7yoHCI3RHW+UKR7p/3IJjjCXin0cM5Aks6Qv+Rifu+fGg6G/tLAYrKFzkWFe2ubFhB4cT297egqjyePo21RMftpWyep73ZQRWAOF9GfbVl65GYDUCOJjqO2y1XA8qm07cQZZ4/uMfvWCjYXHRRXVAQZ8zALszq6atHc8bOzyc2LkzJdWAd8AxuzcnOPD8fltO5nBNQLlQ58UdTOjK1ta2tzu1xcIp/9q2t/1gmyaBDECOjFlwrSibbCvbm85sczyyumrteOEkxMy21kZ2+/YERRVbWyNbGzvDUNsbR3OreBzY+9V/YbVqv79GYAUQvr/me/W0qxE4TSPwuwMI6kXQNHb27JptDCo7vHpYHPLOEFG2U/fukkeV2fnhEP+248aqRWvzxmwxW9jamqsA3Fd3zrsjDso1gBmCPXDI4eJEj+h5rFdbQyw4Pju2lnqD4ZofJ1hAQak2cPBSl5MIE0xopq0dHc7t9b2JzecNBIuOO3bWhnZu3Usua5tNZvis/71pW5uPhjYZjuz2ZFZ+9zaVD6dpglf38sEegRVA+GDP3+ruVyPwQR6B+wIIridACoA9Cbx74Pbm0LaGra23tb157dCOvFxQZ+i62K81W1/M7JEHtq0eNLZ71NrhcWEMCnG/rPzvmiFVdmazto1RgQdeV1APtyFcbOaHVrVThx9WD3cKQDgzs2rkpYZDqwc7uO5ivotERjXYtKoaR2ki6QjbvXrHblzbs1uuTiyJDdzNVt3a+c01u3z5En7vbMJi3tqdgymqK7xK4tr+kS2adiVO/CCv+g/Qva8Awgdosla3uhqBD9kIvCNAcHDg+fbp9MgGg8rW1saIyEtUPrcHHti0l1++beub28XtA0iUeP3oaN+eeeqSDYetvXVtagcHytnndogaUfIFldljj2zb9kb5Ei+P3N55wqwe2Pz4ptnijlm9ZcPxg2a2sNn0TasXx9YMN2y09rCZzW02+bZV7cLq0UUbDM9EgyNUMRxN7I3X37TrN27ZhldVoOeC33Nti9kcz/iRp5+yrY0Nm8ymaNJ07dpNu3Nn1xaLBdoqvx+tnT9k6271OPc5AiuAcJ8DtXrbagRWI/Cuj8DbAoRyRkJli/nCtnc27cL5dXv55as2my1sfWPdBoOhHewf2M7ZczaZHNpiNgMd758bjdZsfX1sd27ftu2dbZvPunPtncI/6eWwYrg2sIcub9nO5tiOZzOzam7bOw+DIZjN7ljb7FtVr9lo7aK5BuF4esNam1hdO0A4B1DhvzObWT08Z4PBVteuuTX7nW9cgdBwbW3dptOJzdim2UHQaG1sdV3Z/t6ufepTz9lwOAQwuHbtmnmpI1oqr1oevOuLcHXBe4/ACiCsVsdqBFYj8H6NwD0Bgjt5r0rYWB/bYFjbrZu3wRBs75wBCGibBk2Qdvf37ezZ87Z755Y9+cTjtr2zZfsHh/bKy6/h97dv37SdnS2bo0mS2XhtaE89vmkDlDLyFRUORZfgYKIenrHR2hlrF8467FptCxuunbPKHX4zsfn0Fj48HJ+3ql63djGx+fEtpBPWNi4iDbGY3bbF9MBmx3MbrQ/teDKzl17btemsttHamu3v79knPvGsDeravvXt18EurG9s2O1bN+3y5QdsNpvbaDQC4Ll9+7YNau+UsHqtRuB7NwIrgPC9G+vVN61GYDUCyyNwb4BQew5+bvPZzM6eWbennjwL2n7h5QdoKVjZwWRhV65cs/H6pk0nh3b+3Dkbr49tejy1mzdv2/r6BsofP/LEedveGpQGSFVrm2On9Usvg9LvwF+lK5JrDqbHjQ1GZ6wanLOqdbHgde9vaMPxRbP6rFl7ZIvJm6D6h+sPW1VvgFmYT99y9YONNh7xEx6smV2zxXTPZtNjW9tYs8nRsb38rQPbn7RW1wM7Pp7Yg5cvI72wu7eHFMLFS5fw3OPx2GbeIGk+t+l0iu9yJmX1Wo3A93IEVgDheznaq+9ajcBqBPIInAgQoCGoWrt4fg0HJA2HlW1tDGw8GtrxfGYDp9qbhd3ZW9jzL9620XiM3LxH4jhewXsT+b+hXZjYM0/s2HmvcuB11/w6x/PS7MhxA/L/BSg4g++dClFOWI1L9UF7VHoS1Otm9ZpZO7d2cVhgBYSITv0fW7PwA5VqqwdbuP+2mVrbzK1ZuLZgYPNFUwDCUYNnaLw7oh8zjfsyu3TxElIJ/m8HBfVggGc6OjpagYPVvnlfRmAFEN6XYV996WoEViNwrz4InjqYTI7swctbtj6uEOR7ad9oNADtPhjV1i5aO5w0dvX6gQ1H49Aq+EFLdVWjzbJH5J7jv3Rh0zbHRXfgAGI0dD1BaWUMB+0HOc3m0TMxdTp4m0kqjZVKpQMbGoVAoHRi0F+8oqF0Z2jt+q2JTZyhGHrvg8KS+GtraxOiRb/n3d1dO3f+vE0nEwAf/93qtRqB92MEVgDh/Rj11XeuRmA1AsVfn9AoSfoD1xm806t0I+wctXy0/06nMqqoMf83X/fkcxbf6Zu/87+jmZMfItWWVMPW1hYA0fr6OhgEP2Ph8PAQ73GAsHqtRuD9GoEVQHi/Rn71vasRWI3A24oUTxqe0jFg+eVgwB1rnILo4sHhAAK/e5YEvp/VAJWVg5Zasw0HBbOSVijPsDpfYbUtTs8IrADC6ZmL1Z2sRuD7bQTesQ/C/Q6IR9t+Mb38oKNT3W0QTZ+K/qCkKCrc76rHwf3O+Op934sRWAGE78Uor75jNQKrEThpBN41gLAa3tUIrEbg3R+BFUB498d0dcXVCKxG4P5GYAUQ7m+cVu9ajcD7MgIrgPC+DPvqS1cjsBqB7+Y0x9XorUZgNQLv/QisAMJ7P8bv9A3PmNnvryp7wMy8Pdu/alv70jt9yMw2zewxvs9PkHnlHp/5WO9I+9fNbP+E9543wz3o5bVVV/gPPz3mwn3ck9dsvXgf7/O3eN3Z7zGzH6sqO2NmV83sn7WtfbP3+XUze4K/m5jZqydcf2hmT6ffv8Cx8c++0+s2vzuP50mfOTAzH7v3U972Ts/yQfv7ikF4F2ds2zdUZeaNoWdm9lLb2m/e5/VlSHxxf/sen3EDsZX+5p0gbp7wXu/36KdS5NcbOLnC20eZXb7Pe9Jn7uftfk1/9vNW2ZGZPd+29tUTNuujNIZv95wPuciVX3qN93z2Pm4iX1PjedLH3Ehex6kdp/+1Agjv3xw9Z2b/dV3Zv1nf3Rr+19rW/tSisS+/ze391bqyP8bP3mlb+8iiMQcK/debg9p2eH6N/+2vLBr7BVdQ915/u67sp9K9+Bp+er7Avv7Pqsr+k3u0sM+XcQf68fniHZ3ov1OZ/Rd1bZ9I96Xr/H9Na3++aeyL/IXblG8PBwBE19vWnvbS8N69//7K7B8MSifavba1JxaN/eNBbT96wvX7z/3Xm8b+dNPav2Fm/3D49t1sX2tb+4tNY397hRLelY2zAgjvwjA6Cv65qrK/MKht3Lvet9rWfnbR2K+8DbL9QTP7FS58X9c/Np/bb/OA6ny5X6or+yPJQHypbe0nTyjD/ANm9vd6G+mT8wWQvUcEv/wOm0zf+dR8Ye6g3+7lQOQX6sp+5gQj+vW2tT++aOxX0wV+dVDbZyAMNfvcbG5XegbCAdDrg9qG/P0Pzxf2b1eV/Zf3YfwcmFyeL9D14sZwYG8XnbjB/ktNa7/YloPET+trBRDen5n5UTP7f3w/p/XpgNz3t1yUO8EfmS/sG/e4xW8Oanskff7nFwv7pRMcVx8gXGvNPr5YmI620+W/NqjtyXS99wog/LHK7K8MBmAQ/OX7w/eWAwDJ0PfM7A/OF/brfM+/GNT2A7y3n5ov7B/1xuQvVZX9ce7h/2bR2J9vW/tn7wFA0Nf+h4uF/S8rkPBdb54VQPguh9A3zT+tK/tMcpBCzxnr/sxiYX/3Hgv2b9SV/eH0+d9qGvsJP1K6d299gOB//sH5wp7vve+vV5X9dM+hvhcAwWnFfz6o7VIyWs6cePQvQ+LG5Y/OF/Z/ECD9xbqyP8Fn/d+bxv5Is/yUv68y+8eMNHbb1h5bNPYn3gOAoCH7+01jf/iEsf4ul8W79vEVQHjXhvK+L7RprX1lMLCHCGQd6P5784W9UlXmVP7/VFf2b3EN325be2rRgDHMr2fa1r48Gi7B/Bfa1j53AqDvAwS/zh9aNPZPEovwqLX2jeHy9e4FEH65ae1v4ZTau1/u6P/B2zhOZ95+azgAEHI79n81jf1c05j3sn3KzP5mXdmP8tmvtq09s2gAIP7TqrI/R5vzj5rWfir10HFb8OVBbc94Yzoze3C+ME9FZIDwlxeNffUevMY3WwNbkRmE/7tp7Weajqd41Cr7xbqyf4339mrb2idXPWzue83f640rgPBdDuF/W1f2s1yUXiL5s01j/2dbqPz/vDL7OTo730SfmS/s5RO+74VBbQ8nJ+ub6Mn5wjz3ll8nAYS/tmjsz/ToyK8OanuqF5mfBBDcqP1ZP8L6HmPwd9oSOdzrJTbA/+4R+R9YNPZ1T4O0rf33g9r+EMfFr//cbG6vVRXSEL/MMckGTt/xX1WV/UkaGr+3X2zN/lQCCF9qWvs79zB+Pm7/s58SnhiEt9rWfk/qhOkpkD9dV/bTvDc3MU7T+r2cxtcKIHzvZ+Xnq8p+gWvw5ba1z9AJ6k4c+P/2oLYnuMd+YrGwL/ecbo6oP9+2oNJ9fV6aL+4CEycBhL/RNPYnE3j+H+rK/oMeS3cvgPA3m9b+o/tocnfSyP7aoLZP87n+WtPYn+kBeHf2/3BQ27/O9/yFRWN/uW3tgrX2KgGMs6bPJuf8Qx5IkLV8pW3tOf4tA4Q/uFjYP32HiD8DhL/ftPbv955x2LZ2bTSE7b1jZo+szs75rjfPCiB8F0PoOcrPDwcRJTgd7g5SL6dZdWvxAAAgAElEQVTo/mpV2R+lsfn5prFf6m24f7cy+1/pMH/DnRk33s/MF/Z37wMgfNWNT9qMP8wUQjorE1c5CSA4inc0/53k4n+6quyv87mutK392KKxcjpGefmz/7nK7M/y2b7MdIiiiaf9tFBuYgmy/DMvkZFwUPGx+cLetGWA8Pea1n76PoyfUgxvtK19tBdJ+Pf8v4Pafi/H+gfnc3v+hJTOd7E03rWPrgDCuzaU932hfzKoIczz14/P5vZbJ+TJH7fWHuXvv9a0tpve43qZV4cDMGn/smntv2sb+9+4D/7HprH/uGcDMkDwHL4zcli37uCqCimNK4Pa/n/23gTKtjQrC/zOcOcbw4t4Y85VlUNRBVJFQYsCMnXbToylLaC2uEBAQQVFEFGXNoo2TUPbLkVZtNKsZUs3uGyBQhsVhxZthJqHrMqsHN88xnynM/X69nDOuTduRLyXL96rl5n3YJnxIu495z//v/+9v/3t4T8VBPiPeYF3B0Av4BF283MQXitAoGE9H0dgLhV1AkOMembu9PU7gwD/zPY+Qw2PmA7591Eo+ot2nrrQQy8/Hgb4NgM3P5nn+B57/+MGCOx8d525EEGAawXwlkWL/NuW+YM+uAAIdzGFfyYM8MMm+D+X5/jmmY3PWzME8fVmrZn9++szKJkU/eexiyOAL00z/GdD2peMIqsb7zqD8CmidDOyZCY8Q/onwwB/iGdpAPi1vMBXWvOq4wYIdSX6J7IMZBtmLyYuvuiHYQF4e5rh/ExC1d/Mcvx1Y0C+CMCv2PvvWniBLEedQTgOgMBx/lwY4veEqsyeSbMDE0PvQjyO5asLgHAs03hHN7kQRTgRALeKAo++Bpr6vQB+xuT4W7MM/7wAXjLDy31Jg1pn5uoA4R9kOb7djO/XpBn+NYA64PjTWY4fDgP0DwEIFwvgE3Poem6zrzsEXHeLAtcsLPLreYGvOOCzzBO6ao4R9+djaYZt5iIFAf6Cjf3n8xx/1PThf4lCvDPQE3Gohy7YatQBwvuLYm7C9ZUC+A4bx2EMQlAU+EthWD7/X+Q5fv8cfXxHgrD48PyzGBbzcnsz8H+EIb7GDDCTlT5xe18rP9VgQp5l//7LvMB78xz/IgzxO+yen59meLZ2zzpA+P4sx/9om/Ef5jn+lG2Gj1is71eLQkIUX2+ezTyAQA/+H7F75Jxx/2xR4P87hPL7ZBTiUaNNz84ovPrt/kMU4j02hq/IMgFIXxQAv2IeFUuTHjba9YeCAH/W3ulHsgx/zZ5fBwgvFsVUbLb+rDolexiD8AUA3hdHUhEyLAo8nuXgOB7EawEQ7u+qEMtvx5qgNxvHZnXNL8xJlv35vMCPGMgla8AQ3yMm8wSfNIgeiqRI//Y0w0dqr1UHCNynH7IcAHc6/lIQ4Afsue9IM9DgHgYQDpoxPrt/CO3Ock7mH/D6Z3mBP3wImGAi8Yrt/7ekmRh3Mqq/Yd+/CYC/p5PwSWNTZtnO20lSZCXYZxtIqwMEVoMwR8kvgqimsRfUpd+c53NLRe+vNL3+n7ZgEO5iDf91GOK3hYqMmT1f9wr+cRhIklP9YlLPN9ZQ7fdZ5QM/41m3rLf+RVMGf4PeQm0T1AHCl2cZ/kEY4ukgAEt73p7lOAPg+TgSSvLPZjm+OAwOBQiHvfqfzLJDS4XORyHW6MUUwOOHUHn12OlXpxn+jZUtMpSwavNDpUcG5DeiEO8ItET0oSTFwP5eBwiHjblXU34OEAiCrtTmkKDAn8vf/9E8x398gLOdFwDhLjboa/zqQeDyUTN2s7f9ybzA95gxrRvJf1cU+L1m3L4UwC+b8fyVPMfX1fRAHSAw5Mf9z5yFi2YcaYw7Fl74b/McV48ACOcL4GPzYH+BqeTB2fc4hQIvx1pg7A7LvCkkeLphFR6z+VK+h/l7AoTvDQL8GdNnXq7o96wDhN8oirl5QMwh+k6bq9spc+Rz/zfLnXgtodPXKDJv2K8tAMJdLO0vRyG+1FArveh6c5PZkiQ+pp68w3jf5ShE2wwiNxPjfcySfqVGs7Ne2GunZwHC70aA74tCieWT5iPF9x1RKAaWiXd/OwoPBQi0i+xXMM8+/lCe4/8+xHC+bDHRzQJ4+BCA8DNhgPdaGOb3ZBn+vd3zb4QBvtt+zxDFfymA99t7170Gztv3BMBf9xpq1lzPqRHn595To4OPKnN0JUiAMK8pzV2IxbF+dQEQjnU6b+tmH41CMEeGYb9zSYqRAVXG5n+//bzOJGQzfHWA8FeCAN9vvycDsWGySrbwHbUkw7dZfg0HNAsQvj3gvdWTp+Pw9+3nbyB4IL1/BEB4rTkIrFy4EkeS5EddxSqAeQnMbOxEloMX54jJgO4cfX8Y4K/Ye5IFZN8GziW3/W/LMny0plPuJgfhV/ICf6LGcDwD4O8Ye8px/dUsw//0AAP/2xLEB+BDAhD6vf7UVGZ5JocXHcelNy4QhYc3uLjTZ+WFHqx0nOOM5tTyHzauvxcAf8QUxn+X5fgXNcbgWwNgmcqhKPB9kdLZdYDwaFHgWYv3sQLg2ZrRY6KP9wH4+izD/2OrUwcIX5EXkkj0Hywc8TN5jt8dhtJp7ZfIVBTA/x5UIYZ35kXZB+Hf2nckSTHPkeT5Hc+jhzI4P++OctxoRBjnEQYjrd72dXmOjaNsXr4krzrQMZny39k4mOT4vgL40/bvn8gLfF9t4r8bhTRt4XWnOQhkbX5HDTiQ8vzRWqkWS8/efQyKhLfI78G+QePOuzT01rtYPUtzdrzXlY/MS1m7s2cQjvJQtOPbt0V56NqdjeTgT/90ALzXZLaeVFf/xpdZmIq/c4AgBjYKheo+6vpDeY5fMB17KUDZKOlcngsD+GoYSpgj55H0dr+n8wJsXnY5wKEhhtcKEEIUeCmOxUnh9Q15jvfNsQM/iAJ/wfYje7F8Sbl/CnxBEOBXbbwZe4wEAQiOqN8+fyaf424Awi8WBb5pZt++BwX+nY2Lpd/vuc0chOO3Jcdv72jrOM5j3Tc8YPEIOy+HMD799NNTU33p0iXkryE5Z96m4I3b7RZOnao3CT1q+xz99+vXrmM0Hh35gkffST8RN2KcPcso4+1fXzMc4kc2tRjxWhjiy86cmeogtru7i72NDVyKY0lWrAOEfxgE+IO30fznZ/Mc32KCXgcI33DyJD7caOAXr1/Hk2laIn0qlT+3uopf6nTwtzc28LtGhAHAV5w+jYtRhM9NEvxfN7SobxwEeOfaGi5dvXZHcJD7/xeaIb4iU0X4S0st/OiTnwUEoQAiGoDRaIBHb27gn9qz+Ln/6swZbNkGZinkB66wRkGvrSDAirEZX3z6NG6Y18S//fHdXXzvDvOl7xwgzKti4Fq8arQtQdYXnj2LndtQ6odJBjfwxYuX5P2P6wqiAIhyUQx3ct0rgBDe7NzJMOZ+lkeqX7vKpr3HcxFwnD59Gq3WbIuy137/zxmP8fO3tEcp5YONf/5V7Xbs/0EqnXkAvBwg/L4gwP9pe/qDeYGfq61bu93G2WYT37an2S7safDVphPff+UK+iY3n3f2LPaCAD916xa+ZFz1Xfxgo4FvPHlSPPEPXrkCJhQedxVDo9nA9/V6+Iu2126FIf7g+rqUL/r1u4ZD/Ojmphh9MpdfcuYMNkNgNdxGI8gQFQX+6eUEJ2ZE9u/EEf6COQ9+r7sBCP+q3cZ3nWBv2eqi7vvw5cvCgFyOInzZ6dvrGbu1tYXt7Z070oGHSlcAPPTQwwhrpxu/dmnUbyZJgitXrh7bGLlvHnroIUQ1PTtvjM1mE8EzzzwzpdUuXrx4bACBD221W7KJj/OikjlugHDu3GyD4sNH3M9z/IerV2Wz8vqJXg//68pKSdmPdnbwd7e28HvNKDpAIEJnVjMFmij7783Q/FQ77K1AdUzzznI/qqtZgPChZhN/ZHcXP7jNHGK9uC+/6OxZbIQh/pdbt0qA8JVnzghA+C2TyRRA+Oy1NVy8A4CwvraKx8+t4S2bF/HTV1N5h3EY4n944gn82upqOY71JMGPPvcc3mJK7id7PfzYynTD5L+1sYGvHU53WqDi/JoZWfnWnZ1jBQhcrfeFIb7c8ke+5OxZ3LxD9mhWMggQLly4eMwAIQSi7IEBCNEtQqu7u8bj8bEDhDNnzhwrQKAy/o6rV/HnazLxCTPInAG2H67zMw4Q/nEY4mutMoals8+bOqe8LS8v4ezKCj54+XKp5L/21Cl8stHAb16+XAKE9xAghCH+wN4efmiL1fx6/eH1dfymgaAPXL58KEDgjqon8NVXjBwQy6JnWyHzMwQI586exT+5fh3vSrT1E52I5+NYxrSWZXhrmpadJP9Jt4sfe+QhdLNNBGMbaxjjj46X8MdmQOCffPpp/CZyPP/c85ikih7qAIGhmNnOkT7ujxUFvnqm1TIBwp9a23/6xL+9ehXnsgw3whBffJsO3+bmJna21QE5lisAHn74kWMFCATWxw0QHn744QVAuN0FJ4NwpwCB9/7y4RA/sVFRrzRwn2g0xHB+9niMt9XiZA4QvioI8LPmabCK4LvmUGHvCwN8mSmo78ty/N2imAsQ3pYkeN/1qiHyv2y38d22cY4CCFRcr4Qh0gNyCL4qy6cOXjl1cg1PvPVtwM5FYHgL37mZ4Q/s6mbn///hfh+XWi0sZSnetbOLZbsvPZGvPH0awxkj/FSS4BeuX59CxT/d6+FvzQCJOkBgvkA96bC+vlRpX5Kx61vVankeg8D3/vthiP/elPmXnjmDa0cg6aPkaAEQjpoh/fvrBSDcuHwZPxBUZXOzb8fuiv+qKPCnwlAYhB/Jc3zC4vfkFNnozJPkHCCsrq7ir2xu4psG2jHk7y4t4e8sLc0FCOvM17l6VXoppEGALzxzBru2f44CCIetBB0N9jc4CCCQRaXj8zc3NvDf1BiM+j35Xv+o38dPPXQOnf4ScPNTQGbmvbOOJ6NV/NQnq44wVyLgmx7uIM9TpFmBj12aIMluv9Uy2ZgvzvOpTooHAYSfNXAzDAK8+zYdvgVAOFhiFgyCzc1rBQj8+nv39vCXt7fRnkMvczP9+TTDj8eRhBhYbfBvwhC/1einL0wzfHTO+rAX/K9arTFPj/uvs3wuQCDb8L6rV/FWM8Z/bG0N/7mtpxAcBRCOUum/Jc3K0+L6/S4+6x3v1K/cegFIBwKCvnMnxtdtDcu+7bP3/FQjwPeeivEC1pHPfIrMy69fuYKGzRsV6XtPncDl5gRMa9otepiggTpAOGzMVFEsmaT6PazMkc/5gTjCX7abfcP6Oj50lxT1cQMEjjEkiHwDMghX74CxOkpGSZXeCwbhsnj6AZj89m1BgHeFAZYAKR3+t3mB/5l9OgBJtP1/GV5CgW9giI2hROg5H37VAcIqGwUZ40ca/O8vLeEvbm2hZXvgh1dWxGvn9S27u3gsTcV7/5Flnqeo1w9ubaFZFLiyu4u/lOtZIr8vAH6nPf+wOWOA4wfz6eTDcysR1noRdicBii7DGPoeXzwa4auGQ7wtTUW3MQxH5+fnej28stTHyqpR/DeeBXKDQ6tvRSvu4LsuXAAmO0CW4IOtAL/arQ68Ikj48IUxvjtg++aD8zU4DcvtELeaAX6iGaB1M8G3IUSv28WzjQZ+tlc/uk7f+msHA7x7omDlp/p9nK+FRw6alwVAOFhiBCCcPn16KsTA2PmRx30dtXPt77xxFIXodu+enqw/cjAYIMuOL5mS2Zq9OQJ3m6+Jbp7jrw2HUp7EreynOf7pvBAj+8+jUE4x46lkP1PLPfi6Q2rwf461xhbr+/o0kwYqPLiI1w+023jOPIrfOZng21PdoN/SbmPTfv/nxmOwDSyv72i3cT0M8VRONmJSHZZgLzicFMhmmIxvznI5PjVgrsI73o5Oz4jV7fPAyBpBrz6Bt6YR/vili3hssCuKjk+8FQX45V6IX+ypYhhmEV7e3K8MfnwwkKNim1GAnVaAH1qv4p1ZATx3K8bXThL8kTQ5Mv7GOX9vlktYhu1gGYtkPfY3zuTTUCZ/exjir9pwfi2K8GPHABD2do+vmwLHKEsds0/FneU13KschO0X5p1FeLs7RD+XEcAN2dn/eC7ODXXLUbHUO3kac2j29vaOLb+JY6SiPc48CQJS6umjksyOeu9GBLzr0epYM0ra1WETW0Pmvsz/dhxHePLJJxE4IKkzCOvPAFETyMbAzdlTYrjqetPztxJc2Z7HY+gzW40Aj63FWO1Uye1XtlKc30zRpx46LgEyVmsyOVq/HDWX/ne+Yb/fE715XJfK5ODYXpsy2e/3jxwj91XQ6XT2icLdCl59so4Nbeyb7eMaJUd4Z0r49hf+wRvjk6ea4jHUL2ZLf/pagu0Rq0Om3251dQVPPf109Ut6Bpt2qsTK40BrGdi9CgyuaaJiZx3onbakxRwY3QL2ruMj5/cwSqazl7iHTvZjPLHWUINYuy5vUiFUx+Ac30zeu/U+rjHqEhR4kKoYLn7ouE6sOK5ZunfryNk/vlHeu3Eexxh/yyMttOLpzTdJCzx3bYLBZH+C7EPnzuKRRwnr7dq5DAxNNtafBqIWcOs5IB0DQQT0zgBd5gsEQJEBgxvA4CY+8MoeZnPhSaw+ciLGmeXKUbCdgOeuTLA1OhhU3L5OnvfJ45hJve+9syXHJ5O3O8YwCBF0O917ZR3vbs0W374nM/DQaoyHV6c3oD9olBR49vIYlkckv37iicdw6jTbMNUuVwCdNWDpYeDax8iJA1QQVAr7rgKvvPQSrl2nT69Xtxng7WebiA7I9v309Qk29u4sg/+eTNhn8KaLPgifwcl/kzz6mbNNofJnLxqFvVGOZ69Mpw++4x1vR4+5B+VVABJmyIDlR4Dmkv6b/119vHa2a/0rBZ599lns1li39V6IJ042MU8dcCwfvTjGOFmYqvsplotGSfdzth+QZ73n8VZZWz1vSGQQiNRfvJ4Iwn/HoyvonasxCPxSngAbL6hSIK1ImnH97QoSsgSIWAg1fW3cvIlPv/AimnGAt55sYGmOUqp/gyGPD7x697T2AzLtr2kYC4DwmqZt8aXbnIHZEMO8r3Ef3tjNcH4jFXbx8585i2CFfSVr12QP2HoZCBvA6hOqG06+Xat6WO4Z7ndIXn35ZVy9dh29FvVBE+3G4ZT8le0U528t+iPe5tIey8cWAOFYpvH1dZOHViI8tLqf0p99izQvcHU7w5mlCHFvTb2D+kVwwPBBMlDqkBUbqZUtMl4QdzTc0Nbyx/FwD5sXn8OpfoyjqgoZY33pRoKbCwbhjoXrXuUgXPpQxf7c8aAWX3hgZ+Btpxr7Qo7zBjtOC1zbTvHoWgPonwW6M71tWMkwvKUVDQQFDDHkxj4w9NjoauixocmFm9evIN+7ghPd6kTcgyaJIIVMBnOlFtf9m4EFQLh/c/3APOktJxs42T+6syXzBS5upnhsrYEGm/Y0+0D/HBBXSU0SJ2fCIsFC3FJPYXATGNW67nVPyveGg11ce+U5nFuJhUU46rqwmeDy5r2KOR719Afj7wsG4cFYhzfqKLgLP+tcE73W/hDD7DvvjHLQi3/qNNN/ATC82D09zRYSGAxvKnPQPqEAgflJiSXw0nFgSLJ9AjeuXsJk6yrOLEcHhhnrY/jUlYnkSC2u+zcDC4Bw/+b6gXnS5z3WOnRDMqxwdTvFpS2lFD/rbBP9ejiAzECjo0qA1CI3/Ym3atyRtCJpxr1rwN7V6p1Xn8DNrRFefOllsIiDiUhMTjys2RhrpT90fhFiuFPBWTAIdzpjb97P306IgQmLdBQYZuC1L0TJXANWLpBFHO8oU0CGYePTwMl3aLLy1quAN1PiTdafxiuvXpScJFYwPbEeY6V7uNNyeSvFhY1FiOF+SusCINzP2X5AnnVqKcIT6/tzBGjvt0cZnrtaVQ5wyI+vN3B66YDNy4TEtSdVCRAgkHakcuC1+RIwqY5CenGriZsbVddHAgUmKXaa7Am+//rE5Qn2xm9uj2HBIDwgm+YNPAwa51NL+3MEWOZ4fTfFqzenjTL37IH5Q2QXTzypOUrMS1p9izKPZBZuflKZRl5xG7K/97RpFK9OI8DTZ5pz2UXqJjoLDHsurvs3AwuAcP/m+oF5EinF/gylyPgiKTz+d/ZaWurh7U+cAVjOVC8Hba8Ay1bulI6AW88re0AWgRdpxY0Xy9t95MJ47v07Vs0Qz9AJt/YyvHB9Gqw8MJN4nwayAAj3aaLfxI95z2OtfW2Bd8xRmGePz54+hUfXW1Vpo89d7yzQs7wEsodkEZmDtPSQfmK4Aexc0J95euuro7m9Ftb7Id6y3txX9vzCjQS3jMV4Ey/XfX31BUC4r9P9YDysHmJgMuDzB/Q/qI/2mWeewvLKatUxjYxBvXMbm6KwOQp/d8o6LtJruP5xuQ3pSSYdHnQRG6z3Izy+FpfNO0htsuPam/laAIQ38+rf+3fnqc3vrjVK4p57/pomAx7kq/MQos/93M9FzC6FDCvwIpPojUy47298QkOQXgbNz7gTAeDT1ybYGBzMDsYhcHYllnwlvxYhhnsvD7NPWACE+z/nn/En9lsBTi/FGCY5ru1k+5qVzBsgT+T87M/5nPmdt5i5zPMZeEnt8xPVLa5/DFme40Ovjg/szFZ/HuORp5cjSYq8tJnOZRw+4xN4HwewAAj3cbLfpI9a64XSsXBrmOHWYH+jtHnTsrq6jKeeZiPqOdf2hSpJmUnNTFLmxeqGm5+S5ksML9zOwacsfTy7HAtYubChZdeL6/7NwAIg3L+5ft0/aXmpj2fe/vaap1Bo90RSiX55Z0X5d4H08kfxiStscPK6f/3PyAssAMJnZNoXD72NGTh79jQefYyNkOzieQy7l6s27Py1t14WgDDG6Mon8fFLk9tyFm5jCIuP3OMZWACEezzBb7TbdzttvO2tj6HNEw/IHPghLXxRljhSIVjoYW9nCy88//ybngW4GxlYAIS7mb3Fd+/1DJxaP4FHHjqFON1T1oDhBb/Y74DVTeIrFNi4dR0vvvjKAhzc60U5xvsvAMIxTuab6VaMDZ7qR2jEgZYqEhSsP4O8CDCZjHH50iXcuFnrhfBmmpxjfNcFQDjGyVzc6p7NwFvWG1juhBIalFQEdlJde0aOkp+MRjh//lVs7xzfYWb37EUWN56agQVAWAjE8cxAdVDb8dxvcRd1vBp33ihq0QdhITyf8RlY6IPP+BIcxwAWAOE4ZnFxj8UM3KMZWACEezSxi9suZmAxA0fOwAIgHDlFiw8sZuAzNwMLgPCZm/vFkxcz8GafgQVAeLNLwOL9H+gZWACEB3p5FoNbzMAbegYWAOENvbyLl7ubGQh55KT1gA5qzaDnt5Cpgq5sPlUcU0vYOwUIURhh5cwSeifbyHm65jFeb9bTHEVJWhOguhxwag9uJ6TdAo97DW53OUP2MecQ8gKUx8W1mIHXMgMLgPBaZm3xnTfsDJSGIAgwHrMV7Kxy9VMj+PuiBBAoAiAo5Fftdkfn5xC9fLtK+zCA4GP1xYjCGMPtARqtJt72nkcxYue6Y7zeTAChPrc0toNBdWaAYEVZ+qACCFx7WXOTAwTgCSOUhcNAwu3KwWHLOCsH7HQ4Gg71QMVuB/miu9Ax7oI3160WAOHNtd6Ltz1kBmgI0iQVu86qzW6niyzjQTW1lGz5o4KEZjNEt61eWp7mCOMA7VaE0bjA9ZsDFDQWerepp1Khs01tlh1doXAQQOA9irRALkyF3r8dhTjVaeH8rS089UVPYZQMj3W93ywAIYojJElinf4KdLtdM/LzwWIUBeh1QoRBjiwtEAQFmm0eYRzjwuUdO59ovxxwcRrNBrL0aDk4dCEDnoGUoRC5DBAHBR5a6uDSxjbCdvfu73+sUrS42etpBhYA4fW0WouxHusMUPijKCpbyGcFMJwoICBB2+82kRlgkHBDjRKQUu+Qhp40fiH9H+i5nTnZEL/y6o3hvhMqxUQQTIxyJHEHmbATqtTrlAM9Tjca8wACx9IIG+hOxtCuM3qflrSp7uHjt3bw1t/6NgzGx1t3/oYFCAH0XIFAOQGiw73RBIVxBL02jzLOkWcFwmgG7PEzAdBscA1y5Hkg4LLXCXD6VAcXLm5Le+DZ00oFagwzpGEbVZNRlwUFImQXCFgPvDjuRgOdIkGcEtjy/wJwiA+v9PDJGzvI2x1kyV0CkGPddYubvZ5mYAEQXk+rtRjrscwAPcRIYrQhdgbuZQeI223E3a40g8uGe4jyFK1mjDTLMRjx0CgxH/I9IDOl70kK+pcza20sdxsogrw0Ckv9BngoTlCEcgzuZCfHxat7SDKNYNMQ8LyKRhigCEIE7Q5Ssg+MWEQ5cgKQLEVuXeriuIG9jV28ZXUJPNRG7kIvMgCiPMC438fyE8sYTGq0+DHM3BsNIBBoURbIxgxGE6Q51yxAGMdoLS2D/8pGA8R5KvMcRhG294a6LjKfyhCpVFRywH91GiEeOdOVX/vf260QnTYXjMGHDNlugms3J9gZJOUdkiwT4BkSdTRaSNmdtIxeKFPlzBOV93A4xMNLHXTjsAx3qBwAN9IASREgTQ8BGccgF4tbvHFnYAEQ3rhru3izOTNAxoBULM+hD6II7eVV5FTGpP2bTaF8i8kIu9euYXmph9E4QYIQUaerJkDsthuGWgTBjEY63EM+Zvy3QFDQuyzw9FPr6LYKhIUxDnmIdHOMYBIIjZ0iF+aiz2cHIS5vD3Br6B5hgTAI0V7pYZKS9s4RRzGGuyPkaYYgUMMgzEQQoBFHOPmWdfROto49Oe2NBBAIDuJGjO2dXZGHzsoJmXv+TCDQYuwoTbB3/Tp67ZYs/PbeAI2lFZlzgWVlAuu0HIhFz3JMdjeR55nIAa9Tp7p4+Gxb5SBSMJLtpMCQSa0EeAV2xwl6zYZ0J90c57i4uSfyRpgoOQ29vgAZ5hUQ2LBrqQAGE06RAxRoxDG6vT4myZhYckwAACAASURBVOTQXJiFkljMwGEzsAAIC/l4w84AFehUAlcQIKUnHoSI2j0gDNFZ7pcGn0o2Gw0xuH4dK/0+tne2Eba6aC6tIO60bZ6cePZp80RFNfbMVcuTMcaDoQIEAOO9DQRZin6ngccfXUZE3zQHhjtjFGP1PhmoEIK5KNBqxNKylizCYDxGt9PB8ze2EXRaYih41yiOsbuxh35/GVmeIhmN6Zii2Y3ROdHCypn+sa/r6xkgaIiouoIwxHA8RqO/LOvfXVm2GD4/Q7SXYfPSJZzo95ElE+yNE7SWTqC51LccFF+xmhw4gDRAEBUp9rb3RCakomEyQDraQ4QCT7/tJBpRjrAAkmGGyW4i8kLvX+UAIgOtRiS5LDuTMbrNFi7tjrGTUXQjZTvCEKPxCHHcQtQIMRmOMEkSrCwvYTIhoFxUMBz7RngT3XABEN5Ei/1meNXZ7PPxZCSZ5ZpcXkhsX0ysxJuZSCBqtswuCMQ7S9FoxKJo6S2SaSjpgxq1PJ2AWE9I1Hi12gt6h7l8lFENnl2htDNtEA0RKQn1Rv0OEccmvwslOU6y0ukxRnEZA+dnkyRFu9UWj5Je5NJKH+NkiEWrZdrwKuofxSFGI1Z0VHLA5M5M5lRiNNBSRpMDk5V8kogcZEUuIaAgjO0cMs9HqSWvlpvLaxv0v/xeWexS5JLQyt+3mhJzUhnhR+T3zGKo5ICMAZkEfor5KjEra4QhCBGTCUMhwa4kSyUXgaBhPB6j1+sL07SoXngzaLx7+44LgHBv53dx9/s4AzQENMxFoPT+Uj/G6hIVqXqFbnRFsaY5ctK7CLG7O0KnHYsHpmleWq5mKWtWvsjfk4KuPDI+Q+P/aowKyUtgBnyG0VATw/o9Km4aJhK/moTmn677dvpbNQ+TJEcRBqANoQkYTTK0GwEmoxyTRGPUvX5T7nd1MEHU76IoMinJTJLJAiBwVSOCK53xZivE6RNNBAH5FyAU8KWZAfw5204Q5iEGIwaTCrQ6seUEeLKBJQ/KwuWSS0I5qFJMyR5VcuDryF/t7SSSR9rpRGg0CApcDlwSpjsp1OWAkYNJnqPdUPZjNMnBXEpkwHCYiiQtLbXknjcGCdDpIeM7k5VgOOqYenHcxy28eNQDNgOvASBUAj3bNOQBe7fFcN4kM8BEM3pPTDwMgyGS7URiv/3lFvonOmb01VtvhwEanBdig10mhwXY3Ruh22qCAEOxgXv/5r5JfwOVdvmLARBLMVSjX/0RWZgjozca5uj1WNXgOQvu1YqZmlodepHZJMfWKMVewtwCoGWNmpjX1m40kExS+YyUSTZC5GGEK+MEWauJYZpYSSZe1wChbi7vVL9QmbEaQeYnmiDdTZAnKRrtCGtnl8ygZwK6mqz68NYVOwmCPMBwnAjl32qLhNTAIBkd4/3L/gcuB5qTolBRQaT2wwiRs+wxDJAFOdptAgRlK5QukgwES2ox+sjYA1a57E5y7CapsEOdKJLQQ4chBzIeOTAeMSQRotFUAHwryTCMmxinuTBLi2sxA8cxA3cEEGQDBAWiiAo4kv/d6SY+jkEv7rGYAdpcNwbUupPJROjYxx/pA7cG2B1k2E6AXbpxlv1PWV2OAqw0QrRagXhbg0zc9OleBR63La1+IFns7SgV4yO2ImyhQKTuXM4KByYTdiUsEHdz9E81lAIOO8iZHIAJgoIFbREQMunNaWrjEZIcG5e3cGFzgBFzzsw9pS/72IkulntdYSL4cFZV7O1OMAiBTjPCreEYI+SSX8Hr9RliUGgQBimiKEeSOrCqQgUHSb3IAUMEzPeYjMVYP/JQH/HeGKPdFDvjAhuUAZlq9fS7QYDVGOi1OcM5BmkkparTlzEILgdMYGS/iTiTUkIdcQMIm7pg2VhkLQgaQNBCFiZYe7iJImIkq4k8aCAQWWQlRGByQBmycRkG2bq8hWubQ2yMU01wFHxZ4NHVLla7LQl7yOOKAns7I+xlZElijPIcW8OJyMfiWszAcczAbQMEUXa2eT3fJ0ljFLkL+HEMZ3GPxQzcxgywAqzRkOSsPE3Q7XXB0j9WKGxubOLpp07hwoVbGE1CtNvdqWZFg71tnFrr4tzZHnZ2Uly8wizxo6+lfgvnTkdCQVNnN1vraLRWgXyEZHxd0gzj1sMowghFvod8ckP8yUabv2sgm9wE0k0U6KDZOW3gQp/LnIjxcIQPf/ij6HT6kvNQVkzkNAJb+OzPeQd6bNiTZVLNwCY8L5x/CVmSIyvSEhy8HgGCMzFRmCCK6IQE0k+gAgkHrw/XPC8yTMYjNJsNtDs9MaZ7gz08+tAKRqMJrlwboLe0LL93Yn88HiIOMzz95GmMxwlevbh3W4a12YzxyLkWmqwj5N2iNjq9hyR8MRldQ1iMEcTrCBtLQJAiHV1iv2UErXWE0TKCgvJyCUERIW6dMZBg78ck2jTHxz7ycX4FjVZbgIc4ZkxY3d3Go489grNnTgvOGY6H0qnx5ZdexWg8QZZSDrJFYuLR23nxiducgdsCCBU4yNSLoVLLmRHOGt1pqvQ2n7v42GIGXtsMGDgYDgZYXlnC6kobO7sD3Lq5I4al0+1hPBqg0WyL4U8mE8nm5tVstdBqNpGl9PhzRFFTFLIoemF9D/BWgwBrJ3o4uUbPLUSaj9HpnkCzuYI8nyhACDI0WmcBeorZECkBgQCJM+JRJpNt5NmmeJat9qkaQCiwtzfGxz7+LLrdnjAh/F/G8jiGGZptGfdwsIdzZ89gfX1Nkidv3ryJ6zduoLvURZpNZ6u/vhgEhQdROIbkgpKhoXechcjy+FCGknkG7HjY7XawvNSS+bp46YZ8h3KQpRPJy4gbLUzGY0zGbH6k4LLZbCIMCownQ3S7faHs/XI2Yr+ABuj12jhzuoFm3ECSjoXF6vUfEhA6GV0HihHCxiqieEWYjMnosuSHNJprCKMeimKCZHRVGKS4dUqYKK9D5Hu//wMfQaPRkuRGyi5zCXi1mi2RA/6u22nh8ccfk3fbuLWBy1euot1uS1LiZ+rsh9e2md9836oyV/Y3z3oQZ+NIgKBhhRxROEHMZhykONMImYQXRLXew/fyiOQikHEPJ/l1dWtma6dJgl6/g+GA/QZSNJot7WAnwDWXjPWWtElWKvjcuTMipq+8chEtZv0niZQG0lB4Gdip9S76PQuZmUi7fAcMTLO2nNRutCI/xwHDDRMgaCCOGVpgeeOueItFRDZD+yak/B0yhFEbQcTeBCmyZIB0nGhSZFFgdyfBp164hqXlVezu7uDkyTUs9ftI0gznz1/AysoKtrY20el05GeOm2cD7OzsIGwG4kHXr9cTQOAOp24hc0DnI8vU8WBp32H6RcFBiqWlHpJkjGSSIJZuVMziUzmgR012hmBgNBzg8ccelSqEq1dvYMLchJjzuIt+r4fEmgkt9dtYP8E+BFVegGo5yyMJIUAmipelqiFEipBywPTURk+eX2RDFOkIRRDJ7xiYyLIRCglFRYiaLEEtkCV7yMaUISCMQ0xGGT7y7CV0u0vSv4CMyJnTpyTJ8ZVXXkWv15MqBcrumdOnhTHb3t6R9yVQWlQtPNiqrJ69d68t53HNxG0ABAUH3BTcwGkayga+Hya7ngRWbdLjevU35n2cLt8fTb0dIr3KsX8QZmc6v1tH1Gq1sL29LU2MVpcjaTgTRkxMa0h2P+PIL71yHUHYFCPBnK6zZ88ITXvh4iU04qYAByaUP/QQjb1eSz2gxdBxGZBQOtpTz5JJhgyksB8V7z4MthDkuwiCNuL2Gck9SIcXEeZjFHEfcYs0cI5kdBFBMUHYXEcQrSMohkiGl5EOR4iasXRH3N3J8KmXt8TrJTOytn4CfdbfZxmuXLmKtbU19apzljV2pHuenBERscRtIiVtr0eAMM/5mCQEbVpBctjFxNTd3V0sLfWxshSj1SC7GSIImvJfrt7lKxsYjpkz1cBkMsKjjzwilP316zcwmaQSlkqSEZ547KQ4QVzvditAv6O9JlQa9PcuBxmTALMAzfZZFHwWhgjym8IINPg75pwkN4FkAxkiNDsPS55CllxDkW4jDzpotB6W56Xjy9KxUxiURoTxIMFHP72JZqsjCanNVgOnTp0UguHiJQKHLjqdroAHghqCBbIIBEIECHd9psMRm3666qb68Lx9Ov9WR63q/dU688Z9eyOsZqJW03Skq/zg2bPKAT8IsAhA6HQ69p7V9JRfZd5ByM0UCpJNEqL7KqxQFW3p4s7b1kcL0HxfgclD9bve3uLNF7LjQG/T73E3o7k3G2F2nusj1Lmsr44Xae0fy+282f41nf1W/RNliv/Mw6p1nze31e90rPT4Wu0IWbon5WmPPrKMVlONQZEHiMIQWZHhIx+/JbXiCncCoaB5r93dgXhdNK7dVoC3P7WC0LLNpRRRehboWNlzP8s0P53/l6aM7dJLZCc9Mg08jGmMIIgRN1Yl3yCdbIhHWYRtRPGSGJdssin/Jb0cxF2hoNPxrpQj0sixFG13kOK5l7aF3aCib7ebJbtBg9BstqRd7mCwJ0aCHQA3Nm+xWe8+cMAJvlcMwsUP0RAexBlOQ9N5KnReiSdDC6T6meHPM4smSbMmI3V9VD2XAKDVbkquB0tXz5zuY4nsDwFixr4RDRR5gudf3Mb2IEMU6cFY/R6bHBUYDvWUTlnpPMXnvH0NzciaFGmBgeQAuBzokck6FsoE/6ZsQUvXO9+xTpyrAgbybBfIBtqvoHlCwEOe7giDUKCBuLkCBBnSyQ6yhP0ZyJ7EAlo+/vwmorglPRp4CFTHGnQRIBI08hqNOWehyDVBEtmT+9FO+WD9V//LjIsyZ+sfpV/m24vpb03r84OcH9d303+vbFa960TJF84c4b1/tLOG/iBtvl8jTtsz/95R8zHv/ofp+oOty6z7eLRFmwEIbo6rY0y5gVm5wA3MjTERgMA4oZZ28eWOGuzRAKF6bv3ltGscc4usjKz8451P6VFjPHwRDhc0zWeeBjkVNruXIZjpUd8eQDDPOGD2vTaH8XxsTfD28c5uyOpZuudnAUd9LK4VDgYhWgp20Kasy5WfZ8/StQiNKMPjj6thZ0yZteWsd6es8OfRKMMLL28ww0CYhSLPxOjyoqHlRYDAhkVveWRZ2t7mQQYmn9ERJxCQ2H+rKQluetnG8ozyI/HdLPDxssbKIy2L44oAoyTDi+c30WwyKS1AJiWL6hGvra2j2Wri2lVlEihm2ztbwqQf1CXv3gGEG/ve3Kn32+OnHF7opz10SXDm4YVJyhDBYftbgSDzTN75jjMCFBlqYGoUww7Mz2i1GhiPUpy/tIO9MVtTE3Sw0oUUv+YgEORJ74gswVsfP4EmEyOlQktLJSlbHAfvxcQ/Mgdlq8yZEtXpSZm1iPV/+yzpnqv+ouWRBC2fenlDGI8gpFxnEg7jtb6+LnkGt27dkpAJmyHduHFdfr7XzIHvAO6y+spUhlZDcBX/ZvmgEp7WvaBtIipduN941mexLk2zOmS+LlYNfJiunb6P2i0tM62Klpw1mg8ofIQOEPSOBz9z9m+VPZuX73S0TdsPiurvND2Oox31eU7b/t0srJwyCNXDdPIU7cQRAQLjbpp/MGE5UKYMwkFJXQf5kr6I0qeeE2ulQv75/RPKxjPWwrZWcqYLNX9CD0eW5gnMmb15d5vFV6WhMEmZ3iDTo3otgORIu3PIB/x5MsdmyOrv5C16taELNyy9T5aVWUc3k4BQ6riPGsm0oZvd/NW3pzeljrGaNW8fWIHMaRmUtjZ2ZDK/yzMIRiM7JXGefLs5t3eh50jGoD4eGhOn5C3f1hdudnmPmoRj/bv2tAnMeNGIsbEPQU0TwxGz1dtI00SqFdhf4bAWuvcOIFw/JOdo/1pX8jeryFQBsyoqDDXxme9KORpP2IPA5KQ0KNP3jsIIg+FAQEHNyk7/TN6GckAZ5+mXDe1toJd2UdSjvDmOY13Ku7qZ9zYiSGFvD4693+9ZJ0jqYZVn5tnwb5qUeLRxuZtBTfMD+/WLMG9cMzt7hLIpK2xzL6dDWP+IAxOB9w2wxkE5uKg5FdMfrxwSdSanAX1lz6YX2m3cUWOrz26dPRA7RmDJ0lbrzlrXv7ProrlC5jzMsWeVAqrvnMPAEu2ZPWWfDM86eLMQfr8CrTRz5fwJQGh32qUMaAtaPRxESrcitpvVTcaL8bcs1eYcpLnmXbMTKsiT3cfEReWm5b0ZLzQgwtPN5AWnVQontAQP9lmtRD74qdOGeVZpucFxRmI/qqxUSB0V69iqbGMVjHJCpVdq5Q3r3jgchd7NhrW9V3m2U7FSHYtuxPp85qIw9S14PLEeIiN0OXuv2KEymsHNTnG6RnWlOoscRC3YWvr01BXALFhRg1/Njm+qalRq2X1uWb6nbZBVYGkYpPXxDINReSnTXgx/v7dXP/KYnef6YmSrmZnejCpzLpuHeyX6TTu0Z3b/+ShrymP/ms8odmnFzBg8ezzoKYOkkOOOepMyc1S+R/TXv1cA4cKHrtVka/ZtjBEyVrFaa2s0uY99Ia1Oz58hgErOxhPtR1CXDdUfVdIg9Q7ltNyrM/Mx1dRQ6HvmK1AOqv3OGD7DUdOsmd/xMOW5b6GrcRignWcEZ034PHJXTuu0+WOuDdksMlkMH5AFk/AY4zAm/2TOqhEfL8rRO1f7qXTuBAhUe9Q/5bravycgnCE5K0N1p1AcElOnbmBdI9T3pHr3HIIy1N6A6jDQKXqinJLKEDtAUDGp2GgFMpUxrGTORlR7z/p6lYBAWnerLg2h+1WBUuU8V0ZXP+e6ed5n6zuq1C1T22y/PTsM3MwFNuU+Mt1VHSVTiwZwHtVRFIDQarfkrVwxckxUy8w9KEhFz7AFWRJLI7r656cnZnqDTSMsGir2MquUsC5qFbJwgWFSlj/jqAktDfgUypzxSOk1e2R6rncyi9zqjINPqEqgGzHFzgqAfHP7Bq4b1OPE+LPgo1SUJpy+mWcVla8D/5tLgx+eHR8hYLw9ZyxVBYKbWNsGV8DN10QFXJ9IBcvpFiMeGjBxJG1MRV2Z+FzJOOQ+KgN+1eWEv0vzVORE34dzXjFX/tlZ2fRx8XtUTg5CqQy4iXkv3lfGPQNwuYFVkdFz8+oA9sM/GAi7RzEvDCaeqgExB9i+T+oy5HPLvxEgSJId497s2Bgz7MGOjwcbpikdcg9zEM5/8KoBNsvNqK1d5UEqLHWvUtkaB9OV7ITIEEc8F0M7Q5YyLOXTon1KnaCKvzp4y+9fAsuSI3bFXukyPbmA4aZa3pR5fUz2o5zIfPs4p0pdp/VH3XucnXP+Ww0A76fv4/vQ7WxdB1TsWNmpW0G76UWyZdoumvOj+5BAwdsnz4b47rV+8Xepj7E+B/57l1NJ5OVckHmmtqEDwgoOo338c7639N/VWwhYchpCnDG9j+skB8l1R0gORhdZUM9agOQh+oXPqO4zbc9mddH0u04zBnIPY0tcDuq20b/r+kzG5CbSAOGsPFUyXoVixWkzOyPyxfEbc1Ppl0oPT9ujyrHwOdN5qsJA/kzZk+a0K0BoNYsoKMCWrp2I/80QS2kXkEQhtidUdEAzBJZZjsSTyRhuyEOMihDjPMLIDp4RpTsDZj0hyI387ISKp1ioUq5fac52ovp7NxIKJOah5dI3Nm+eM69IyHMlxADMTKhOxjTa1EWuMsOnFJg3WykpIiLDihGpK0f52RbgXmzgUgHZpPk8czwCwFxR1agwReSqmDm2CKQymdyXSiyfgMH/TcWqQqZz6HPl8yGGVv6qjINWDbCigPNXed9Tm5SJdTa1iti1NS1/pjFlTgApDVGIcn+9lNXg32NpQugyJPeYUcizSoxgiB54CD0Xgf8WMGQKxOcxLVLd6D53su9njWEFGqc9E/MaSptiPEcZyjFALF7LfgPrMjftxTBgfudd8e4Vg/DK+68oWDLlNqXofJ2MueLMUV7ksCnG8kOgFeXoRjmaQa6HEIUB9niqpXUG7scB2pZ3xJMsR5nqF+qZRKahYsbcVRSZMaZL6N5yrVWuHQgLoJ8yFpQJPUpb5V3ZBILj6mPzAUIVUpsOWSrAnDZMs4amVMJi+A04OeAmIJbnT+u3Wa/0KPAxD7zcye8c3M3qLNWJHkpw50Hv7ODIj66U0Eehp03yfZJ8giAPpZ255ltUYMidw7p+4f6ug2tnB3QdCZz0qPPZuaIeU4zAtVVd5vMlbCftAe1JoXq7fvne4z0V0LgTU31K5saPcje9w2Rh/j9/V7VnKlfVs81O2Jw4wyY6yMLtarAdRO+3Z5XTpuyw7DBztmafVb6LgfV5DpWzkeWerrHLzojI+J5YCYqWAYJZQSqYad3U2mKecR6Oq4Yi9c9yUbbSCLtZbBnkLjh2mpkpff42RQJkThnTMFAxq6fmIEIFTikmN1i+YFWcfH8MpjL46gH6PX1jZgQd9ChM0emCV4Lj7zTLXshCC72rhoB10r6RxPjYxuZzfPHlXWoIrZovD0fsD0UctJFnN6s/2yTQ+r/7s/k+6jUJv2Hj87mhMReFmLFBjfauz2AAgVRZDM0G588O2uzEO6cKdRPpZvT5UISsm7KuGPcpZtnBNkZ6b3K2gSoNXr5mvF+d2cpZc16Y4hf0r8Cs3Byy4d3TqAyCsAYsNcx5XgNb6/KUPR7Mo/fyGCmNiR7RbOEwGYujfY+Tm6dTJl/VaN6p9XaAoGxNKEBX58Wp2zoYUI9J7+3vI59r3D5z4LJzrwDCq++/WrJklTfn4L0C2T4OVif0wglWYhrDfX6DHmTZZptinatgkiKwxlWz+yApAmxMYowLPUjJQbCHoeoKMqc+oTGyEw/5GZ9/n3vKP+VHQbAhHk+89rWdYi6q9axi69N0sjsgbhymDaqfIKp7lCd8CvCuOUVpTkZDQaxeKg/z2A1/f/nEFJ64c91S99x93kv9YnPie0R+L46AzZvkedg5517pERB8aYK5VvxQvyRAGpbt0ak7JNzgHcf5YDkbQ+dJAILsf+raCAXZ7JS+AxnOCmBM7RVWEhV6rgbPweCaS84GwYAbdttf+jl3ZjmLHIiyXX5//7nUX9Le2oFDpV8ElFJfunNFft2P5DY7QR2sjoGOv7R5fB8x4lUUuwIM5qgaO0F9KIxvbcFLJ23GdvLdSwAvbK+CFgfKDnRKhtfDI+KopeR6TK+HCJ45UfGXBH7eSrngcXI8EtWOrp0FBPJOc5z5UR7i+qQpLINsTjMaLvScjLQYI8qbYsRonGgbHM0LBW6K1F9KEKcYZjt61/SmY3yfNKemiC55X3/R0vALwqSnrIZRaCanrmrsxDyAIArAaHgHMur5TjMgivhJ3WgjHB/btMevJn8/dTwdZ5pFuFNrYOENz3/gpuDmIADj6XQsnSKi52aIqFi5aUizB5kKOptdmeaWLcRNzU0V0/grs0KDqh63IvIi1O/xvnqPkEfiyX1T0AhXRleNva6XAgvz6ORZuiFFQUekpHQuuB6yNiGrDXgogXr0rDRQi6LAUvCqyBbfU/+ta2l0X827kKNvTbH5Jqb8gYCBrZEFifNZQfk+7kFwLK7EqsCZrp3Kj9LKvg8klFGjUXVeTTEIQPBEJfXEXMGpwqhoTr83GyHd6XUvAYLLEPeWyI8x9+4NizwVBU42J8IWzF6eH0D2oGhECgrmYKDpPILqLvz9ZtrAZsplYSWCU/DmVbEygScm8u9UvmFoRsPkhK2LperFwKiDQXNQCjpKlvilDkbVPKue/yGGfSam7ZS1QMwSDJqhnwk9OGivvGc1qnVd6czktOdojorpLNXB0wyr2pr91WWHy9G0C+J6qe7VO6jycB33HUG7iLQQgWo0qQe0QqoCjbIDMyAOY9EhPHVV9zn3ROVxC1NgG033IHUIdVchbcbVBtCpsOdJzlSVKCi6ylk6AYlWBm26gfaEez7h2Sii/yrho47h70qnwVhG/bfKBeVeja/uedfvCTto5kyKVn1ZBwyUIzKq7uxI++xcj/LWI8brFWGqSy2RQZgMPpdAp3LAdF6FBeH8M8+m7jhZgUGdxRBARBk0vai6kmFm3SMKynQc6ijp7+XzBAjiwHBCjCzgBg5mjgud3bQSeuF35hzHwOnYSSPcTHgSmnqiupBKLWVBgiJl6ZoaLolZmWfv7IF4luYRep27bgaPT1UCKMbXqKdqQukl1mgmolJRDESXlSeqpkm92EphJxpPNA0oXqcYXj050BV4mURXU/YeG5LFp2F1qmmKTXCAMF2LW1FpBq33uQjVRtZNrO8kgk2vPiAToMaeG0s2A+v1cwIDFv/R4BmDwJr/UiFaYiKNHdfH3lWSjILMAJyyEp4wJ4KUa/4B5zMPiZyVltO1UyUuJWxGhXEMutdUSQcZvYqGImoTelH8IelpBVcEeR4WCORZPCCH761GSgWZssV7aljK6UcNRSjjk2BsmzhEUkyMxVL501gvlY4nbXID8ZAdBVmeKKe+BkER59g3k4fB+DttKKbgUO/h8sB76YHDLtfciDp+3cDuZep35R2aDw6D8MpvXpH3DooYGcufM91DTvdzr6zEKVYaqtjrF/WczC/DQwZKj9QvHoqakwLCEMS1SYRJRuU2m89EBySphc/06GPuBzFgxUST3kwu1PAViEOWF5rBIii1MIDrAFlNC0tQ/iSn0EIXokAD+lM6aHp6ooAZ0rPJ8LyrEgxabF2+IN81psOYP2frhIHyJDjLt3Dw4t91h6Se7+D6oQp4e/lh5djNZsG7dnGAUHmaDOUpKBcdTuMrDoieBUKwLe8dRkiDCYpMjRbBgB5MZbQ/T64y5yIiW8L8J35f9EAsdkGOrhQj6lBHj0tXBeG/U+dDvHFj/tTRU/aAe5NrIoCk1DlkHTXvioZVF8aZQUsQ9RCEJXK7nRAnx8qpJShgAEEpftWBTCAVRjZknhNPBqU8uQNJBCWdMdT2kUEXxkHlRAGI2kjVnQpA+Yfs7AAAIABJREFUHaAJQDAdIfNuupI6UMOiFhq2ZGYvI3emPBc2xsLtxiS4PhQZlpwrDU2r3DpwCBE81dcsMAcH+nBdj1mGoL7RXQHw2cLYz9nIkzzA1Ym2ZlatoUeh+iRSSETZC+WjCkfo4JrHmweWQCeUEb1QNYwCNi2jWbPyK2pbJ9SMQMQJVc9chUlDF5IVLLEsfVmNH9KQqpehE+ALR1DDcdGjqCowSq+YCX9WguRUeR0gOEVXp5U9juSlfBq714Y8urCKWsUoHZAo5wlcFeqjAiRLkqFINeZH0CD3oXITj92Sc4To4LuYQEpyiXliBAVpoM18zAsWSp7zL+CO621CbCECp+h8M0l9O5yp8U1Aox8JmCDKpqLhJuYYZaPZUcri4Qno4j10c3BsIbsdshWvl/rZXIlXISPlfVRxlfezHIaURi1V1oBejm5SVWLqBalS49hEcWZMslIvw1khaZLDjSIAQSlHJmMJkCo9h2kWRcANwVneKBWdyo0BHAdd4jmpMnTmjAcF3ul1rxiEV95/2Y66VjDpbBplthEGON3M0SYbVLtkjtj0ketWQw3zGAL+jvrF2Wvfk/ydbK05ZMpWEmIj5Z7k/HvyayAABrLWscgrPVYHCBJmFPePesji59JoSz1VBzyek6NJV+7cUCZVl4n8WkxcZZ8eJuU8R1RwrSnDLj+UdQXYrugr46S5ECV9XTsyWo2ygh1xgMzB8v3uDKCwD7UkXgcFbnhUl9T0nDcG8/LDMg4+tXolq+fy6OyjzKcn87rXLntD2T7fP4jpditAkJblYrgp5hoCIMEo+Qo5nUXdH6rL7dRUT3jlnuD6i35yXa0J1TIXXnlXW1MBDOz6yzE46DD7o7pdGVOOi2WvmrWvLKXeTwG8s4ya0Ki5bapbnDVRicnIoNJ5EQCkjkocxMJWkF2gzlJmR/UvdQ0TxJ1JJqjiGotdEmZG9Q7nmXZPwJmFhT1vy3Ns+DmOUxh00+cCIkGZVoMvCbvOaouTzhNmeQCdsixum/SeCvZIcwRPLaGogwMx+B6am6OdhPXgDbSniVwCXGhg52xk2tprkxhDepfifRldQ4ObU5lzMQgCAsRBo6SqJTPeoh/i4QulqYvHSXAaR5VzqotsRp4TSkqGaypoPtDKCU6WssKK5sr4mfAKuS2koj9F7lTkKhB5yN9zvErvVKUtlbJ0Q6Lzoga0TPorNIu+fAdDgfUprhJctEGUo+Iqg9/uW35JUw51mpQFEQEFj+TmGE1A/Fmk/uRYeo4D4Fr7McIVle7JXVzPQDPqLRlRHS/ShRpyMD62rMcuM7g9ni4hDYYNaORpEJUyJEiR7m/clLJ5lFlyvllDRZ6XYuEDbg4CFksu8lil5kqYx+4sjUx9pZRJY8rGpBzkCkg4bc5WqBIzr9Dnx0IaXvrpdKo03gkzAZciBwxViPdD9iaT+2tkRROQJP4q+kiZkbqXpnIkD9S/yWc8dANEzAy+w+ueAYQPXFIxE9JL66P4Lkw6PNvm+RTTA5U0F4IDTzMwxX4Q66ian9n6GuasM5NZor/zKrn6k/ayADfGZGeqBK+COTVmqHMCQAufebdFrrXsaSnnJcvJO5qHRUPM76fsvaFVJTTqYoQtrk05Kj1+o6B5H4b35H7CrKmB8RMZXTepkXcgriBZE+ecXtd9714hGUCGCAVYG/2rSl8ZpxJcOAM1lYxp8mY6y2lkZdyqltL1cMA0RFBjpnk0BvaD1Lx+zw/Q0KsYGbOhonssGVD1tbFHMmwFKsKYUQeRXZJpokFy58V3ielsY+bKhxBosD+POSAKLJTJEGMqXroCA+oGFVoFtvJF/lMS7p1BNFq9QbtiTCIdKcmVs8+weXZBRlVBpLDakkeh+p+OhYRcDVwIkx00lI3l92h4xXQZA0kHxBkoC6+KfImOy5B6eIFMcGnPzMnjLTw5nO8psmaOsO1DtZm0W5q75cyAyH4eynHkBLJUypJaYJVfwkoI46e2uspBINjjRpxB+/P0E8dO4xKz/4jpMHkfegC0oTN6jVN6dRRhTC9KJrRQSppCImjM4vugB0cqX2M5Ehf2CSXlLNSHnuEusas8ktazktQC9Wy5oILUs4mMTUBIOaHc2BmCiPS2IRwaPFF8Rm0JIlWhYExfNw/p+wnioqUeJt9TkB29UU26lOQWQcZq6DRu41nSVrIprEyVfauoVHeVbEPLnhXqtjB6yjL1tZeEUs+SPGfoTCsSrIRTEm8UeRbCvOjm8L5tgladuqXxtxId2bCeqMJ3jpgP4KSPAh0icQ3V2zgI2CTOzON5LcGHLWsl5m6XGHn1oiQxkjEvnqAk060hCY+iqBxY90wZv3rxCig1puqbQpWj0mGedOoeecG1lXng/Dv6Js2sG9NZGT1oWVknLe1UuRSUzY3BubJ1lfWhnDgwJCVHgMDxZkT9Ro+S8jYATCCkxkXzHWQ8xmZ4EhXXyIGceItMRCKrxvnPeUJkvcHP7SGFewUQXv7AJV038QYC2edtBDjX0qqE+kXdIN4OdYnpAlGi9rvD3kS8sbGBhNrrUzdR7OvOjN+Hzse1EdnIEGk4QciGbpHqBzFInHsaFW8kxu1Fj61WIaVxYfVKJWk3I0XdEOOlWfXc55GUotJLJsD1pDFNljWAwDJNygo7M5KRcopb9IllrYfcX1XDOPGYmRtF75FgVuL1fB/N15LcntJbVi9dq688qY66tCqxdIeiAgGaYO15O04pewhUGZWqDNW/r6wc545/NupZdKGeICpmXIy16VADeWJYWzyQqmKOxDGxVuYODETN0XGMPAFcaWutMnJ9rHaFHm1JqUuTKO5VDWFzzzurqXpY8wDEA5YtrzF/dQhVajys7A6fAJa4UKeJTGuseRMSGiTINJBUd1q5V4WBZN6DrTN1XPmzxiRVzwhbrU6ykiGqDwWASJ6UygcP7uJYJBQmhAXtGW2Bhr19rcjW8EaSzC3OBSezcsB5D7GxlDnPNWPuhwAegrwcMZpleITvzDAPwbDqOdrNzAACY2DclHOMu8hAs4Eg1YSiXJKLMuQT9biiTpWvIMBBPL35IOHSqIGRxFedsqu34aRS9CZEXpusAiaCRfqStDnjNkZFeaKXJ8lx8QTpcrPmREhNgMKTaate7imhGKkYpNc+ESCBR4FOo4GTywF6jYZ2ruuewWA4liNVt4db0n41Dlqi8HjErib0qYGh8RNa0dCaLr4KhgIovptXBtjvy0Q3RbVC35XlNUZzMZ9AklQUMDir4V4t59FLtDTBR+NvQmVFmoiVJ7YpPCHf2Ebx9s1r1h1jG9Ly6EQxEhBw/NzEDhAs898/L2sp9JhlIJugc72EaRBAYB6LIXyh3S1MJJ8THe7xN4NMolCquKNTZyKEBA5UJFL6aHkDtuHUgeKaMpRB9ocy0UARaR256FVL/ZCwjiVMSShLErKtpwXnhkpQjIz4l6oMRAYtudYqHcqQASlNzpvkuSizQepR7mFySKNCBatKP5SYrSgGi41yrFzvCUZoNrQ99J1c9wogvPT+iyX1yqVrxSEeaeupF+VF2Uq5P5Q5KBOeGfsfFZj3OgVlm7JIhc6Vo34ZpeCp3HJIXEtib/K3VDG/ODGzIYdRFuDKRKsc1KzNtmpXT0mVuvcUsDJbZwVzDXnKXgsSBJl6dLrHLSmWBkPAbSgAWUMRFdNAwFjEBKR0M5qy1kJlCw1tpdsCQtSDc2DBkAhPDJXwV8J3V1paqncoVzVALPeUvCOn9Cmn6i2r/NcainlzHC/tE2FWFrfssyD41Rm8quLCjafKqzK1YpDp5HnMX6hwXWvxN/gP2uaG/Vz5QBb3V/aydMosJ4m2h2FNZzin9Is4fvSGSUtp6HGqLNL0HhkF0Xvi0St4Fyba8kUElFlCpegdK7EV4bIQn9oQTZ4miyRhbTP+ApwMZHjugQA1slECSL0LsQUOyjwVCw9Rz0tSt4EIZ9XFOaPXyXXUwxB1jTUM5qWhwmDHrOjwKh2VD7IHGlJQeyYyybmQhFAtP1f2PCzz/mjDuBfEnhWqj5TJIdBNBdyS6Q2eWUORn2jyUwi355cxiqHptqpNSfQ25HnlAaIzTQSDFMFQDRJpRfHk6T1QWQrK0w1ONuSVPW0jSqaAhpsGXBS+ITZZK/dm+Xf+P8mBUVrHm+xIrF8mVJPSZNOmjFMrhcSQA1E4DQONQBw2tf86jQpiBRBooNNr4p2nmnJgS3mdeuc0wikKvPLqp3H50s0STapXqFQ72Qynq4R4lQNfFAgpeLEkNAuxiBGyLH/daIwxJWWWu/dmKDeBwl/LR3BQ4/fQdxdanujVeztIiIbjsAiTsBrG+MimVa9FNqa4baY4eBsKNh/D9SN+sUxlUQKWPKQK2tgPU+CeAazvp81+dNCqNKocDB2zxxU9qdE9DFG+TTMYlgyrIFhDHgIMyVYYGJFYJillxnKlxErnXdaaY04UHScBk+sUiHh+iYAbp6/Ny9X8K634EA/HSlsF+Em4QPMchNUgfWfggx5m1NCyUVECxkoJ1Rnz5D2NFfK+ajQYL08kN0IAMO9HI0XlFCRoxA8QQPjgBd3Aqvvw1t7+NsU0bAQHnD8JQfKjPFBrqYFgg0BI9cDsxYqpomFf4PxOUhTjDEUvRtCNEG4wM16/y/ONBFMYSDBcK3/bTjTcoMzeSGOvDHGJJ5+JdyjzTyUr+cpmDOUsBvXoBOiSvWMraMoRw422v0RpUk9xT6Rsjd1EGo4ESDiVLkmpdGAsa1+pZ8Z6I6RsXZ9YySvvnysYZJy6SAI046YCBKm1t5K4UAFm+S6BenmSMC2xaXqWCgqUyVE9piE77gUNbUp1GHuLWBzaWUt5DnWfy6r3jPBKLKEPCmT0JqWJlbFrjHUbwBb2QQC1RVZ9maU82uRASqLLqLEOk3requRKXeOhatFdGgL1zzBmr/kkxjZ6XoKHB61VvBIiygB4JFTe12hRofz5PuJ8mk6rleJKuIPgT5iLWum6hU200oB6RFlwhsYVMqlO04IAS/U0XSp7wRpEip4UfVwYS0o5VACrDIHmREnelXyWhh7yHNE1Fj4VHU5gwvYCZAvSUOyfmEZzYsjehlnD2ASGRZjrQQafTBtl26uN1H6UFRMSmk8RPP1oXBQtzUIN9lIEo+nz5X0zF6SkWbfsF8vQutpYRORie4KA3iqR/ljXX+hA3po7WuKAwDgPMeycxDgZYzDaFS+JC0eEzpaiEopj8gYn0IbS7y6J1z6ejBGJZtDnUOhZCSHPzFM0Qh5k0sPuYEfQ3+mTZ3Bz87om/+UFVvpr2Bzcwkr3BDb3buKxs4/h4TOnEGy8UL3X2lNA3J7WYRzUcBOTwQY+/Mo1tFs9bA82sdRZRbvTxq3NG+i0unK4ysryCVzbuIJOsytjGycjOTBmNBmiFbfEI6EyYSe3laVVjCYj9Do9bGzfwmQ8tmQdzbEQMJ5naDV50t9EQMfS0jKajYZ8noK63F/BKB2gEbWwuXOzTATixmrYc6uXUZZAAYwKMtv6emKlrKN5AbKxfcPXAIImklUImVqJG1jrzjVJpjT0NOTSV8FyFoSt4ZG6S0jyBMPJHuKgKeEgT4zlmJpxq1KUFrt2pacNmTR0kGSJvDc3Zppk6Hd72Bvtyd87rR5GiR6ny+cvdZcwnAy0yoNtxMMGklSf6yWcEn7IgHazI8+XNaDXKUdKB3K8MteOtKMc6pPQy2+j0+5gc/cWuo0+xvlIDX/GU1Cb4vnwEKFuu4vBZAfNqC1MEePb/D43PQ1EM2ypIs+BtZU1XNvk8dQPDkA4/+Erts8SnGsAPc9BMmPg4IAbv2QKqNBX9FwJmeeNsTtg+0BC3tEQgVySJJqg6Dcs1JMj3FTnhetBJiEmPqdsiQMRIrD9ciPvYmn1FK5vXJV1nWQjdJtL2BttiZJVUKwDEsDQiBAzcdVySiS7PKBsTcTzkiPC81T0T7+zImXAmzsbaEc9dPsdbO7ckvWmHFIOdofb6HWWsLF9E+vLp7Ez3ESr0REaeWewo+dtSCkkDx/TTH7qCI6rFXdEPqnLaMyXu6uirzxfivuG+3J7dwv99rLoOr4nnR/uYd0XmlgnCZo8pDxqSI7MleuXrQJH9zhDtZT/VqMl7675AwVWl09gOB5iOBqg2+mj1WyK/G/t3BL963ldGpoLkZBZFgdAdYulV6hxJvggbU/DbG0HPKld5MFZBwOVwkBINZ0lQAtI0d/JOhTcr1Vin8iJJYqKTkOOZtRCq9nCznCrdEjUabB8hzBAu9nGOB2qreEYJO9O3QrOI3WDJ+vxELXRZIB2o4MJ9RRytBtdZZFDHgKWiL5gqHsw5gmjqhultJGhdH8fj20WIZpNvT+P9ZZKPmE2QmQWk1HQxqk0x8YOcFvurWBvuC1zTHvWanaQ5GO0oi7GGc8nYf6C6tpOq40NymmrLeu21FmW8VG38mTQvcEOJnyHPBDbtTPaRL+1Iuw5bQvvz+Plg6eebBUB457yWgmC3RTBeD5IyBkTjW0T0/CTJWCsgqotSxFuTTTGy2gAKcIQ2CGwCAIstwIEPC2vAC5NIkStPgbjXU2WsRIzb/krlLopFUFRQtuq0SQCprBQMKhgKeismedJbPxSt9PDYLgrG63bXhJB59nqNN6NRksEoBW3sbrax6OPvBVBsgtsvqyKiQ86+VkVf5mOgO0LQDosFdpgkuOFzULCDtz4nPDdwXa5wdudFgajvbKUapyO0Gq0laZkf/VmC71uXxRLr90XULS8tIKt3Q2MRmM0G01RGBQSiQlliRgTniHA9293Omg1Gtgd7slcM8xBAeX9CTomEzZcMS/Z6DtFtObFC3KboQNnlb0gWXtlR8Q2PZpVbg2GPDnJZ0dqe30jmocmnrHlmkgOgKY8cmOQxdE0iCpBUDCGxPhVOfi4PY+Exl6Ym7Ihk3o1zP3QWKZt0DyXzcFn6CmNmnAkSYMeZjCCQ5OZjA2SGLtuUH6Qa8bxSGw64/HnLMvUNdGGLzQiEbjOgugzYKm/jL3xjlRoSPmlyCcTliZaOcG2ymETo2SIpfYK9tJt9ULEm1IlfXP72gMFEF58/3lRpuy4+khLQ41hYmcDWE4S7QAxjctOvtQg2jMdkaJIMgS7VEpzmAR68R1mNJowyX34D2v9vZeUzgv1qHhJEXAzCrEUFmg1QgQJe3wAVwsexxxgMNk1Y0zla9nZnGd69WTtskwMiuSJMKwgyjVEt9XT70reD8SIjg2EEwRs7W5aki7EEeA6Mh7e6fSwu7ct4HSQ7IieITjkPqeuomfKkBI9tVajidF4hLWVk7i1ew2nVs7h+uYVYTW5p8fJEMvdNWwPeIx4JGB4ffmUOAPj8ag0Upwvjnk0GQsDQVaBAIEOGJ/PvcqjxK/fuqreLnVKSrBVb06Xy6mYlOnV1VXsDXZFjxAYxA1tNkRQS/0jpZwey+ecWYmwA/xaepQAMG9dozkIVaVKqVCpX8zT9/woafJGJsb0kIMGzdnS+0gOnVR2aH6JVGzVEkBVORYSrhF95/eyyg2vEpN8CC9PLshAcr97GNi7vOYCKibpWEAW4/dcb84r15BjFRpfYis6breD5stW51KYrmF5t7TPZu4JWS3BE7mBLWVOMjPSdC6FRGbYKowF1MoaCo7yhFvKckPGSMCoDsxEZG97tIl23MWYzmh7SU88TdSL53k1dNIJNFT2l7C7tyV7r9PuIXj6yT63ta3XGMVognBvPkCQioOusQiygQksqu9ibzK1ialrtxrMKlWia6UToTFOZBO/NNDOWJoQZ+UwGpmWyWXOgJQNEeXzbHQCitGeUcmM1zVl053udfDk6bZ858rOCDeHMTYH2+oh0sPkue0xD5qit8nfTdBpdPDud71HMzXH28DWK/r+cQdYe1J/nuwAW69WWX01n+fS9hjnt4gmNXTBiafBIljQZB6l9k90gMdWOxKv3R6l+MilHREwIjN6s1520m52MZzsmuBb/gU96UZTxkupoRBmCVFdy462JRgr0GjqZzTzQCnTJNVSLrIoROPyX/a9snp0V8Il42dMgdN8OR9pRE09ycw9QVUC5oUZ+veNIJvRchf8v9X3qgNNJERAEGCbV3SOgUL/nXgIFuYox1EdiqbAUpIk9bRHrxknmKIh7i519MAmyW+w7HEBSJZwWXu2Oq8VM0JmgJvN2SqpxLBEI/mkhWwkp4BMFhtMZeotaUMS+6ZRnQS1YhwYsqhCmQIeWU5JL0XozqIQZTRKhw9UDsKLHzwvCV+PdqDhOEmgslg28/dMacemHoRxXG2BDZSdFigwQrjJOTgo1BBLDoKwjg2ubO27+VC/a19lqIFh801SCWCL+ADLjPykGS6PgWGmOShcV/FgPT5udLiGBvVMErJoBH409Nw3zagp7YHFMNEbp6ecT4SR47/JSpCmpoKnAh5nPGVUqWAeDU2mYS/ZEh1EgE8wOEkT9FvLGKa7Fn/XtV7prWJruIFus4fBeKC1L57nYwCVgGWY7Ilyn2RjTRQVWaFe7IgBJGvqvTS6bTJpu1qqxjb5jRb2xtwHhbAJejhb5YBwLbNEQ6J0cAic5MhxJm3GoTgx2shODw7zXKkSxNsKWxsIZRjdmDsjZEVPbuA9VOUhAJV9q15x5tITqt2p8Zwoc3hEZzh7Id2A9bkSorZeLPbbslrCWemS+XYlWHOE6s6RVLswfCl5YAZy8hyddheIM4yHdHKsAkXWTl+47IlmAEgqwswRYthCmvlZMzgPRUuei53S6cOizEk4nD1tUg17KRtjbaeleRPDBloVRltKeRWmlTqxyGX9J5ORgsJQnTPaCC+b5XjJTg0me5rIadVuZDD3AwQmWG0w87pmEWs/5u0G0AgBAfvUBhqeKNhBi4K0U6MCx8AG44sMcWc51tuhnOlApH9hBAwtFFyyBW4QXBAsDsUXlsQtdl6T8kx6g/TgEjx1sovTSxUVm2YFXtkY4tagwIgKvuyPXmX4v/ud70K3t6RvlewBGy/qz+0TwPIjahRuPgfQOPOSjCvdbMzmpEB86kaGGztEWp7gJ7nMIgRnT6zgZCvBMueqdv3ayxuW0KcWQhKgSG0y8YbxRHYLKwW9yiqU2DvrdRMaQmVXfHMyq5rgRxVgIcjRu1FqLEoNKIfv5aii3GcYAt+cjs5lTc0Yy6urc1uidy8z9Np1+R6xohvwWryx3Mhubq3Blmxe+5wyCeZAmodf/578sQ4+zCDJOI2u9GoHUeyI0Om1MRhS6LXc1UuNlJo0fVJrbuiGW8MKZA8UYGnGts2BbXjmGnBe1TOxnAgJo3nTKVVSsuHNemrrCHVlpMMiQRxDX0srQk1LnFlQlc4F2aY7ve5VkiIZhA7Zgw5AHRCObJ8zX0+o+xn2gDGINtkDvoMLwwjFMEU4OMABoawyjEnnQwLq0+CC7AMmGqqkyJMfGIm3SQapwMl+LOMi/niZhI6mqyh97j/XQKjLsyjSTDveUdaFnqfHbF0wxSsUxsKeZWUbsv4E6WT4cvXACdYJCKQPi21h79HC+wrDOd7TSi7LU5KKGunaqPXuVOB0DggY+BLNuINJqiCE4UgJlaWaOd9p9IQeH0+GanDE2msuloJny5mQRj1aoaN9DDQBzjP7haFNCSbI7FnJHnNJWBmSqPGROn3p2aAusjogVQxfSshrCYuuZ6ZymGh/jFmQrVBrtCcJ+RLe9zb1VorteVK+b7kpDNzL55ms76WUzlpIiLRqulSBiek8CdeDJSnigMb1g9tB6ZNQ5SzwxE3O/8SOH/D8q5IBs3fzHAdvHeDsgrKYlnw/k7Mh7rSX5Hs7e8m/qBrrSaDFu9iK4+J7xs50ECWnpZZkgRhmUPZDHSXvA6Sl/BrGpqNL2ZNTQ52deOqJZqG1jZLyLug+3OOMH4DyWafZYbKO7/uWwaoJEwEQDlLkzRjhJMVoAmw3aAS1+dAZ9pbvNhEOJtjJ2ETJBLTmPXo9vnppZlE8oc667CmxokOOwwBf8NiqnRRWqdNJmuPZa7vYYU6Few9hIbHg97zrC6b17o1nrW6zDTAHYbShoYWopYCh0Z3+/HADl6+cx6evbghrkFjSBZkCMgZnaoDFv3hpa4IL24l4paK4uBmseNxRmxg6wxSSce8xMho4Uk7CBBgSNeMvySxlfM2eVlraathl8oxMbLVJ6yyCbxb32mXD89mNKmzgNKDnKPgYBSg0mRCouSd1Sk/jcL6WpROo3p2tvedFeHM+ET9XIJYbIMjZgE19HAIIrGeDb9BKoVudr3xXvyyGwBMuPQ1fS6XNa9R5o8KSzHI/d8IbXHoIxgGLh0IMRJRzzT3McaUWg5VqFdtXJbC0ngJWhifLY+V3DxJAeOE3z+NMG1hmElRLDbEwZXPYA/l9O0bRZAkbET1T2pXxYvjSE5rngR9xQBjHkDklMuX/+JBM2MlADKNmPN9kPbeBrCYKrLUC8PwYnhlzfhRgLAbcnmKCXrI3LkfCqilQE5pYyq+rkRGIxE2jsl2pWx8RhgPo3ckl3qwiu7KEjudQ0AO1xFnuVXqECuhNkVtynwZTGAKz5DkHy1ZFJL1fjF2apCNR/GQl6DAQOJChYhhEvHiroCobEVmCnvSEYX0/58UT+Ay8eTKg7Ed/Zqw5Q5L9bx72VG4SjbERyL5/PS+5BAeVTSvDj67jhKnU1jJ61Z4h+oNGMSlK/eOAy+8tPQt8T/q4PYdqpsOvjN+BCfWOlWBKiMEZT9NT4kjVHJBZORXxsNwCgiRtuKphVHdCxMloaNJ+6YzV9IO8roRFtemW52jIezPJWypkKn2u+s0FzSqxrOpAEq2n3tcT5S0B2x0um+M6KFK2PtYjA4Q9a2n4QQeI4Mk+irDHjRGUXsG8jeu/kz7qjBX6xZcbJOJsi3NLA8d4YJpjkAXYtZpVWgICBCqXgBsmyfHiUOMsmgWrYMG9Skd8IjzsZGbNN6QxiKyobspH19rv0uJ1AAAgAElEQVR4Ym3GgNdeYGuU4lNXdzHmkXAhcPrECp555l3TrzjaBLbPq0JiDgJDDpQgCTeU4jv1nd3dbXzw4x8sC4rOLbfxlrXulDDUv0DA8huvbmlczA3eTPYvH1mWmjrSdmNrwkXPVrOSTSjZY8DBAhfUjJasb8X0lfNaY9Q0a9YNZU2Burcu4mi9McqGJsbq1I23G1alZC0PQbx6a7RkgKVUMl4dYZtIPIxas01nlGRDUwEZ/ShgpeZNeFhC8hNY8pnY+3sClOVI+GYVY+Eljm7ceb8a6+HAplRWznrUwjCSS8T5tbHIz+b1lKESe44wOF4pUcvPEIVqikkYImsv68wG1+VBKnP89K+fx1PL3N/KFXN/C0NvvgSVvjUTld9LNROVD6N/3RaC4dj7YB2mXiTEUB4QR8w2mCAdK73E+0tiYqeBcJjgOhvBmJfcDoAT/Js4IGPcJHuZeK/7ymusK0dPkvMeCQwJSFWArXmd3RLgakDQG4w5ZUxc4JU/Di5KRs7BhhtKKVVXoyugwhW7M2jGUInBqBk/ua/8L0DYLNAo2pgEI60+sri89ohQHVqW8HmysX2mXlUg7KqBUWHMfP+YASz7RJgR9RxSl1tN8rR+Ks7kmVHX/hGVgRNDaF13uY6eJC16ykJuvh4yl4YP3RMsAU3No3fvvHRIHODbnpY1sJ9lr9ZCrB7SEIDA95Bk6ipnQn7mWjiRy4HW9JGbBf8c5V/ej58ThkmBf52ZkGhILTlTym59XkzPcw68H1Gpi2rsasnwGqMqS0Vns1ZWqsfBOANqptLlz5gW0ak1B1SG65VHUj2oixc8tYwCvYYenHIAa5CvNhBueTnNTMkj0eXeRAACxyUGjvRrHGE4zrAnTSI0NnsmNg+YFOVgggujAEN6V/UTEqVzX7U5SmAyq9jNbj91uouzyzNVBzMqiK91dXuE568PwM+fe+yzgGZ/BiRsAduvapiBM94/CyQDaxBBr2Z1qktLlib4T7/5n7DcjvHOs0vCZBwKrIoCv/bChjAvJTGSVjXJ9feso3T1SPQSIeZ3vGTRhE0Eit67Lbg4WFZqWs8ariNZ8Qy8ZMnQdykwhqQ9Xie6zIy5K88y7FbzeOkRkHQR5kEYBc1/EMRfSxSSF+LGYF07HUx5LxPQusdXC3M5mq41cNSQicmKgGRLDiqVAZ+h+ViaIO9LVJ5DYc1R2AOEmNfb/fpGqSF42Y/OFJhxdwXPeZU1MGXvSsef64pH7i/MkYy6KrsyOtSZDVcizQcoxHDx/efxWO/w8ALbKfJwN2mvb3Rz3GH1k+73uRcBL783trJWMpStWsnjKEE+zq1EUdfJQxzXWYoqB83mkmZ9khnznabosiTJ8epQW/tqnFq7+IkX5krSRKKULQfX5Qa1fWVgh8+WXjDen8M9Xt/RnqlfA95lmV2tOshl1cdVNpOoGdTZPSPl9ubZuqyWQJ7yLNbY4tP+nrVnliFCWwR3JBwwCPvBtXNmxcOA9Xi/72NjFoXWroH9qXBDDYz//+29CZcc53EtGJm19QI0GgsBLoAoipRkyecdv5HG9rwzf3/Om3mWbOs8yZYlcwcXEGsv6O7ac07c796oyARAgXTDaJarfGSAja6qzPy+L+LGjRsRhV3RF9NOlSNQono6b6RBRUyzIEIl0hEMiMVhaaNSGgLcpWqqnEWlLPRoMrNXUNWqw6OYBDxCghsxDvpufS4bMwJAeP8gzHRjBhopVmgMigcvZeeJlNJ3pnSJbB9sZgpYEHCBeS3gTcwLvp82VGkdga4W6yoAKnAp+6cgzgOdVeEQGA+xxmJrqp9ecYAwRF+D572ijhkq4nKIIVRM3sYRu4u45cQqF8ZtDezsdNYCCFd6je36wu2MYDDuTRo7og4MFyqhCG8ED10UoBA30aa8povD/vZHV2zg9MVfeE2c1Zgt7KozIPs/fhYk+EpNn5b/+c6fnxaQoJd7v/134QWb5cIef/47uy7R5rd8tzMjDk7un0xCB+CyBjmkcFw0EDrMQIU8jED7cqRAYgptKUJ0gEBiJat2QyPAAyckj+5cvulki93ppU6aAgVaAzeK/qxL1zBZ1pU2QRoHHVCIS4erqAQ/9w3JVAMOnTtUllAGatLB5XeEQWcaJRt37EXmLeUIQiCZKELclwAUjT+iC99vKZcZEYmiARpEaTcUFQlsLN04sFtgNBpTlMm1EFhAhEE2OoRZNOBiRXBNKfXhec7v+npVGoSHv7trt1x/sF1ShFgmphf87169oNQiAEKZ1mu97dq8z4E0C9378eDDqUf1Omj6tTW5g+R0bjZeAICp/4EmzT6cO4PAniONBUOJVMZ0YZ+cmc0IQpXmCpFaFs2lrA/uK6c8U2UOgh/aqFKzntKgdHjFsPKcyMnxv0WNK6URwCVVCAXrR0eFAEEAIJ0JBRFhN5Osw38mACDnKIeYz3U4RZ5FfDcYCadreDaDGSBLQtvja6/0QABzPlM5ugBeOnNooFTsVYAC5fX9vKiCXc88ObCsOVB6IFg+Z5aYNoDNVKGFHKLsVVpX/BN1KQEUUkBQqH+mEtR1Nt1HnOGUChLLEffPYAA2DGmbbLeFhHgdYnzVZMqLM9iq3K8PDL3bXzETHcEmng/PHFK3/C7cOis1uukY2Uo8CtlLMiYCLQQIhbJ75uVOY4+9lz1v6wJEv/BvAwi+WL4Jtoe2OJnYY88hUqToKfeb3u+aAOHBuMHoVtE0oppEK8lYguoiuxHpQean3722bT/ycoG/8Hp0MrVPHp7ZO1dH5ukAvEZXzHZurDQG/lROH5j1tooO4cq7xap7+kEIyHfG1fdsWQ3s//2H/2lvXRnZe9dfnFrQZc0WS/v/Pj2IjRK5Ozk+blhQi74hiILlOP0yHJ/g+fMhRHMR0dkEVLm9Xd6sQMfuqJ3tYbRb8verskcAXxlPNTjS53ITKU8Z6Qz//pwDo8bCDzxYAjXNohGLHB4aaVGPQe2FIuxSTlkOSdCtbOIkQKWDgOiBNBuet8ovRR/6Z3NwEIw87yeAGGeIZM0FGAHqbDCNWQJaGpHS+W0VjcrwCsiFGCk9Q7BsakDl9DyfvaIfvJdG0j8PAOHbialndv2rAggH//uuXd8qwF8AwdcWVaeV5+lXkb0YBL+43o4L46ooicwX3AxqNEPCa7Kw+mxhzwAEF0ydztsAgaV3jxyg0PlC7NlrbGfkefYagOSzMzNoyBg7hOGkw8i6nHjMCsZz1Et2yn8/Azil1OSQgBFy/xCl1jwNgq6iidaVqFeTdBPVjDOuwVXcZ2JVI9cv+lr3Ip0VCMYiftP9CWTTtxT7kdIbLTGy2AGm/KKniRhALOpKY1QATFnCsCmK4BOIkjZCZwrmLnQQDE6YsovImUFLsA9ydgAOZcUgUOX5VWpCjj8zBpFCEABU6jJde5xZAoGcBsS15uBGv6PrcPaFND2Ao0f9FIcLpMFekGXKzx/OmGxMMIx+77Sdsi0CjzlNhqegVJRSJOxuG4CUjLLS17CpiUULijqxGwLJkWJ4EcLvWiAYdO+qmF6tPKEbYGcQtod28nRqXrgDm03F717PbOdSYSweTxp77IZSkVXKN+vmtFkUKYpW1te/98a23dl/MUA4mSzs08en9sgV0I3ZO9dH9v713c5tEbLqy67/rFQ2eBri0ltlJ3tVA56sh0tbdjp60377u3/C5hzUtf34+rbdvDR6oQZh7gDh7sEq303aCXlbBwSaiqkogRQtDh6jltI8w6sdSpIucoLceCUFQSUxETA2HqlTRKiOsLlBtOlBmwoJk0JVH32MtKDTKrnXlKsTk0EjF6wANRbIF3tTGxePoR/AipKMDdqqjKAjjrxgMax4BkzNaHNrAXFOVSIlRbVQpJqgMPILURSXG6JgiSt5bQBiZBDgnNPWUE4VEZrWic9Sv4dIl2yFtBOK6PL3++8hwiZLhGfjVCWdmf/7lufuLwhAOPr9Xbs6ehYgLHuV1Zd7qExq+h5oTCPFAF/ipQ/+DNlK+RlE0/lBV4OA1ozPAQiejnGA4PUl2FsYTmb2xlZllYukz6b2uQMEgVW/DDlbOW6lCNI+LraqnBk8ej5/7DEq9OGAmANOgxLLzBdWoASTRRYh9CZJFyRKPoN0BQTaa6Gcpx3A40ogRNVmEVzBa9JZC9CLXWAZIWRfPLNZgBxnid8VQDpXGwh8E0BErp6/E0FDYmJ4SSuhI89zTukh5clOnQgOyATgGmjftBzRcZDlhGJadV4FPGA3CUSU/sO/8bOB3XNwpa6xzwGQkc5R2iYDM/+7gB4DHWeJXDuDdJAYBNop3EdKuZTCpiIsdCE69p40HARswUAqBaLPks6C1x6aLYEv2X4PRthmxNc+AGgSaRbElQ6kn1toELZL1cHLvByde06xCxBm41IKhjkMXhO+3bfHR97VOYlVMCvd7Jr3Q5gv7Mm0sYelzL9EtYrYNA9AjlECkoTuZZCH/dp+fXuvlP+ll0fsXx5M7O6TMxxyAYtLuz379Z3rK2ef3+SKqv33SujogMCf5I2/Kr/hDMLjf4/f/mbctz9/eT/K/3xx97b79v6NHbuUcqjlmTf20YNT+/rYk93FKUVuFDZIUxPLx0dET0Vyzqth/gI3UaHGysFC4E8qDHRRiugLdVg+u0tviyYFEPCAlQABjipytyvdBNgN0vqRVvBsjIbplHLhQqcxKgoKPVcl+LUIseqAcbPHQ5YhpjFmhWDoK7ShgbBTNzY8cxpD3Le2Rvo8vyb4rKS3gOGA4HMF2HQfrfwl70MMAACuC4/9MwmiFLWhWiWzI2JrWm1gV2dEBUW+3ba+BXC+6Ky+Kgbh8Pd3USXQYhBKcUEBCJf9kJpVpzOzsffsoEhxpyCslwUIrWZsOHcJIKggYtiz42ljZzMUjYZN823ko6evbVdWTxf2xZnZmLoS2HOl7LI4i3sP5aysHFL+FWMLku0IPYFvGwJB0ejaf10WtHioVdrC/x0i1zSxMkCl1PRJi4DPC/TOVU8BA35VjEDqr6Gf6/0rwFFCX/9vRauRrhDYIitUANJKaJxLpR0Ei2XD+Uv7PPa+mAQ/gwpOGi9S6dkbVwZ2Y2doO6OB1ZfessXgkj05PLAHjx7Yk8eHmG0QzETS/ITOgSBGNLyeaTjyTJsnxycxnwSLmUVUWgx2KQWrxXGvwDxSG7JVGGG9mo4rUIIWzUl0j0ep9cF+KDoFrIGDCAoDFSjKB8jeO2DCbbDrY2k5XwCOwJSAoXwd1sv3mvQYUgYwZRGMAgWZLWbVTZozvz/dt6Zi1cHLAISlOz80J+HLKZ7TaRjGTAcBTFRe5OCtlEv10tCHsXhdLV/+c++HcDxFoAARn99g5AE7pW5ylsXbmf381m6rrNAX5cnpzP71azYkUQTIMdUezf79r/6H9b3/wdlD8lx9s503zLb2ylX5qnnpo79u/jfdqNnDfwtg8bsvD+3ptDQsieifG+Dm5aG9f2PXBmm+g9/P//PJ40COEg/yNgLAiKJWjhPPQb+ECKayuWsHSPOBsmPaIVqXChV38v6ypIhKSyfQaHcqhka5N9/g7XwXa/eZz5Jjxabl92Gz+vvYpESOWr+jaAAbl4gWyJuGMaJo3ltEaloBgoBUxFKiEkYJOZcv5kSHKPdyULomRJlcckX+YEnEssjw+TPD9MlSIgZEz6qNFrOQqjxahgSiLarXuZ7OHnmFrChS2uPo9zAcXRwG4eD3d+26i069goAaBJQ4EujUbwxRlibH1MyW1pz4ELMi9nhpgJBnvvgR97kMbP/u+ycTKt7NcT5fukQBP98ZlKl9XmEhn+DFSyfLYl9mnPuEdU8UvYhDUe2Rw6YTF3GoKFQKfBhYglHpayKNwH0p0VhLMCd6PVTjTP0xr5/FatpbMv75vyMFJoCczbLy6WUkQ6QsM5CWbSk6Bl1wYfr8hYFu7sRSXxqlFJTrDyatA4TC1igf7rZhWNsHd962W/2k69q9abZ7q+V6vM/Mn//9j/bwyaPS5Ipr5dcOZ8jv8mcNcIUeAakBGkF4pAElxOO5RcDgg6Eo9g5fo00jm0amEP0kPEVEhlZpgqIh4aRZAQJpb/qVzb0snaA0AJJKssGal1bM+Z5k9xWcqass3s/7wvV4kMjUCp61tAOp4RTSHGIkpEthQOSaqUg5q5pKzKqz0By4Vv307V5Tu/jQabq9AcoPvZ+Bq5Fb8JxGDQCBild39CrrTnih+G5Rc+4wHFCgu5ZZNfaZ6atFzoBCDuVwYfawdD+Nlw60Tr4osh/f3LZ3qUE4nS7sD18f2QSNQCqbT5uiqudhEWLe3d6yX/33v1vxh63taSW94ACiBRDM7PGHaLv8zfHE/nz/ZEXdi8bq5Kg87XCH1+aMxj98eQBEh4DYFzdRTm1qZ+WM5VwLQ+BftBJA4RBrfLJaE/sPSQPmSKhs5iRGUQeZ9Hn++TDwyq+FSLQgXrQ0ZqnOc6nvJNAq/64mQ6VigjOn8FiFbGX0JeRRxBMROwZirrou4r2+oamVCLYkBGH8dzZtgiCMecqci20ZXoIeTSEVI9Hac+necGepnFQMhQCHrj2iP1GKqewyUiZJuAlDSEDi7/X+/i2P2N2nz/nvV8UgPPzfd+2mp05cpEhBc2gNXIOwvZq7kG2BD2nCPWwVLQLsi5d9un2hoY/fd00Chiz4783D0efb1BqGfXFRo7OH/r/Z3Gr/fKUJMpXLD5kuzR5NzZ6KdpeSXs5VQmnSwpk5yntezJTEt7pGqfpDlCvxddqfsOdKb+h7E0sgwOJ7XMxc7DkJ7XR9inYF+qNKhnYP37s6PwpM5NhlZHG24UhL7wGV8AZYVsol2Yeil+IYbd6P0jAaOqRmYoNh3/7+V39n9eSR2cmD8rgckV//+bO72MvOxwf26ODA/vWrwwAI4SvIsPizBvOJLbMqt5SGA19B+49nKn0P2UuxuDjvZDORMhKAjEVlFZcLu9NwqUh3SgCuFCdZ4TKXpthTpXfhA8noBpuvIBiVNpyHw+8O8KreK7KrqQtt8QNFYKry2ZyS0N4RuHNBsVKcYO8VBDE9LcYB7wNA4OyF5upKWxAX7xPMcMLLLGcMc3IDzT7scGBEsEAkPBAvsmXoo+AiIvVxp1oTi5wRcNEt2SPXDUokRsCQc+r+sHeGJbQYey920lpwaOidQFEfczcoxRtU9sG7P7Fbb3rXxM7r6Tdmp/e5gUdmrkfQ6/Azm54c2D/dPbQZbpqLn8Q2+pmi362Bd4GsbLZc2sxL/tKmi81CABNpB1670iiIgpMARfTSKo/FiWc8xEE7ykCmkXeRexI1y8OBgy1QlxxaIFOp/rm5FXDIaHZzrKivhhcmMNS0N2wYUmNqy8v1xXdFdUYCKknZrwOsx6h8perQkSJRB0h8Vhtc4H05z5bEVzrEOJROK6ZGLAI86GmAxihJ2Jlzll16mAYnOwxEce5sKdB1O5lFXDJmAAjf8fWqAILKHFFBMHVpYIkyZGjc6DSjOgYsyS7Y46nVHoX6ZEYOhVvZFl8gqWXnAAVQx/vMhlRy7d8Tgs6USVTkp0eEJCfb/EYb6CQCzMGI2/mnc7NHfg8cU48eHkyRhZOgkDQL4OAYkzBWgQe2O4W0QfsKcHRSh2LT/Dm6MddzzJVK6MevSJFHSfu3BZSyJoH7MqJN0dlMdRJHrFTr/oFkIMHAMT+tZ1Wai60a0/mvX90ZoHW8d60NGyU/wF4lBfxxYmxd26//5te2tb1j9vhPZdqWv1zf5SJx3ZQ3p/PW94rozOz+8cT+dL/MnRFYDmcuti4FpLujHnrHHY0XhSKntkH2IYTvIkxkZpJuQ18vpiI3c0JqJreXl5DS01/sWgvHKl+lDJDSNhKA0wZK6xIBixhvMTLSw6icNFU6YQ/q35GGKWsFc5TF6AIB/AwxFlHhxnQw+nM48Mj6kjKs6dlXg1aJnKbmX3g2RmmfI/Vq4ujeJySyDE/9D9IHQRGeSnXiEPMQZTDg/4bGKnTumXL1X/fOrPfO2BMkq4sVgaQcc0R9LGFBDtGNDsvRhKL82n/+0w/s1s13yqU5FD3+qsxg0KtDf03v/8l+/8V9G8998NJzavtzrX+i3vFxSewGIEW6Mz/7vPHx/MLBtwEC2J7U1AM+WGrcdA0yqisFwer3MuWuyLdQGyn94J9bSqs5inSFhrE51XhEEXVCwrpnXVuXcQjaNvccUNkYjU33PYpOxB5prZWyaEV4qWxHYC2MXcpBRySqfUWqzhtyzb0/faLmZMdyBUhEIemgtnLGGSBQrRxARPoIOjEBJKVHLtI0x49/e7eMeMYchpIy8PsMrQG6rjta71mz5W2D29qAtn/zf/U3iPttzE6LVghnQ2WUbLjkz1vjo3U0pYN5Zl/lcyHXw46P/p/Ku8bnNGaHnlH0ktVc8krbApPnjhOIp7xLez9SDr6umjOVHKxAtBi90BKJVRCV32Pa0Nky1sFHGaXAsb4+n7EkeGztY7KTYcd43To/YAno3MsQoBXr9iy7W1ZSTvFXt6+YO+FF09j9w4l9/OQ0ALkAUpwP2vqfffCBvfkm7eyjP61a2F99z2xwqSBtb06XbW9auz/cO7InPmlYAQydbfiUpdnuVs/ev75j+zslWf/1wdj+/f5paZXufXjUjp3riMq48MqEKLTLOL9kaMQUiYFVuSX2kq+NX1MWHyp1xfVSy/aSxlFZbCqDRTfElVgSZ5/3GfZVjK6qFRKogW3jvkaPHNdDJFYKDIHSTX5EmfIAS8BASFUt3mxOaWWVhlcf/GiA7q/YzN6/G1fn31DCOwgwTs9QL15ORoM0gbmugBGWBBR4g6MoLFINfqzujo/2yKzft8onYjFXmBdaXeqiHE25FR/GNDbDHCkaEjyZpBCVcwvnpW5kZSbLqm6ZOWdHmLeu3rB394c2bNjIQRfjYZ13UuQIzQcP79mHH39UWmkqMObG8Pt3URkoLFJKYRwU/WuDkCIPVW1nscXCCKnCQSlawRhsDp/hdSrihtNU6iKxAlwSWraU2sEzZPlop4Qvrj0OU3viWoiVJJaioDE6HyrHSpTOIKRFFUaKgT4iSn30Hh4wgQCcmURz6n7x2QkgKVeniE8RYdDZSegq0ZBEiaUpCZ2UV4vwZOHApdrqwras9AhZvKbcYU4NCPjKyejPLqCJ7ydDcdEAwhvePsTZDm+1PCk6IpQ6MsqGIt6nN3rH1C0PYXyaHlNLvk6udcK7ygwXPGqfaHc29nxKcb7OLE7mLXalpWsaep8E50h96uy8pCrSy5suLX1kMybHtv/N95jbLHR8VU8DT3ssG7AJ9zVHSo5IZXrJSeMa1e2OJauwWYwMFUVmMBsiMeawpRWSKAxGXHngxGhFpOrxS6quaQVXApcqS0xBE24jPYJgKOnUIoBQNKuKp5THlgOSduF/vHe11RRuuljap4/OEOnjq+VLsDnMdra27Ne/+tsyGM9fT782O31Y/n71A7PBNtIJKCXHGe+XnyEEdj9zavPFwv7Xp0+ipFZBnn9kv1ehvb2Xm/uZ1Ot4PLfffXkUWpOso8BvdTQomQnBv0koL6fMNALuT2WetEm4VYqb8chTAIKhdCyBlF6sxYAnRgHnQUGZ2uFn7b2YIn0+b1ZpSTEegc6TfYdfoX3TUmg/hKZLQILf7S6wen+/atzZo47ZNQg+iCkf4JPTFjjwfgmeowqjsGp6VgzGFR8J7a2P/U7HVh1N0D+9LL7/+8is3i5dVk7GpvSGFtYvGnQb5g+wNEkjphdLuzcp1GDQTWIHmGfzz4FohYpkPRQ184iaaC6Eb2JvAOTzE67tDFCyiNfeHVvWA/OWyl/f+8pOx2dFiKkph8q5KbfFXKY2V0aMYgO619JyEDrYcvLcdHB4UsfDCBD9c7MAaFCMgkdMkCLqqSxK27liE6uCQLlP5r5CJCNWIBkYHT8ZNG1ERbyl5fMqNYCDTICnE4nomSWY0g9kUSA+UweA0VLQvfosImpF6lHfzoOvtEjoE/gMcCv8DNw/7Weujy+Aq8ycR5SlkkYhdTXq4mFWJIvnnOnB1IsBhz6hePwun3+rraoALT/L53x819erSjE4g+DtjO/senOp4lRxG4tVnhxpBmcXXL2969MUa1s+mMUI6OU1F136ky19SBqfr+D2ZViMCMDB2bykLrxNc7sfGzouNlf8vaUhSOXTF703iyJkBw+XvYTZDc3EqgNv79wBCUyLeOQMCtp/1UdXQ+zY2FcTVrcoilO1gtgyVQ6pB3+yA/5Nfe8BI9CiyI9CYuwDOp5Qr2NfMKKkcFcKe1UJZC2LgK6CgWDTWBqn/Dsec0rXBauVKpwAymVTKKjDtXBtc85fjKW3tveW8t2Xpxw+eXRqR2fsN8zz8rP3PrA33yJ7gHPoAjMXgDdmV35UetF4dZirdcHYvrEy7jooZ0/sN3/8Nzs7m5Xr5dm9vju0n93cLWLK9PL+A7/59BDt9YNOT02LZIM03C2CArVjlkjZr6RIYkqn107AEymuDCg7LLKCkJwSwt+xgOWiFUAJIOhnWFsGLLAX8rUpWMmBqB6B7s97WGAonL6HGT0XrepUZHCK2Jf2N9jM9y9b4whksJUBwlbJZEx8ABNbmPmNOPU3bVB5BPSWRjJg7R1c+CAn/3c48bl5M5TaPbpvmMs+84EAxK+yXpiLmGBQ3OgQggIkaJAi5ztAiOS00Gxhn52gLXaovQEmvLRSik0KVqKels43EHkSgiDfy05cIQBMCxhOnHk6Raz4kwuFNZRxT3QTFkpVBkEnUptFGis33xC4KKIb9jTwtCpzWwIdQT1JWMMyHDwHqnyj4YZSHdxoLfQohEmn6d/ZdXhypIrS/XnpO6LWu3Okn+GX8e9pvLN2Z1x/+Tc5zbh2Gpl8+OHMBSBYHx20bEyDK++I1IkARY6upJFTJUL6kqD4ZFSSsEj5SBxyzXMgKAIrkgx1pIxYyx1gKSuO/W/gzQEAACAASURBVHlqpgNVyQWccJpj2/b9RbzwygDCb+7CWL17yWyUo5oy4BQUru8LMWO+lg4QFmdl5DJ0FgAI/uZRGWh0dIIui3gtliiRhPDRQbuDg6w38HOFpm3+uz7rZW7e2hnvmywN46Uv++Z3hOze36PPJQAEjLSPlmcvBn+2cL6MqhDhewOo6dyOJw2CEBlIdLDjmZJD6DKUMuT+JwBCAiVxXiR8o20B5c1zDkPOtKG+S+BV9ql4ko6wOe0NVUmEk1DKUewXDHRiGdU5VRIQVi0gsFLJsHob+Nhpzmn4+/f2Mb7+RS9nEj55dGY+e8aP269++Qu7tH+z/evOFjhr4ODAQcL9P5hduVP++wWvz+9+aJ9+/iXW0svI/+rWrm2TdXreW56cTu33Xz5tNYGTfYl0rFgE3Y4eenrOOR+P93cbwqW0RDCDYDqT9inZsVb6gAAuWGB1yxUYZdCpagUBR9mdcOJprkv3HgV+ItBJwFcl1QFCBCjYLwS27P2dkopBmuCqGAQ/wLVVR8crdO99Es6KCNB/31sG4HkymgB9RyFbN1+IBfT8JJ2AFtTPeDWqrfYRrjqkTl06YPBiChdAw0EWDYHXSLv24WSytK88ZZm7Aab2klG7HNFrW50fCE3tKP33qHqPs83IQI4ffRqUv+noCSK1oZQqAVSrG19nbgBSCKXf0QrhoeNkisKVWpDKXoYqfVZQer47O9GBHGemvUWPFSq+PSshDF/KYebcXc6JtdIGiY5T1C6j6cBNw4qUfoHRU9to3z9A3ZyhntrERgdNRf3KcsmpUryGvUuDF0g7CWexhnyWWitpMCTUEaAQMwUbwT7xuldQsmq6FNEXxYqJ9VCpm3AQJrFhwdvUZjALEHms6qRhXurGLtIsho9+Uyjg7X5ld7afH5X7sxsk0kPsgn4uBqFxBmHqo5u9i1Y5ND7PpZkWZtL3aD+3WmHvDX/+XVZBYBTzHJIIGEFGXVuNBkqFCUIraKZG/GxSUlVYN98frND48szMB9qqRE1prmCkCDSDspcKnmwecvapasHvRxU8wYYlMWEplStSQNHf/jPfA2G8E3smR6EUAX6n2yuhk8qM/c1AIfaoUrSpjE7AX6AEpXYefFVm/9d7+y/V1t7TDt6DBr9/8xcFIebX03sl1bD3jtnZ4yJYPLlf0ObwstnOdbaOLW86PHhkf/i3P9gv37xkV1+ivf3R2cx+99Vx5POjgks+IzVtU5Qv543gnq2bo7+JE1WajSChtoZYaX4C708OP8CaUgdJP5I1JrE2zLD4ekZgps/MIOBFKZAOYxSpT7IVsjcoRxYDBvYKVxCi0sKyVsXW/fSyNWoQ0b/qAiNMW4LGoBpPMF3NX7XPEejkG/3f0EHNbd+0+H+nGTN1/jx052yAo3kheUyEZbEEprF52+emQTSr7n1AO/6QtgZWnc3s42OzRWpbG4tBQ4v6UiwcjXMSfwhV6fBFrk4IktP1QJ2LQkzCGG0oPFNlT9S5UNE/o8mIIjPNLOSviJb/LQcNg5lQLWhJsRFEvWgQQvWz/25R57LkyP/O5j0ACdJB+P3I+Sf6HuwA76+wLnTq3JTYKOle4540rVE5S1F0zKtlFgMO0CM+riuuPUVnagiShVxw0hQXRQ6RhyP2S5qHgJbIEg+J4o+8yKrsK1IBKh3CAxftx4qQVPok1gLRoDPcFL3ByPJsiYKNyX7SZ2gaZx4r68wHVc8N0xgCCJ7PQ8mWLW046hjVF4VX6eevjEH4bWEQfK+9NTK7lFOLZPywVv2VoFBMIAIQv5WrwxL1e4rgZFyCBn+5XuBkvgo+3IbAoQ/MRzf7unow4c+7pXf6C88DYvk0BRJtnB00eG8FLyHkv6OyEuRDKTR/era0r07ZUTOLf9VQhlSzHDPsQaKK5ViD1teeFF0snRLTWdhCOH9s1yudTLYT2p88v2D7eH6e932yTQIcsicYLiS7Sdsl4A9bIfoaZ6J8Ke6POotrO0P7xZu7MTr925bgcDyzy65XcUN89f2Ww8f73LDNzszOHpW09PSoPfumv13eV1U2GR9b/eTjlwInKCm/e1BYoqSdQ+ZE7bKz7VWEL0fKNC+qoVIqIOsSZH9LgMFmUjlQQrC8YpMijcAzFJorAhYFI7k7roLTYGrbuLw8+pQSiGBR15HFqmQ1in1hQOYgAHvXDZo/GNZZ8oMdoFY/27fGNxpYAaf1MIK9cKY4MJTbV09LM6TV71WI6Otxaa0KNuA5aYfnAgQ3gNsDiJEWJ8vCEqhHvtdC+yF2oRJZBP8MHWKwCJMZqhq8llkRcY6k41Col3+ufBBYUo49NQHR+RWiE6VfEjM8vEJpASYSv54oKl2D0L7SEFgLNfxRXksKeEa6eM6JelZ0DCCgQywHr8YcPnbV38cmRTDWQDilW5ecIiJovzj8Lm2AKLXkXIPO1HOCoWV3MKVLxKh0ymj0XVLPxmMBXcLWqcolqruYl3SRxgyAlEBJYRl4JkTNdUp/cKCF/nMzHKUC1NchMz1peloIRyX8woetcoRQ9ipClqaA6yDmJ1+nGIegBhVJKN3jBsRzv+kavJU2AEK1tOFA0viXQAb8lVcGEP7xbgg4fRl/vENfzxKp1ln1Z5QMIQIQ1yg6uHJjioYbzYqdHE/R8hAZAM51cGcOQfSigVbN/81Bhgzotz0RDyKQjjyaloE3OQDxaY+TGTQUOQABte/7YtC3uefTT1ei5mDO2LobIBbAtfQMyHsEID8LlXW208AmOG/uBf1+BFWZ5qatCkBLBxF7TJ9D8a7/XNVVSjIHGyBxnToopiY7+VwJBHZZBABYq8AIuDDw216uAfjjvad2OJnZ397ZN+92C+fgzMD2dbOhC1maMu/GwYE3SnIWwQfoudr74JNVp1sv9b3+M3v08Bv788d/srf3RvbuczQQ3es5mc7tHz87Ks47Rccl6Ct0jIPzDOyyjRZ933DirspSBRgiDdMZwCQ/VJ4/vxvBUcjmSlsABjA8CvEzsO/SPKwqgEP75p8q9gHXwCFwSlUryMyBVrDivoJVEQpHFYuqOfx6ewUoiL1wpqH62V5hP7Gx/HDycOMGLlMltCy5vEgv+O+4YKjfK458Vjqi+kX5tC5zZ+WJSnTi8lNHr4QrpQLJkcx0bounhYHw3J3t+g5fWjMoPd39Ibt2Bf8ulO+CptncHo/NnmheAWuPV52mVrk2LIZy1aTq3XF6w4vIlwo0pNK4yF93d54OcD6s/JmYBVBRvG04lYTMRe0FMpXegZ+hhQ0jIkCSOx/m2uwoc/FdVapORJOLKVGpVtTMJgEkcmzq1y0hjCpFUh5fiFn0l8o0ITjkPUoIqnWIw5JEkSVyIADyzZ3SJf4diDaVStF9qsOc1ietiVIHOiCRc6MTjnWUKJOph8j76bO6+T8ZX7IhUaGha2fvAiiIpU5XFYQOcab8xEB1okIBQX8OZd8UgOBofgDE/vLgwH/zPwUg1BVUBO+4w9egGT4D2RGxWn70PWr15ZCuAOfRBYUeJLh1OJ1Y43InljmjGsI1Ac4eUC8AGyBmYcdpCpUlucFDEoFWl0ZhWZt5UOP98N0/7TJy6vUAOtz2+DNXua1mj2AWxHRhHz0lOMxBBrUkOM/F/pczxzka4ZRz/j+BXIEmXGpiJKUzEAulNAScmFqBa/9q4E8C9TpTq+57vL7UX0VC3JjFIjFdsi96hGoznJlFnPO52a9/dKX0nXnOy0sfvzgY21dHY5uOSxfB//72nl12VvpFr0tvlpk3jz8qVWOeu/YJug4ShFxG+/bRw1P76v49PLdLWz0M6Lux+2KGza/hw/unq5SNxJfRHXHF/raePzVEwX7St7To+mTvtX+kVZDjB+DjWHkxSWIawP5wci6euVpsc73UpRL7SakoBREKbmQLxSp0gSVTpNGiGWxIZbV3N4aSFdwQhZf4G1JaKJX0IJOzIaoPdq2BSl69093wSSThAEEMwvF0BRCu9KBS9hNSP5m4YLhUNThAGFZm26UWGn2T2UtBYLhs3Zn3Xy4o/rgwBb1rfbwvXj7d7WQOgACaUGLFvguUlvZ4ZvaIdBkWJT8w0dAcyhF0W9Q5t1tQaiFCwd/VGEhMp+55ycjDQbHPeKtuNUWYMR2RSBJVDc9xxiX3Q3o1DViJHKgeotTOFDr6Z3m9L3KfSQwp4ZLoq9hsmdZKOX/gNzVbYkvQ0A+IaiMDgsFQpP9zL3ls9mw/+CxbLEYyfGg/nNqYilYT0xCgK89WUDlWN0UjloE/D3YpTawEda2UDUuQotwsXXcYaTqCmFvPZ64ObS02yNcusQFwCGpm4v+mNBSNlPZtVJ6ARi8L4Id14AzCd3y9MoDwW5ahIU/qzIfZbr+xN6if8EjI70/sF4O0MsCoVDwXptDti3e/886KrFmvPBiYsGzaI61rXglVgoXq8WzFXG6zzNdTFXh5pFIiohX76s0ZxmaePhjPbXHq+qbK6lvMUfrbHCB497XxMnr2BHhxAzpf2sdntCliqcTYaX+nKpWY0qc0omhfZy54bZGO8H9TJYycviLBNLpckXyUTXcmQQpYApBlKlnnTXue/y5fi9Sc9DVMlWiLyS6FzkYUO6uj/D5vX93C9Nruy6flfvzw1MYuDE2D4n5y84q945Vr8qR6o/+SVyx4i3vvWuvda0d7ZYKuv3I5pJn9w91Dm0wXRTfiAeiysWu7A/vxtR3b7QAWZzC8md2kWRYdUdIuRVVCaoIGs5pZ5mTrysNKqUtttFTuKG2K3AKE3prlkPQHChTxmfJR7EfgGxgNsyau4ymdZ7Fm0i2k2RkFDNNPaH0VF/IiMgjB+QCQdV3Bynn5f0vnAkBAgOB/CllV728XZYxAApAPlZnmqmAOQaqOJwEiepdrM1cU+69OFtY8nq8AggMDn96HgU6j5wZAuMG5dz5qrDkp+cD6emnKFJvV2+M+nuIA+80Fg8AKBC9H8h7rmcrPiDcoMgncVNoh5688TfrSiBIlUJThkTglD5VSjjohNziHJFbTIiqoz4I4lRhpc6rDV3H2be2DNqkekJwSLl3DkzrvWTEDJaGJPc9oH/lvjXCOB55oT3XhEvGT87BkPAJRc7+gcqUz4MTvBcyD23M1rOoohtEKmWyOdAbKlwbg4jpIE9KifNnsA3vKfWsezsOIHmhdinHer3oTQEyWWSFeH8CV+xRVqihgZRQZwiYddjabwTwHMTA0ImJYcGhlPGhoVN8eNKC/x9m1/tIGWfH3jEl+/g9eNUAAE4ky4rL5tisDSIhlVf6cl4ftkdJimjjacxtxqTh6j+YhgBbT98bAKtcL+L89KiwAGIQWQFiBg+6T8F7+sLSTuS0dIGz3rLpUmjfFy8vxThYlABG7QYDo7Zg/P2O5H98UDkQVLfn8Z9EY0N1qfoHsqd9MPv94ehIW+tnpiDLFMOh8qG9Ddi4txiD3h9HnKmcaKa0EJnjNK2dTFk4sYOS/fV9z1Lx3p/2/39tv9Rvw9vbedv7Y15DsWmhz3AP0h/Z//h9/Z/XsuGgM/AucMdi+thJaHX9d5uL4l77x12VBXJvw5EP8dTJf2m+/PIjGfDrnCmju7G/ZO1e2WvoEL3H8zVcHZQggAwoMXNJAwFR2rLWVnY5nn9oQexq+77NIWD4Pki83tSLogx1PvkVMUwaR8ZxShRsa+dGWlKY9xUDoWlppoGyPyYgG+BBpn1JJAZ6Rdi0GGywC9Ah+tpwxqK2qHVD5n/4r5V1RxfA8c9O/1LOGkwm9xLFxlM9Irr7aX5UoPZyWvIg3WnIWwNMFvW3QFi96NRiTx1rGZEyK2XFV8xxtnWdkEPqYEll+0Y36J47wk7hOBw4OlmhblJ3yezHKtzP0R4cOl8sIoTWASb0WUtkJFkzqeA4RkdMXooRzdGcr0KBDLOWwDnLKbcpRFNS7qo9WHhL3L2SPHgyrchr4OeXEGLEqQschSchetqNVqkeNCij+GRsBCVlLgS9NAsZ0coRoVVKHzg4Gm0OQ5dfq1DDWIo3bxTqRvYjnlst7EiWveyqCGqJqCRgJelw8CNEWh31hcyfBqKI2GD4ePIWdkWLhvcGRe5SbQZeGSzH37AOzVuJQRs98j9gHGFuCFnVxjP4UKplKNPAqz1lZPWzsQjVK+ue7q1keAltk872D8i0/8oyW8pkP4NMO8wtgu8IUphsoZyilcdqprPGOTP6e8cKaowVspo+OdqErhNS29ULrUkybG46VF2gHH2b1IasmuI+RWuUvHS/MvvbGZ1m7olRB6sgHokppMD93Yt043U9l0Or7ASevDIjbDD8XmCWwEheHGDc5d9gvMjX+kJXCVIMmGHSdT6WqnKmhLizoFQFWOcrUwQ/nlOyxIlcxnwLm/oD+21uXMbXWHeXHj0/t3uEkgiJpIxTkqOz3vTs/ttu3yQx0HYIjtMd/Lj/tzma4/3s4yN/cPUBPA5xn7/niAUVqQ60z/fObu3Z9Zwi/c/fgzD57fMbn4t68aLE8le3hknwD2HYFgHzmOL9y1mQTSjMiBltKBUgAzjRbbEj5EdqrzG4LMGICLMe9q8neSvO2ai0u9qKgBWruxC7TpjsWVql+K8hKe1Z7aDktVWNVjwyFUhyuN6AfckQFsOCVNF7m+CIn7gsSoolBH7QcxIiuVfC+Cd4UySsSOh9QinVefIAFAszOnvPewkpUT9siRQRT/CIXJ97zqgmOyoTjZzMhIbtwjNIddCYERolkEimCvvLv8ZJNUjfqTw5DR2AHYEIRnNByTi+gM58arFCgJbpbYCXTeWIuFGkWoKIex0VXIAYA6JOLCkMh5EmnFwCDFQgoM2R5aegfKJjqOSJWr3eVDPqm9+9nbba+z6NGH36FQ6r2oABaHcuvxeU8CTxTKv8FnGDY1IYbRpYPNuVuYySu6FilJSSMlJNXBQejl0jHkLYN9kZlieR8I3pLEaEQex7brK0tQAiNBCddRuSR6edEM4vmQzrCc3s8anqfIhuIS5lywtIzPzm8SAzCP95tDahSWgbXTS3zfmO2RypB+/yFEQIH6eCpQKtUIdqPSogtDn96zgc05mzAt6dfGvOhcO0R9jJ09VHpkaBSR/Vp0FeJnYxIT83HYh7KqnGO8htIJcGW0ImIudT+4ntlG+B/CEAxL4DDkuA4NCbdtRiqVmLJrRyFAiEcVaU9st4hlS9G0NV5lm65nY5XcAWAQIZQKnvNiVCvDqR7xSAhykzjoB28uaiUglKcGZZT/80v/sYuXe70OfAv8QF4uGkX0NwqzZL0uv8Hu3twap8fnkUnSQQLeLFEO7WnBmDH9Xh2ysW/qbzY7T/OFVsvp3kKShOXa111m8W3qDcJgsNipxQEOaMAm6jUtUYyC/TTR2Thsn+m9BzBwlKzpDSD2AL4Gz7f6NKL9NAqNaD+IwCaDI7kA1XlovRu6Ntgr1LwKT+Ce/QJzERI/se3AQS/mVYzt1TO5BsGYordAQSJLYSeAAK2kLdSZZOSMLi73k5zHO8LlDJeWn1SNkyojB1ppfpqn/PuI6IVVeNBOLVLLYIeJv47LzoRP6LzFI3ic9KIXzxI1zeQsYhcdqo+kNgnHjrtv6JA9G0gSNCCK9oAONA1KOIX+EiqWNHYWUuAHC5BDX5OUU04PJUpqfSKD1wROwCEcmpKifjGgKWh7qpbWqgcXgI7WjhsYJZClevh9ES2IgboYfq3IHMyE8qtkSlRvahqu2Nz0+hi2hwpOdqHlZZAn+85Nad3te7UG4hViHpupk5kXEUVKmiTYcmUsD83UYf9Xm3z5TImcuL3KKxUukJrDoDkvgyobnUoQ3UMhoEgTtoE/K7ZyFsKf8fXq0oxfPi/7kaXztBZZArbQeOyguroRq+BOgAG9gUkoqLM3DNFfRMQgPgHuCPyVKb3ykjPIQOExnUKbl/yvw/6SHNmgFCYJ2cqOCWyscJOovvhSjfjg23v+jRi5vWz0dWahuhYjGDS7eRyXeyvLKwFWCCVT0atRKqlgkd98qPSiALIEO0KdIiN4xnSPn2GxhbDoXPeARPl+lY5IYCbBGL9frtzKASUwZZoem2q2sDZ43kQaHKH2O/17a9/+gu7fOVaeeje88D7IMjju7G78YtV2mE5t88//Cf79OFZiXgFvLWv2JtBFHym2JXOca2C30+m6bFlUwlzMcT0Jaqooi0U66nW2KL+FaAFmJBfkQYqpbULeF4N3VL1QyvSV6MsVkkFw+l2iowQ2CZU5JTR1ggZ/U8CJFSl6TrU+C+xk10GWj1w4nySza00EVL+7PaWNa4rfNELQCCJUHWI/QvVtKRxRTKVxast5gxCaQBSHx4XiXJ6La/65Bd6HD84PiHujBUOvFEN/coHGOyBd25LqCdomFTNIBWqELjotljcaNRD6oatv/2+chMRPxD9URmmAoRK0ZmaqIAexK2RspHzUaQq55Hy0sEesEGLIpUQG+VIQCOT0zwG6E+5GbX5tQHkyIKxyIeL6yz2IzaNOy5XrpJSlcYhtzz23+06zDi45fbLKya4sZdCEle1uCrtOQm1iLYVDUUZETb5iulA5Qm/SznIoAN1IDqkhoxLHgmLfRnlmav8a5nUuAIxkdag0ShAKw1bEQhh216BCNGUGkqI62anMiXs9VklbF7Nu4DB8lTtRQII/1AYhKDL9YyT7cDzZYcgtymXvTCJRNhz7UuyIfr3iOrV88Cfy1a/iJ7ju/wvhaFs5otiXzJA2BpSRM0N4cDgzGc3rHrMKvgIMML3fzU1O/HMp3LMBHaIHEXfa2yw1OdyMjoH3CNOhYv+RjUH5ynAgfl7JChWpJueqXQ4cPrZPkugC8CTpp9mgS6vQwFO5MQzexbnVR73WY0EbCyFjHKSOHNiRRTk8OyW808zkER8shOe537r6r79eG81OTaWzasZXLDow/lOju3jzz6yJ4eHq+g8lTS31lrfndMsKXjUNXXTiAEMVHJIAfkzVWbdVCfBBFI6KoHWuS6mqgASVT85yNKYaPZgyGmkYBdkXzKo5n6AnVCLf4HOZHJbqQc59q4QNq1bCTwL24O0MwNDXLP3DRJtjCqHXml3MPR2qLxpiCe5if3Dbnuwr8VniYZuUu2W/SaWrjx2QZC3XFZLZa90eB5A2B+Zo//GW7FOvR1rcAhYU4kTQf+p05m5eAg9nEJ1igXlISpRwqojXSD40iRqJVbhQRXDEFQvkbBAAG4ZDp55fjlYRoUrZNqJCpIzEZ3MvVPOT6qDDseu70INPDuqYfOuBCvlYHBh1c8ggYlWj4TUmKcIEkVRkL3gBmvZXJ48AYFgBwhSJOgLhyvVvw4kgZ3uKWsvMp2mNIgaEAVCp3Aq5+KUMgjQklgg0GuoL16tT6SC5HD5nLBfeX9iW6LMlVsPw8fYzUzGMTqeiUJWtzzmLiK/6J/N1AuWOImgdIABnjhOVc8Al6QITAacrNeFEin+493IfWv8qyjkAJrc95kW9GjNReYezMGGs+rHn6vf9u7A7IYzLEmX4xUPSOWk1s1+IhY+ytfLpxEZugDaKw6eBxAG1mxV1ngL5vHSevOSv9bLv1ut3KOStDY7npt9U6qrg3nERTM9hPsmwxfRsUeybmixcegcMQGyRI2o4uDGk0AVEaz2Ot7HIXgSDvtRdZsnpjBVEwRwSC3d47wkcSKOJJ1Zjr7FSjrnq9Sj1ivbMyjZaavE6un5qVJJ2qAWSyR7xHvGv/l1pRHC7jDf3Bva5a2BjTxFPdi25c5NOzk5sYOjJ/bk8ADXJuF2RPj67PScce9A+2LpOg6azlpj4sVcRZCU6H31KhAln4NF2UKa4AJOEwsqvQUemaeDmG4ojGK7lTaeJ4MTreczoCeVoSpNis8Uk0lw1gra0t6UfYlyTX0B97BSDJEacyvab6DtjeAXEqEBJzymmm09bBk/b0/wpkqy6WhxiNMUN6BiTkvz9/c9dPDQ3yc3noytochE14kZ7Ew9ZYbA/z2je4ADLrLrDjCbRWWH0gIQPQIEpEjMFxXzGXhQIiqFmy1OHdPdlHdSnltK9kDGKa+Y6uOBgVKXQjl/LDq7GpadxLOW0GgImDTuWKCHDwh0nytmScGDxsdh48HmOuD7s2iG1xwpBzU/SsBC69qOLFIXRrId4bjzoafzyoxMGKJkdAogWD03ADelcpIKNxxDZgWYp8s6gRYlJwU2mkElAZek9CnokqFUaiWcBDvs4UAT4MjhKU2kdE5maYozl/VbCX2eOeipfjkYIm2FpDQOIEEjl43tRWq1/LEDBFQ/lX2SWbZ85uJZ6Zxkw4TZ4QX8RtRSm90ZmfUp9NWaB3vImQz+c99zym9XW6kr29NxpBvp0wAAYJ/8K5Pt8utTYzh1ZnQ7tOybfc5MKN5HbY/OlpxQdBRNDgmmRPtbETd7rfj1tHLOAo65DwHbKkebdeW+tS+VdkxAsiVA5N6JenqBTjI+ivqDwSMFHkCW91LA+IoF0l6Ew1TM9xw6PVilDMBpkwPQ8NhEEIdmSxJUtbvdwmnxO+WQo8pLrIkAFvUa0UCrQ/O3wAOvXYGUgo+wDRzgJaYotq50NTRp/nNcvQTcLcZ31QgPfitdD5y5PkvdZiXMTixU/lxdv3xtBPc5qEBwSX0EgUOxUKu1jPfrupNWSgEKKhm96oPPFOMUBBCAlkRbC51QBes/f8PLVmW4GbkhyqfDUJ4XB5nAAQ+DC6kNJgOi/J//jlIY0AGwMYrfnvKT/rOTyuwB81syIsURr3JIeCTad3he7chfJXfZebacpN6bKbMM7brOPtfNa7APTh2nAaZJWsEa8EzE5hNlTkevvJ5oZjkX2FaNdFX0kACRNoDoLSFHGQ3lRlf5+FW/i3BuCYnjfWr8o2tjFYSaQEVqRyhdOc5ES4ZeIrWpDYOaGYj0nHEvrP5QD3sZDAFGofyIIJjf1TzzAGUESHiOpNlyxJSpUxly0ctyZLgegUY284k9qK5n0qtoDyWWSy12zwAAIABJREFUKyIu7SsBBJ2VrIdR81If1rR1cTQIDhDyM4SR7QhDFXEFeBRYFTkoUCvjxJJe/9zb3miPa+6A3V8ehPgLLCXPDSa96meM4NwO+e8oolOaQjZEEbQ7fTVeUwWN/5s75i98KiUdiCI8OZDS+rrcRIs94/3Hc6Fj1/sUPEjIjD3N69e+Fehy4KRIUaA10lK6eZ3/XNIom5SrLHhOw+Yme9GKynP6hMGLdDpwbjz/WYCtZxC6B51VNTzLZct5eJrsHhmF0s1wxVIEkE+aDZ0xsEkM4gTEWsA/kc9hD2iD5A9kXsL5itmgw1TwqDSvKqv0vhypK+gDkKFtwLXmIDvrHMTWJlCTU0hitxUsZF2XbKx+P+8t+d6yPVZakpUvpx4sp6PTWHCBHODJVG2Ge1YKxceyKwLISklctG6STuzN2jDyVZvED2U4eh5qMBjcLAEaKHoTbaghTPhvGgX/TCEYHWy/aH9hVjuNiSKJcKQJEUUpkJCi8ivKC/HatcDaLDLggZhz++XUGCVTiKFu5Xdl1KeNkyk+RUzKW+k+UBGAB7rS68iBBcLtlOHAgOTukLnsJYOYpKSGejo1YgGEwQKvkHCOlGOzJoos6x5WFRErXZEccETBKUjAQibmRwcwELYiTimClUPj++CMaMTgnCjKKZuRnRk55jsYo+eokoOuI0puGeqUN0SJIwGrQJZAW/g7MVM5D9qJ9mKCY7p+XbOviZ8FKcRx4KmY9+cPkaL2rCzVX/jzlYkUf3N3xRpo2p9y0UrryVmgbz+jwsSMtTr0+X3gbJV96OnN26kdrRoviUnA7A6W52WQoAZv2o/+e3pP6FX4DKPGn8EQOsOa2Rfe6I0sg2xOAEf12sfmpe2TwQdbKeNCEJPslBw9tihmb5R9qrRVnD1qNwAgVJoYIDJXCXRSVwRcGfhmG6bzJnv3jIaIGxF18Kn6xFkEpE0IVtVHJPZ9Lv/MtlLVPGJJWsCQqVHp2QiuxD7gGSnaTn8XECjrsRpfjLPCWTA6/zBp6oWSImlNy8zfkbU0ArrwO0wN6J6xhgpC6Til74JQk8BUay1AAtvRAcgl1cv0mb+P6QIBW9h7gj/ZukgBtNrEk5lNTGtXXxU2mNcu/9Ri/pJfzGkkpY4KGBtghPszfe4jh5Wcrb8BTELamK1FTV+ITdtddKI6RXeBhoTM9Z4Ehg6XZo95kINR4OCQiMpzvjnRSBnZF65eJ7tcG+hKAZTc4ledDlNOWE68tWBAj+WmosVxQvTYuImRFoUtZA9jRCemTZ6dtBCemA/kuaBQ5cx5CmvEMuT8pDaxb4g44IkSk5/Jmx+gOtd5+8XT+Odn1WIrEmAsn0WDprHQAjNZY5YOXTHiq3RPsEnaA8n5SIcQJXapvCsqCXJnMaWMUvlPBioBOgQyeO+5B0ZQekoPCbDkdQXFp1rk1dqoZr1ExIXNku7Cf4K/y8Am4wAjV9mFm+ao/RXgjmsvA4fca+74t/Kp5bFnQNFxFL6nB01jb7kompsTQaZmG3CN0h8yIyuBLM8e7EqigQXIunbHj9/Xc7OpShBT18QWyyS7lkql43yxV4lsXaxnjhrpKFT5JCFuMUI8M94YLgnxgh3tOM1gxnSWuQ8V5Yt9k/PBPssdZVPFgc5CrB/BLSqRvOENwA7/LlveYeEil85KCbyX2ouuX1HqJpwgWUV9f+us5RQM94N8Cp5BvjbZoBRcqAJBJEVOw6qEM4I6zSiioNztkWYVxD0IqCttENfQAW3c58844mQvxO5GAAgZympug8iAcPKM8AV48dXSP3RE3q10F4WxCqZDW6b0hotxVfEgZif7PNihfgEIwVB06UBdjD980uhXarP95BjkbM7rT18438ePlmYnNMhykqLtwlhREBRDb1JEHMF0pqB42MMR0+K0jF6aBChAAHSaorlYICnns1Ej+FD5nIRBgXQVZXCTZQZDkXuLQgtvToScSzLV/CjlxMIQd3JkuHyWZEW1gF9/BnOiGinK031jUyu6VY6feyJSEXKe6fCghMv74avUL12nKkyi/I/XEaWj+p7sXPjsJArSvYZGofsc/JrU/VAMQdCpK0SP/STGQ4NURKOnxloR8dADtaniFSDMKYi4RnWVlG5F3ylHwWtXiuMi9UH4iFUMfm1BL/O6sb8F8lNEKcalFeGl9YltnaoBXNDonRnRfPM7sicvY3/kZLxM+pHPepFzSA3WcLaZvhRgxv11RKQlp7xiSlQa2aLBX+DgBVrgNJ2Wp3i1la4QNdxhbPJ9lkg66WgY3IABo2PJ6YIIJnQWtIaaxIpyt8oW01JWnJu1dQMQBA+ZiUspGAiINcciNSfL/WD0nHVWsuZJVT0SecLBi6HQPAqWoio4CMSY2NhIhSnY6UymzeBR4AqPJDWZijRCdsbaC9J45QA0VXAEE5urr0jfBxDLn8ELUnfZFQpOxlCAIU3PFejKILNVcZSCsi7wFlMk9szXX6xSVQ8Z/EpVSSciRJw3VFxEXbqgX+NBxu9+y2FO/vmFjCl+h7943Jg5cyD2TuGAHFwsHhcy6nETutNDCNTJz281eIlQhYgMVCBL6pLgrXto8VGKKLkxWoCBeWmNQI+IgQg9i1WUWgjjw32ATakhQJleIpjDNamEUjRSynFHZ7WOqDAOfAcIYP2EwJXD1Lr6/XgjjuTkdSjx8zTVUc8m05utBlBKJeQ2zN367JTzjVBQQDXdvyKgiPaSijvKjFLkr8gy9jGfr/YdDhQBU+gyUt4worckNMviKRyd9BkyPmIKcE6I2H0Pi4lRii9CZ+7jiyRSRB8EVRvkoEGRDNkstLYlY6LSQLGMLRuRmXka1IisGjMPQq4wRfaytkWO83mmSHbAj+BBY3YsoawChnyWMshUbv05qnJ8n0Qybgekrtce6jgFpRMFtmUHfB9EdE1HlgFJpAayrfFno1kiOhNksmKfcZ0E3pQyC3tKhi3Wh0Aj18gjVeRsQk7Tar0E7FgmFykYZy3VVZSUeTAiHbAfPWYcPHsnVjYNU2CiMwLnJeY6sW7+ua0+OPKjssEcrJXBSJztxFhHvwqevdBdJHY7tEQCZeonw3WALSBjGuk0nZU0yK0LGrT2rcF+ar9NFi7SUnx+kZbgppdmTKzEKvgqDwQ+k31kZAfDnjHlhuBbFRZiRHsja+TA8GeikrSoQKlqYetvZBtPv8i9odmulzJ5OaIulqVMzjSpD4eQuFM+fo6gLk5Q2EsXnfFwcEAdT7seL0Vspe8Ad0Indx/XLGNN5ajyTHEfilbdoPNQtgx8hwLWBhMbECU+BB5RDpdmHMgZ4LCIyknoFDYl1aviOad2yF0H2AImvO8obRQ4yocnRXuBDmU9k8AzNqzUzJrZQIcWiJq14fgsAhgpr1tgJTl8pWYkAhK9l3sBgKXpzCjIdGQ8FwlBRXNq/wixp9RQpu9EE2bdBBxGp6FJ2o4rXMJ9EoaKxjAOaJ5poZRGAljYU5nxUbc1ThLMWofMUqE88CJpEP7h7qofihg2BRNdQaYMeVofsDhSbMtO0PjJGcJAuhHhPvTx9N6sdcfnMEh5T9viPovbMAeOLduire7n24NO73/0VIyBAgZF+DoP/LmcKhxjN20l0IlrSo2/VKXDC3ses6YAJUfSYkWj2Vu6NgVoeW+0nIFmgKRGXUrFBZORgXOrXDfNjlH6R+LklIrIQVakMDTFMgFe2cao2lDQ0UmjqeU6tg9TEzHvgWBJtli6qbD3CQQFOyCGRe9NYsFIgdNGwJapgZ1EtmIDCHaV2kWQo2m13vhOlLwYd1WPlcnkYctzCkFp4YiM9Z05FZdYN9kqOGp1yc2MI/dpMJS00fAx7MXi9+jliujgqlJZTsQFSGR78WBNud/EoOJ3/PNcAgWAkNF0jgiSo1CnuNwdMNfDIm+awEV8JlGDHIh6UMO/K4epA8H/9g2OEjP1+9fM69QDvqD39qjMQIYyTMox6HuYa/TvRV5eqE6/97zPSw4C95hoRtyDaMAcvbOHhNTXahuM309CFaV2Il2SRkMHGEgUZXwf70P0YtDrKg9CdFGerw+2g+GhoYOhYfkTSlpUaSLRY25IwgOiTSsniYiH945/o0YkwA03Ya6YkENtpVMStRTRlJy/wEgaAR21xhIikQrOuU559ky9ysAFQEiRE56ztAzd6CZXyaTIBGCTLXHxmd08IMkwORYZGnWH1EHUvggGQc15aOi2vIrhO9Lsr0qk+NFv78bUwLjf/Ny0FgKHEr2l/Yv3CVQkeloqf4BuCjVDzOXiRLXmTlR6nN8ENkLT0ZmkFykR2Tmew9AL6IzLJnEPAsCnBmotapZrLiAa+w4eiKm8lLdugX9F6tRK4F7VnljXwmvIIj7ZD7F2YTf8HKcqmhZ1z/LEzLpGGrPLrmWHyWtDtXWK3oPNSOm4nG/XNXbPpIJMnAF2BZT9Q4SrNfb1TgFVODP1AJAmSdVEXDMFtwJ2OcDAGZdeSyJABpCxtxJbG2llMTbJ+Ye2TmtL4IoAsdWCfiVC1DORz8Pz9/ORq1G4jwVOxDLF/nqOv8Tn8L4CMGi9CQg0nyZ6cKgay8GOgLiDS6VtcJGUEwAgbBUArsOCLxLaSgpIlSwGBStkJQQpg6nudMyPyAfIscL5M7ebqY7YQHSS4Xh4cOTMRLvLgeq6lAaISE+IWFS6aq81YCnPVRc9SMMsuh1PhsAnhvcw79VChAIkQmLckAAgCZy0coFaCNGLiYJS2iFwTpdGyxGMKFJG9DI2AghiDuIQJ0FWiPEkBKOw0N8TAh7dAsGTrkmRhMCWXzNmGIhiZhQJxblqqNUCOY+HF/2V6CTQY57DYhoFe8b/29NOs9JeA6QPo3lFLoH8lRbgHtS9yxGHCtnvTW212XM9UjMCylzToGkFoAiuEA1xPcIRibqkCLElRhRzRUMIp5PEijII/rOLpEH4+J/uMqm9Km0G2CfYlJFXuklGEM8+KfPl2DPYjLOkaF0RIIEu9rQoV4JRfw/YN6btIlpOTJo0QDhP3MdYKw3xopEUCNB5VQoK+yV1MmzplggCYStka2SsnR3Kdk7pidQIKRhJnl93+oj4dJ0ZQCkVJhZFgYyeDx0FBGccNKapogLy8cESHXfYHLA3Gm8RRjv1leE+jfOsZ6gmTnpWfAaqSJPoWOue/UAroPPnqGiXdLh+NwdzsjtiXcRAtGgknX9Q1SvtnFhkBHq6H2+37XtYDAHtmECRAttIY5BtzgFI+LGOk8f+IWMhBlnsTtY4CMAoCMe9UZCuPZz9XqRyuA9arI7KuhVssx2/AIyGEYJlSFVtOku4Lw8oeWahQVBjGHRqYkMSLWxEfh2WAQCXhlx5IAQHdBLR/TChWyHXoMU1CU0CONUVk8LBnknzDAIVqnMiyyTlvDPQaSErHeDkuFVHjxRiyuErwo5Fo+Pwe5WjCkfAw9FSbjOF4PcvyhTnLW1a/31QQHl+hFILKfJaVS2syvpkgHP3vZwbC/SrfLdSMEmcqHVqRc90xriXbPBS1AZjyH0QCJdKWd/UuGflbHMjEDIvMrZy6MqT4T3+fo1KluGX89Rh8eeWNjX2plgZGskscBTAE3hslZGJqRCDoigpMSNeLtcq/U0oHnuNcyYiYlS0nACntBA5ivXnqyZMYoWk8QBDx7TXRZrF4AAhosJUxaS95wYQz0vnRWyA+vWn3G7ef1FvLgGa0odkc/B5SsuJjaTd0HnPYKHFbMnR5byy2uOKbWNpm4CtKNjMFmL/0PirWgVpSQkbxejJRroN5IQ9nPs08bFVqcAzAqfO2S8tRsq/V0PGCHKw17rUdy7F5v6NnHNmBQh2s9AW+9O//wwDeCN6FOOR7RaAkzrXekpZAYFT26kPQ5ctySxr+BXeF9YwBTdKqQAcKBqWnWV6Sc69TFhcNYqL5nNpz2DYlK9FKmMNbZeC2E5pat4D2KvSFiRQldM4qBTTv2kfS+hK0AuToLQC/4Q/oX5LAbIG90mLoWt1e4Fx6LqetNcEKFAK7P7WO5Ay6NB1tgSeTP0A2yqVlISPYjjLWRpx7xO6igLHlXTEQ9kRYTH4EGLTi3LPtbGJfo2ImIcGpXOcWAbaW7X6pPVC/OYGKZWqKa8S+UE19CDNr2hCCttMLeueFPkKxYpqByVPsQyMt6g2pVsYBegggxrkPcDws6RIOe5MqQt0RCQr58vnBlSnwVOdenqACqYLsIBpKFOwBH4dfhhE4RGweXMYCSYVceE5ZIW1Dr5odn+m7DUQByrRfDrIIVwkqIAmQeCAUQkuVyVNQUFw+Ajk6hTRKCqR1kB0otI3jAYiLZLSOkp96VlExEQkLXCDdrkColzfYBT4THCJfMbILabyNh24lhiRxlFRiFq2RiSaWLYAk6IjSV/KUWZ9zUUCCJ5iyBF5pj6lLxFrIPYv+pIkRkAAE0ZY4ja3PWTmNAgq9ozX4kvTwTXRmY3UEO1JjsojAKAT8+FPSI0JGCbmJlJhyi3nHiNiGrutcaV7kY5Cjlj7Ter+BAL03dnG4prpYDOLG2dOzokgI5yX20MB2ESFA7TQfobeIVXLRNCRAiM5hHAitP1h/xIbm32CInGcCVU48XmE05dNlj9hehcAmc5M6Ev3FhoGDaKTGFKfoQqTxHgqMMp+JOyxqPxwQOUvKIFM7A58AiPuVgO+1MvDfx/BkSo0Ulow7EYSkCsIilJz6RZSKiUPykOvD9pE0f4x8I52VKX5OHf83eyPg1Fg6kpMRpfpCjsokJB0EQoGkGLITRLkxPRnUDgpfw5jy5eQalCjilhFrafmKRA3ejQota+YAykzpSQmxRQ5y/RZ+m5Rcc8IcvJmTqrXQEVC89nwE0m1orp0Tb4pooOfBrYQeecIqISzqZujUgFJAR2OPSmcQ+Uv2jJVZ4h1wfOlI3WKHQaQvQXyaGmtl+g5RQAAMmzOobUVO4THK8fZqS4Qos3rnRv7ANGm/F0YZiqZi6J9lWPFv/OVabqIVDJIINiK6xNgy4yPQKkQe4r2tE1Do5E0JgFYlIIKhS0b8qQJlJlFk0BMUYUOZjTAkgNKbJUcl2h4MSXhDOXg5HS4/4etUaqr5/Ztf3tVGoRIMXTypjlNCAOvHLPEnEmUpXXUnpYhy4IqiVfz2mWtkGyCf9dc+prEBukzpXXKIuAQx6WSZfiI5IQzSxLsYkqnik0QK5AjbInT4BTS6GQxcvh+T8sQnPhe8n2IZZaWJ5TxqUFPp2IJwRKrilq9J3idOvuIbH0vJdEoHGnSdgWrx8/MVTYBCHXGZHTTOQRz5EGJ969QCkWBh9IvSh/S0Yq2D9uWzmXLyaZUatgMRc6+18guB4PcFWVLJ5KoeOgfOIwrKp3EDCaGFDZLtBHtIwJYVW0J+CiwFuDid/rv+bqiEVq2u2TINOE1l2+qsgnataRta6VzCWAEdsEaiGX3gI5rLZZW4CvAKcEi2Hmy+2IScupVAtCqt10+AotFNIvFoDpW+br8BbGwysfzAYZ4iSmAHKEGHZfzJqJ3SZuBKtRchETTRkosK+99IWR8NM8g0zsS5aXcdlbXivaPSKizGWXUu+OKM4IM5M38WXmQSfinvKnyfsrFckMCLZKWb9G3cRrKRhFiFSMigAVwpPw10V/OdeljFNGJtgsGRuvOXDx2gqJrvw8916RCjqgl5/myil1Uv9T6SYGb0wHKB+b7bz1rLrrWJ4xsojgDbGURkhiQvFeS+A0HXHSjxlenfRhRF8GeKGJs8ZioSUCVQJWir9jzAsraE0nMGHtE190Ruioiv0jDmsAgqO89AWorDSnxk/rNJ1AM26EoRedRqUzlvcWYsaQWhlwgI4kh8ThTXwDsI/431keGm2p87PUUtcbvvEi5LsfQSU+ETkJUelpXAQPsUe73GP9NRybH22LTeNZwZkl3B8VO1kksVBcIZGDSCn7UjVEIS3/yunDe5GQzmCbtHCmUpEPSMwSwSaJz2SGl8BC86dwpyo8GYkzTaN1pH7rrGeBKjGMq946KAumFeH5Cl5DvVVVRWk9F7tSFwXbyjAdzk1hVneO8XrABGjmfQE2ALJ6PSJUqfdJJLeA5aX8lPUn4Dz7nYCrUGFD3p0oGCS553WrCprRcdiOhpZEOLPWvyIEKnnFqJ1/VW6VRkugdRIR+QwQJcTASM5DZAiE+PEhRvhLY5D7ViqjU1YsHDJ8vClJGIkeYQsWpnCaQbcpVi/pSekE5cj3koF1SakTASEgyR2YR9YnWYflVAAeVhCbhUQAGOcwUleKBcmGxCL5hZcSUSyOAiKhdTljIWE43K3lTHi0oVk1OyyiX0any5foOrJsAXZr1IDYkaFweMP08KHxdCw23Isoc9eswIOdGnYEOu0rBhHgzeFEKCdS9qk4EalJUEgZSOoKUBvLoxoeOSFCn61KUJSahBfYIeLE/xGaltJmuJcBELnVUGoRpry5IVvSYWZSgR2mwdJhHw4tTxfDxP5dxzwoklB7snl2xLVnsKdCfga6CjDiDmWXjWREgC6ekcsMEGPKzw3enBkE610rp4TuzsM//ns5l3IsiSQmAc6MiGfR87lMEqvMUabAUeMCmii5P6bNwcHJQAlR8JmJQFNEqWIufq4wxVecgZumm6uR0sy2g3fZLAzOYhOnBQlJvI71CpFc79xJnKCITBhxZdJjTjXo28gXaA8kfSdOi1Ij2F4AEAxgJ53FsZXOzeLUjqMTzlhBPgQD9HTQLrABQOgy3wx4Bsafo5JVeyaWwcNQpdRhnXhqOzHZq7bSH5J8kcJd+hn1TVN0HwCmcocBO9y/mhM9aQk3YWjIYSjXr/GRhIp6j1qK/a40/sChfpKFHNC+BUaJ0uzRSRPyK3mVUhdBTXvcZwQQPDG4gtfhtbYach+KBjRx+riWVgwLCWSlXRdW0FjttGIAjpRNYe4pDErSF0Er5UywJDiCpnZaTEbCSUlYllRIhdlGmSkok7hyxBJOGCLk9LbSoyWRcRKGKHooUDtkYldaJkpJADv+dhGTYYzQgctoyFl1BJBy3WkRLN+E5Xv8QoVoaVVBsqfZfc80FNKTmjahQ6f9O216t+TMpnBfsszD8dPYydhFxCgTnNFQ6GBlsiakQKAowI5EkGYgQaCbwgmhBkW3SmuA6CAwzOydWyH92kaoYPvldqWIICt8jTCmdO428Yl+xNt/3BPxwp+V1MGI6xzmy6qRotO5intCHQ6LV1Eo4GKmkG1HwoPMbWqrMRPhaqK++aGOl/LR+0pokjVRODUTkxvORgwJE2WJIk31RikNRbAaO0hMEs6ezoeFhAjAd7ZWelZTrsgk5cpXgsOvsg8lU0CYwQZAQ9k9rRqcUqUNNkFSfD7e1KVoNMZ5YjE6UnYOsUO7zDAVglB+QPowsKky/2C3poOSM6Z/Cliqdxz0AV+T2XGnNBAQFEGT3Qgwpmy0dABkhgRgEI4mpwrrI1+h7U3oxbHluwZ6Fr7SlauokdiOLryMFLzssAWhOl6RUJvyABiOmCkTYfATlozKsKUc68XdtjkRFiQJrCZbo4Ft0vQR4CVzASBPl54cuo6gFUJQnpxZO3D+LjlcMR0bqOlz5s8Oo01GIBsR3KZeWHh4MoChnKfuTyEd0Gj4u0+wJier6c66vJQ7KIhaicGwcP1R5MJMAiSinFEXnzlra9L4mMgKImDkgpvt8Fb1lfUmgxkTZ6tm1ogo+Rxk0jqJoKdz5K60hJ0oR5GhJKU0YfRq/zFDIWOm9+DfugbyuAWTYHyGwnco3ydTocIaz0eGTQU8UpRg1RSSta9F+oGHOfUTCwQsMpKgwPiN3yUztqzMT4mszQG3nd3u9Kg0CAAIfLBysNBosyWoBP3jiVTQaIs8UaT9PLNtKs6mhT7JNAlvhRAloUVGgz07Urc5CsBWqYOjQzl32KIxsbNAUUSkdlByLnCZuW8JLOdgUVDzDjmU9hwIsgilsRbEbumHuz8BRiSHEuZJAmuApgJA+K6VnIn3D5xYRo1jZHCPxC7OeSOI7sRpdx4T16LCrEa1S8xHrQyZBrC/sPp+HQEFXhwKbxyoiBTZYegdhYuL0uQp8MkvF+wtRcI6aM6sgY4Yv5D5IOjdpYrCH9Jz1frGu8nuJIVE6Qe8L8JN9sRZaaS3/nCTYjBRP9mNZwyJGNe9F7QGlEtJUVtfHuEA/tptfS3+rn7HFd7NGm99ejyfQ+DDbpVW9pugdVK6YAGIYvwSsgKRlPCQ8VXpJ9bfMZwXwEVORI3//jJy7pFASEdnzctbK80oo6lUankZIecuoFpDgM2ki3PhgfKwOdab1SNfhOUir0B33nDQvkTcUdcr7CqpTzoi0sTtWsHXs5SADFQY6ReMXiUH49J+/Xo+9vrmL/9wnAPDvhqTQJmJMcMyYAnGAJz1ZlMCLLYmWv6veAGKRQn9F+6EAFKBFzKDS3krXaEJrGpIXYFYUvSrEUuqwVSKdArcAYc9LKdA2RmpL2oGU6mqBCgZn6mcBkCS2RGWIYj4VgBC0RNM1Bq3qdiyQ2ZIFKCCj/VMAJi2NgDrSdRuA8J97Xi7ktzlAqBbmY1GrfhPlqzkKjHyk+nUnfUUcgDTwJZe+RcpGFGsCCaoKiOg052xjemV5ajAkXXGkIiBFDaruUHe2LKrqTBDMegAdxqxlkUAswIYiODEOii7IaigtoUgxi3afYWtYlaL7we92qPqLVMWwAQgX8uRe/ItCakX1pQ74faOTYeposPzcBCORBPBKTT+T/uDnoFyS49nB/CnKfk4EHQ/sOTqxYCoJMOL8psqJoDrFpmURZWIWpdGRLQjGNwEXsdE49wrMZPPIfnZL9HM6EqwRq8VUgdcKNDLASGkZpbvEUolJB6ue04ZuW0dbow2DcPGP2Su/wgV26LIcUMB55g5zcxD2NYDDz6p0iaMUkfNqlavPeTcYh0R55XSWSmvkmKNELX0eNreoPDnotINb+pREEbdU4GIvJMiVzUpjQ4ibAAAYCElEQVQUurQfeB4SEuWUm3KauYKDn6NcfUQHil4EVlR9o3I7GcxMUV4wDcLdf77/yvfg5gvW8wk4O+n/Zx6EAOlXYCtDdKn0ipiElApRWjGng8UUhC0hGyFzYB6oqBGT6Pk0QTcEzypNpB3A8ZMt6XjFlkZOKRx/Q+pX02IuCH5gRxkMRGvlrEUi+BA4yQAH95OuURqGln3B86Q4M2tfOqm2uC9usVwJVKKvxNYmO1TtbPsolM3rv/ITcOJvUc3MFt7wgUksn7JVl0McuS4Xs+b/zrlf5cuoE0A9rjZj5z0hVg2xACMKfV5y4JHbTMrfnDNW1I49rd+RVqEDWCLClyMXgNDvJTpPjEbcRHbeohi1aTrf04oyEq0YaQd9b+czW+9Dy1fRNC+/O1+VBuGr3z16+YvY/ObmCejse1qhWtgSSnjf1ET4+nvHMWVaPRx+ZtZ4zuU840GLLk/RfrCCXScbIo6Siog0YT7HYhGSNqSrgYkAIH13RPAKmvIRzuxnd4co0BATqtRISoNGujUFPsHGSIPTtSn6nu57nvN7oZGRCN01CBuAsN5nuYbi8tmXg4JG6q71fgQ/2LtrBqnv8EvexQYgvOSD2vzaM0+gqn02ZRftll9bSom7eW7/ZZ4A9sMGIKzvevcHfZtNp1GtEYgXZS39cug3/NGF3QAbgHBhl2YtL8wj5MVyGVN2VxFyZb1ez5YLyfLX8vY3N9V5AhuAsEZbwulozKZP1P6wV9luPbNes7SGk+uhJK5qm9jATmZszcmoAazCorGFD1TYvF77E9gAhNe+BGt5AX23FVVlxSqUfJ7zBpcGSxtGW0CXIhVAMLe+PV30fDQLXrAz/pemsfks9U5fy6f1X/emNgBhXda+Mus3c+stlyzdK+VEWz2zd6+NrHaAUPWsahqrKjcLtT2dVvbF4aSUN1ptl/ev2WyxtMlsbpOJNyvfvF73E9gAhNe9Auv5/aNh35rxWYiRSzvJxt69vmPb9cyaphTj183C/K/Lpm+fPhzbxO1H09hoe9f6oy2bLRp7enK6ng9pc1e2AQhrsgmcGrxztW97vYzmy7i8xdw7JpVX1gTWdWU1JoYsbVH1rB5u2aK/Yx/dO7DpZPWeNXlEP8jb2ACEH+SyXfiL3r80sre2p9Yjc4Ainaa2xcwDg1VP9ehxYo31+iOq8Rtb9gY23LliXx5M7MGT402a8sKv+Pe7wA1A+H7P7cK9y539T94a2OXhBPSfH/bJybQMsan8v2N6MftmVNY0C1tUZoPLu9YbbdliPrGz+cA+/urM5vNNiuEiLPIGIFyEVVi/a7i+v2W39ydWV0urmxp2YnwytbqqSyNT1uspMVlbY/OmsXpraP2dHZQpz+dzu3fUtwePTtbvAW3uCE9gAxDWZCM4QPjgzZ5dGpb+yotlY7PTqdm8sWFfVQw8/Gx/6L85741seGnLeph6srDJsm8ffnGySTFckH2xAQgXZCHW7DIcINzZH0OH4ObAJUezpxMbQsdU6uFUz4BBPVbZWVNbb2fLRjvbqCf2CX9fP1navQfHa/Z0NrejJ7ABCGuyF1x09OO9pV2qvRFJbZN5GfjukGAEgODH3eMBpRpqm1lt/e09Ozs+tN5ggJr7arBtnzwa28nZeFMCeQH2xgYgXIBFWLNLcFBw/fLI3h6dWtVUNl82Nl/MrapqG/V7LLVfVSu4fNH/txjs2nw+s2axQAXUcGtk908b++bgzBYbxnHNdkm5nQ1AWINl9VLG+XRsf3VjaINmZjP2NhjWdRk6BXhQogJIkeqB9bcvoeGRNy+ZjU9RvjQcjWw2n9mfvxlbvbVtM1cnb0ogX+sO2QCE1/r41+7LwRhUZlcHC7t9uYbDX1gFLYKzB6v6hGIvlp6eHOxYb7hl48nY+r3axk+f2mC0ZVWzsMfjxr48mlnd629KINdut2wAwlosKXodnJ3aL29tWR8AoVCCw15t/cobnBaU0PRHaFJe9UcABv3hyKbjiVW9gU1PD2EkvNb5X+5NrLd7GeVLTbc/51o8sR/OTWwAwg9nrX4IV+oAweubrjlA2KsRBDgIcGhQmEb/V7TwtGVTkgy9rR2bz6dWVSV1uZhPbTkd4/efTHr2+dHc+oPhpjT6h7ABvuM1bhiE7/jALuKv94cDm52d2C9vCiCUsN8Bgo89daPgdcz9nT2rmrnNJxPr7Vyy2fjMBv2BnZ4cAjj0PSXR69u/fOP/vmfzmZc7bSiE17nmG4DwOp/++n23GIT9/sx+tNezqQcBVemE4A4fp73u2bK3ZYPtHZudHVuvv2WeuHQQMRm7gHmCcmrXNj2e9u2zo4UNBoNNmmH9tssmxbAOazoYOgNwYr+4tfWcFENlTd23envPmvnEqrpni9kE5UqgBadjm03HtrCSewSD8M3E+jvOIGwAwuveHxuA8LpXYL2+HwDBPMUwszsdgOABhYOF3s4VTAhazDx10LP55BRsY7Nc2OLsBClMb7Q26lUECHMbbgDCem0U3s2GQViDZX0hQOjVEB4t+9s44MvZGDSgRwa2mNlyfApVwnTm5Y4NSpx6dW3/CgZhk2K4CFtjAxAuwiqszzV8K0Do17ash9YMtq3fq2w+PrG6v2W9Yd/mJ8domjRfLG2OZmyVucbpyaxnnx/ObTAcbhiE9dkmcScbgLAGi1oAwlP7xa1t6zdTc0GxNziZN7VNm771t3bNlnOrewPrucjo5NiapesLHEA0tlUvref10J5i6A/tj1+fWr3rKYaNBuF1b48NQHjdK7Be318AQmNXB/PCIMwXmNbqOoRZ07dpM7Cd3S2UOW9tbaM3yuTMqx28GrKyUb2wQVW6sQ57PXsy8RTD1AbD0QYgrNdWwd1sAMIaLCpEiuNT+8WtXQCE6dxsVg/s8dis3rpkDx4+sBs3btjx0xObjCepn6LZoJnbnWs7tl3NrV8tzPpD+9PXp1Zd2rP5dAMQXvf22ACE170C6/X9RYPQ2JX+wn6017epMwJNZac2tGlv1x49OYBTuLR7yZ48ecJ5C6Vdks9zub7Tsxs7PbR1H0Ck2LfPjic2GHijtU1ztfXaLRuAsBbrqSoGZxC8VGlab9vBZIlhTGdnJzYcjqAtODg4sNnM2yOVqobKFmiqOrDG3rrUs/2RaxD69m/3Tq3aMAgXYm9sAMKFWIa1uQgHCM4h7A/mdvvKwJrRJTuaNHY0ryBY9FLn6cSDiMoOD494395NxWWKzhyY7fUae3uvb1t9s8NJzz47nlrfhYybAW9rs090IxsGYQ2W1BfRgcGPLpstmsqOm5Edn05sPJvb/pV9Oz4+xuH11qjl5SKjQiRoKttur7H9UWM3Lm/Z5ye1nc18hsMmInjd22MDEF73Cqzf93tTtWs7fbsxWtqDM7NmuGPfPHxsV65cQYv12Wxq02kWKBfNAeY5WY105OWBg4SBnTYj++Z0YfOZpyo2FU/rtls2AGFNVrTuVfb+zT07nc7s3sHYdnZ37PT0DMDA57sv04z3coz9wBeUUP67sSuDxu5c3bFPn5pNNsOaLsTO2ACEC7EMa3cRN/Z37ebloX30zaFZ3bfhcGhPDg5tNBoyDQkTseqT5nolBRcoeVzY+9e27cyGdu9ovGmotnY7pNzQBiCsycL2ABAu2WxZ25OxtzWYol/60VHqk44Trp6KS0QEHhm4FWiaynaHZj+6um2fPK02AOGC7IsNQLggC7Fml3Fjf8fevDyyr489zVjZdHxi47FXOS3LVLd4FXuBcfEMLGBDmsZ+cn3Lzmxg944mG4CwZvtDt7MBCGuysA4Q3tuv7WS8sKfN0N7aG1o19SlrpY966Y+Go46/KRrw+Qxev/D10RStUu9c27ZPNwDhwuyKDUC4MEuxVhfyxpVtu9afokTxjWv7trU4xgRHn95SgIDDBn95e6TCMGqWy+mssi+fnNl717ftxAb2zQYgrNXeaMHDurJqZ3tnkzz6gS+xA4Sf7NcYyzZdNLY3rKxXLWza9Oxw7AcfUxgAGGQCBj2zK0Pvt96zg5O5LZrGLm8P7ZOT3oZBuCD7YQMQLshCrNllvHFly97oT+x07iLlpe0OXJDU2JOzxmaNgwINa3J7UaoYrm9V6Mo6WVb25HhqVy8N7fFyZPc3AGHNdkfijzYAYT3WFgDhSm2jurGFdzlrZkD8R4u+ffhggshgiZBAQKG2q8OlvX8VDZbRSdElys1ibh+eDDYA4YJsiw1AuCALsWaX4QzCm4Oxzau+9ZsFZrgs6sr+9M3EzpZe11R6qYA18AZqzdJ+8cYQ9qWpeuixMqgWdm/qDIKnM9fsAW1upySUNgBhPXaCixR/st+z07OpPX46sQ9ubNmgdoAwtH9/cFq0Bkouonqhsf1hYz+55sagsi8OZzZbNPbO1W37+OmGQbgou2IDEC7KSqzXddy4sm03+hP79MGpXdvt261dL2Ts2b/dH9sZGISSbqga1yRUABF/9cbItnpLO55X9vmjCdKRT224AQjrtTVad7MBCGuyuAUgVHZyOrWHJ3P72Y1tG9QLmy8rO/LWB0wv6HY93zjoVShXcvD/6eHSJguzH13bss+eVjYe402b12t+AhuA8JoXYE2/3gHCG/2xffjg1K7vDu3NXa9qauxw5h0VVfxcpjtKs3hlaGimdjSr7cNHU/vxjUs2ttq+OZyiG+PmtX5PYAMQ1mRN67poEJ6ezezhycx+fmPLRvU8pImgi9RDEX8pEYLrEVyk+JkzCHOzO9eLSHEDEC7GxtgAhIuxDut2FTf2tuyNwRTsogOEt3cLEJA0UaAAldAwF0WL4FbkeFbZx4/G9u71XTutBnb/cLIBCOu2QXg/G4CwJgu7AghTe/h0Zj+7uWVblZcwOQgogiPVMQgqqOBxUVX2+cGcAKH0QdgAhIuxMTYA4WKsw7pdxXUChI+QYigAASkFQoSwFQgmSidFAYijWWWfEiCcVUP75nC8AQjrtkE2AGG9VrSua/vJvhUG4encfnpz20bVnKWNBRyU/1M9czEBS+sjKvj8YIrqh9vXdu3Tk9rG4+l6PaAf6N1sAMIPdOEu+GUHQLh/ZtcueYrBC6BXgUQphKaNqBrrNW4rekhHnjiD8PDM3r2xY2fVyO4hxbDJMVzwJf9el7dhEL7XY7tYb3Jw4O1T37u0QHvk48nCbl2qrV96o5ZjjlapqmDwP/2wuyK5/P3g1Ie2NHZlp293T/ooZZpONiDhda/0BiC87hVYv+8fDPq2v1XZraGnI+e2O6xtb+jJBfVMETgo1qP8/9rMh7lZbdNFjfdd2+nZiQ3t/mlls9kc3Vo3r/V6AhuAsAbr6cOapmen9stb2zbAuOclJq1Nl33GBIUc1HEvPILThh4Z+O96O+bGlk2NcdB/vDe23s7lzbjnC7A3NgDhAizCGl3Caprj0n60V9tsPrOelzPWA5suC0BYlUJLolh+7raiXy+t9v4qi8oGvdoOprXdPZxbfzDcDGtao32iW9kAhDVY1MGwb5PTU/vrW9sY9zxbLNH86OvDmR3NiwjR5y5Ic1B4BD/ojQ2apd25OrLtemlVVZv1e/bHr8+st5nmeCF2xgYgXIhlWJuLEEDY93HPl3sACK5BGi/69vnBmS0gW66tZspAiUjHDX2Me+7bjW3vqVTZYFDb42nP7h7NrD8YbYa7rc0uWd3IBiCswaIOhgObnp7YX98cWc/mNl2WjolnM7OTZQ3RIhohBZ/gvdQr2+kt7Malnu32zXqeZ/Rn0e/bH++dWW9nb8MgXIC9sQEIF2AR1ugSCkAwu9af2Z3LPRsvfIyzT4Gt7WReoSvixLx52mpqi//N2YObl/u221/alvdUA/PYs8eTvt31cc8bgLBGu2QDENZqMQUQfnlzy/o2A0BQ08Rx07NHT6fQIEfpEtXKOz2zq7t9ipMcIFRW9fr2r9+Mrb9zGXnFjfjo9W6VDUB4vc9/3b5dAOEqAELfposZ6hZcirSoevbweGpTH95Ge1EsSWV9m9uNS958zS1J4SCHvZ49nvbt86O5DQaDDYOwbptl00lxPVY0AAJTDIVB8Als5c9FpYig6BCkUPYJbUWX4FFFmdHQ6/XtXwAQ9mw2yzPh1+NZ/dDuYgMQfmgrdrGv9xmAMJ/Z0gXMtBcOEopcUR0Ryv24wNl/Bl4BXVnNhr2SYvj8aLEBCBd72b/31W1SDN/70V2cNz4LEMpBXs1vL38vVQzeY50FTd5yGYxjiQg8xVADIEyYYtgAhNe9yhuA8LpXYL2+/9sAgo+Hd9vQshUOC/xnbjsAJFaVUKNebY/AIGwAwnrtktXdbADCGqysVzHMUMWwZUOb2aKpbO4lRzzU7VtkCZPTiNFasbFeXVuvcmNQASA4gzDfMAivfXdsAMJrX4K1ugAABGvs6mBud/b61iwXNm+slCiSGcg37LyBM41iDRwf1JVZr67wJwDC4cI8SPES681rvZ4AAML29vZLd7lYZbL/Yw9C1bX/sU950bvP6yrLyJJX8SrRvVQB/7Fv6PV7Zsu5vb/fs11vr9wYKhnKlTtFsHraJQLgqDZ+rf+sX9eY3DVvKvv3A7NFb2izqU+EPJ/Xq3qOK6bkYl/n992RFxEg/BDW8tVd4/ntuFdpA1+439y592rbHzT2zm5pfTRfNrZADwPvdQDjEFYP9kL9lmmxHEf0e2Wg04PpwL5+ylTm8rsBhO97Jp530l/dep/fVb66azzPPdn2d7WzR7dv334pL/j48eNzG+vpX+gNO/b29s7HsvNTjg6PULpzXsta+2Ha3z/Xazw7O7PT09Nzu0ZH/m/cuG5X7KntNqd+zMsBBzbQ0q4kiuVmnnX9nnWcVT170rthp+OJHRwcnNs1+lXs7V1GrvK8Xh71PHni13g+Lz/A29vbtrOzcz4fiB72jT15/OR7f95FBAj+wK9evWolGj2fl+tdjo6Oz3Ut3bac535bLBbneib8yW1hv22fz0PkfnM7/W32z9ftyu7Q3hlNbFit+qOsBjPldS31DKvXqr7B5YpH/X07WQy+c5OkJ0+eWEOt1Lnc/CvYkycnJzYeT851T167du3cz83x0fG5PEJBQ/d3PQBAL2rrW/Xzn//8pQDCF198ca6LurW1ZW/cfOPcbs4/6P439208GZ+bY/MH9Nbbb53rNR4fH5sfkPMCMX7gb9+5bQcPvra9amI3dntWNY7mJUfMgGDVCiUDBd8AJ/Pa7j2d2/XbPzEHMf4sz/N189ZNG41G5/aRbrC/+vKrc/s8BwhXrlzB/87r5QDBz833JaIuIkDwzp3v3H7nvB4RPmc8HtuD+w/O7TN9LW/dunWu+20+n9tXX311bufWb3bvyt6577e7d+/+xWscDQc2nD+1O/tbNqxL5B8Zx+QSxTgGG8kV8t4qXx5Ordq7Ydu73z3I83Pr5/e8Xs5+vvPOO+fqfD1AOm/ne+fOnXO9xldxbt5++20AA38Nh8MNQPi2TfpDAghff/WVjWxq+9t95A0D+VeUI+hGXxD4nc4rezKe250fv29np6cbgHAO1msDEF7uIb4KQ7cBCC9+9q4ZmJ89tZt722QRyBTQVuSQ4nkhtAOE+8cT29m/bnt73x1QbwDCy52Lv/Rbr+LcbADCX3rq6d9/SADh4cOHNp3OzNXIYgeaZlmQelUh9+jYwPONnnmovbSx8hgBhc/AE73+wN56+20bbxiE77BLXvyrG4Dwco/xVRi6DUB48bPvDfo2mUxX81koXsxTGDJIcNaorovuIEY31rVd2d+3S7u7L7fI6bc2AOE7P7LnvuFVnJvvDxDufnFujXPcH21vUgzns0uqyu7cuf3cz/L0g1J9K7pwRSm8KIs8mUzsm2/un2P+zezWJsXwndf7IqYYnM69ffv5++073yDf4Ibu/v0H57jfNimGv7QWz9OQ7FzatdFoCymfs9MTpGh2L12GrT5HyQlSgz+EFMN562J+kCmG3d3dl9IguCjsvPLmUvA6Mj3PlyaKnd91Nnbe1+hRpf/vP+saB/0B2IG5lyE1jXnVgxsHP6AvmsBWrvG86iyKLtq/8zyFbb5vzndPXrxrvIgAwdfy1ZyJi73f/Dw4I3ee5/ainYm634NAbbkok2FdpN3zfHTTmGswzut1nufWr+nV7cn/PDv9fZ7tq/YlqGLY2d55KYDwfW5g857NE9g8ge//BJr+dxdy7V7fsf03L5mLgPu9IjY6j9ef/+dn5/Exm8/YPIHNE/iBPAFnC/9/m0WA/XlZvW4AAAAASUVORK5CYII=;" vertex="1" parent="2">
                    <mxGeometry y="20" width="1064.85" height="600" as="geometry"/>
                </mxCell>
            </root>
        </mxGraphModel>
    </diagram>
</mxfile>